{
.appVersion = "1313";
classes = (
{

glyphs = (
{
glyphname = A;
layers = (
{
anchors = (
{
name = bottom;
position = "{690, 0}";
},
{
name = ogonek;
position = "{1370, 0}";
},
{
name = top;
position = "{690, 1374}";
}
);
layerId = "39F396E6-2268-4814-9B49-0C64559D5675";
paths = (
{
closed = 1;
nodes = (
"422 0 LINE",
"422 88 LINE",
"301 98 LINE SMOOTH",
"292 98 OFFCURVE",
"271 121 OFFCURVE",
"271 133 QCURVE SMOOTH",
"271 137 OFFCURVE",
"272 139 QCURVE SMOOTH",
"408 508 LINE",
"881 508 LINE",
"1022 133 LINE SMOOTH",
"1023 132 OFFCURVE",
"1023 128 QCURVE SMOOTH",
"1023 119 OFFCURVE",
"1009 98 OFFCURVE",
"1001 98 QCURVE SMOOTH",
"883 88 LINE",
"883 0 LINE",
"1370 0 LINE",
"1370 88 LINE",
"1278 104 LINE SMOOTH",
"1255 108 OFFCURVE",
"1243 122 OFFCURVE",
"1235 143 QCURVE SMOOTH",
"760 1407 LINE",
"606 1407 LINE",
"129 113 LINE",
"10 88 LINE",
"10 0 LINE"
);
},
{
closed = 1;
nodes = (
"643 1143 LINE",
"844 606 LINE",
"444 606 LINE"
);
}
);
width = 1380;
}
);
unicode = 0041;
},
{
glyphname = Aacute;
layers = (
{
layerId = "39F396E6-2268-4814-9B49-0C64559D5675";
paths = (
{
closed = 1;
nodes = (
"422 0 LINE",
"422 88 LINE",
"301 98 LINE SMOOTH",
"292 98 OFFCURVE",
"271 121 OFFCURVE",
"271 133 QCURVE SMOOTH",
"271 137 OFFCURVE",
"272 139 QCURVE SMOOTH",
"408 508 LINE",
"881 508 LINE",
"1022 133 LINE SMOOTH",
"1023 132 OFFCURVE",
"1023 128 QCURVE SMOOTH",
"1023 119 OFFCURVE",
"1009 98 OFFCURVE",
"1001 98 QCURVE SMOOTH",
"883 88 LINE",
"883 0 LINE",
"1370 0 LINE",
"1370 88 LINE",
"1278 104 LINE SMOOTH",
"1255 108 OFFCURVE",
"1243 122 OFFCURVE",
"1235 143 QCURVE SMOOTH",
"760 1407 LINE",
"606 1407 LINE",
"129 113 LINE",
"10 88 LINE",
"10 0 LINE"
);
},
{
closed = 1;
nodes = (
"643 1143 LINE",
"844 606 LINE",
"444 606 LINE"
);
},
{
closed = 1;
nodes = (
"672 1524 LINE",
"981 1722 LINE SMOOTH",
"1028 1753 OFFCURVE",
"1028 1804 QCURVE SMOOTH",
"1028 1835 OFFCURVE",
"990 1896 OFFCURVE",
"936 1896 QCURVE SMOOTH",
"895 1896 OFFCURVE",
"849 1867 OFFCURVE",
"827 1841 QCURVE SMOOTH",
"555 1524 LINE"
);
}
);
width = 1380;
}
);
unicode = 00C1;
},
{
glyphname = Acircumflex;
layers = (
{
layerId = "39F396E6-2268-4814-9B49-0C64559D5675";
paths = (
{
closed = 1;
nodes = (
"422 0 LINE",
"422 88 LINE",
"301 98 LINE SMOOTH",
"292 98 OFFCURVE",
"271 121 OFFCURVE",
"271 133 QCURVE SMOOTH",
"271 137 OFFCURVE",
"272 139 QCURVE SMOOTH",
"408 508 LINE",
"881 508 LINE",
"1022 133 LINE SMOOTH",
"1023 132 OFFCURVE",
"1023 128 QCURVE SMOOTH",
"1023 119 OFFCURVE",
"1009 98 OFFCURVE",
"1001 98 QCURVE SMOOTH",
"883 88 LINE",
"883 0 LINE",
"1370 0 LINE",
"1370 88 LINE",
"1278 104 LINE SMOOTH",
"1255 108 OFFCURVE",
"1243 122 OFFCURVE",
"1235 143 QCURVE SMOOTH",
"760 1407 LINE",
"606 1407 LINE",
"129 113 LINE",
"10 88 LINE",
"10 0 LINE"
);
},
{
closed = 1;
nodes = (
"643 1143 LINE",
"844 606 LINE",
"444 606 LINE"
);
},
{
closed = 1;
nodes = (
"446 1524 LINE",
"659 1729 LINE",
"870 1524 LINE",
"993 1524 LINE",
"735 1872 LINE",
"582 1872 LINE",
"324 1524 LINE"
);
}
);
width = 1380;
}
);
unicode = 00C2;
},
{
glyphname = Adieresis;
layers = (
{
layerId = "39F396E6-2268-4814-9B49-0C64559D5675";
paths = (
{
closed = 1;
nodes = (
"422 0 LINE",
"422 88 LINE",
"301 98 LINE SMOOTH",
"292 98 OFFCURVE",
"271 121 OFFCURVE",
"271 133 QCURVE SMOOTH",
"271 137 OFFCURVE",
"272 139 QCURVE SMOOTH",
"408 508 LINE",
"881 508 LINE",
"1022 133 LINE SMOOTH",
"1023 132 OFFCURVE",
"1023 128 QCURVE SMOOTH",
"1023 119 OFFCURVE",
"1009 98 OFFCURVE",
"1001 98 QCURVE SMOOTH",
"883 88 LINE",
"883 0 LINE",
"1370 0 LINE",
"1370 88 LINE",
"1278 104 LINE SMOOTH",
"1255 108 OFFCURVE",
"1243 122 OFFCURVE",
"1235 143 QCURVE SMOOTH",
"760 1407 LINE",
"606 1407 LINE",
"129 113 LINE",
"10 88 LINE",
"10 0 LINE"
);
},
{
closed = 1;
nodes = (
"643 1143 LINE",
"844 606 LINE",
"444 606 LINE"
);
},
{
closed = 1;
nodes = (
"503 1587 OFFCURVE",
"569 1656 OFFCURVE",
"569 1702 QCURVE SMOOTH",
"569 1748 OFFCURVE",
"503 1815 OFFCURVE",
"457 1815 QCURVE SMOOTH",
"412 1815 OFFCURVE",
"344 1744 OFFCURVE",
"344 1700 QCURVE SMOOTH",
"344 1655 OFFCURVE",
"412 1587 OFFCURVE",
"457 1587 QCURVE SMOOTH"
);
},
{
closed = 1;
nodes = (
"927 1587 OFFCURVE",
"993 1656 OFFCURVE",
"993 1702 QCURVE SMOOTH",
"993 1748 OFFCURVE",
"927 1815 OFFCURVE",
"881 1815 QCURVE SMOOTH",
"838 1815 OFFCURVE",
"768 1745 OFFCURVE",
"768 1702 QCURVE SMOOTH",
"768 1656 OFFCURVE",
"835 1587 OFFCURVE",
"881 1587 QCURVE SMOOTH"
);
}
);
width = 1380;
}
);
unicode = 00C4;
},
{
glyphname = Agrave;
layers = (
{
layerId = "39F396E6-2268-4814-9B49-0C64559D5675";
paths = (
{
closed = 1;
nodes = (
"422 0 LINE",
"422 88 LINE",
"301 98 LINE SMOOTH",
"292 98 OFFCURVE",
"271 121 OFFCURVE",
"271 133 QCURVE SMOOTH",
"271 137 OFFCURVE",
"272 139 QCURVE SMOOTH",
"408 508 LINE",
"881 508 LINE",
"1022 133 LINE SMOOTH",
"1023 132 OFFCURVE",
"1023 128 QCURVE SMOOTH",
"1023 119 OFFCURVE",
"1009 98 OFFCURVE",
"1001 98 QCURVE SMOOTH",
"883 88 LINE",
"883 0 LINE",
"1370 0 LINE",
"1370 88 LINE",
"1278 104 LINE SMOOTH",
"1255 108 OFFCURVE",
"1243 122 OFFCURVE",
"1235 143 QCURVE SMOOTH",
"760 1407 LINE",
"606 1407 LINE",
"129 113 LINE",
"10 88 LINE",
"10 0 LINE"
);
},
{
closed = 1;
nodes = (
"643 1143 LINE",
"844 606 LINE",
"444 606 LINE"
);
},
{
closed = 1;
nodes = (
"778 1524 LINE",
"506 1841 LINE SMOOTH",
"484 1867 OFFCURVE",
"441 1896 OFFCURVE",
"399 1896 QCURVE SMOOTH",
"346 1896 OFFCURVE",
"303 1835 OFFCURVE",
"303 1804 QCURVE SMOOTH",
"303 1776 OFFCURVE",
"331 1736 OFFCURVE",
"352 1722 QCURVE SMOOTH",
"664 1524 LINE"
);
}
);
width = 1380;
}
);
unicode = 00C0;
},
{
glyphname = Aring;
layers = (
{
layerId = "39F396E6-2268-4814-9B49-0C64559D5675";
paths = (
{
closed = 1;
nodes = (
"422 0 LINE",
"422 88 LINE",
"301 98 LINE SMOOTH",
"292 98 OFFCURVE",
"271 121 OFFCURVE",
"271 133 QCURVE SMOOTH",
"271 137 OFFCURVE",
"272 139 QCURVE SMOOTH",
"408 508 LINE",
"881 508 LINE",
"1022 133 LINE SMOOTH",
"1023 132 OFFCURVE",
"1023 128 QCURVE SMOOTH",
"1023 119 OFFCURVE",
"1009 98 OFFCURVE",
"1001 98 QCURVE SMOOTH",
"883 88 LINE",
"883 0 LINE",
"1370 0 LINE",
"1370 88 LINE",
"1278 104 LINE SMOOTH",
"1255 108 OFFCURVE",
"1243 122 OFFCURVE",
"1235 143 QCURVE SMOOTH",
"760 1407 LINE",
"606 1407 LINE",
"129 113 LINE",
"10 88 LINE",
"10 0 LINE"
);
},
{
closed = 1;
nodes = (
"643 1143 LINE",
"844 606 LINE",
"444 606 LINE"
);
},
{
closed = 1;
nodes = (
"741 1524 OFFCURVE",
"857 1593 OFFCURVE",
"926 1709 OFFCURVE",
"926 1780 QCURVE SMOOTH",
"926 1851 OFFCURVE",
"857 1966 OFFCURVE",
"741 2034 OFFCURVE",
"670 2034 QCURVE SMOOTH",
"599 2034 OFFCURVE",
"484 1966 OFFCURVE",
"416 1851 OFFCURVE",
"416 1780 QCURVE SMOOTH",
"416 1709 OFFCURVE",
"484 1593 OFFCURVE",
"599 1524 OFFCURVE",
"670 1524 QCURVE SMOOTH"
);
},
{
closed = 1;
nodes = (
"615 1647 OFFCURVE",
"537 1725 OFFCURVE",
"537 1780 QCURVE SMOOTH",
"537 1835 OFFCURVE",
"615 1913 OFFCURVE",
"670 1913 QCURVE SMOOTH",
"725 1913 OFFCURVE",
"803 1835 OFFCURVE",
"803 1780 QCURVE SMOOTH",
"803 1725 OFFCURVE",
"725 1647 OFFCURVE",
"670 1647 QCURVE SMOOTH"
);
}
);
width = 1380;
}
);
unicode = 00C5;
},
{
glyphname = Atilde;
layers = (
{
layerId = "39F396E6-2268-4814-9B49-0C64559D5675";
paths = (
{
closed = 1;
nodes = (
"422 0 LINE",
"422 88 LINE",
"301 98 LINE SMOOTH",
"292 98 OFFCURVE",
"271 121 OFFCURVE",
"271 133 QCURVE SMOOTH",
"271 137 OFFCURVE",
"272 139 QCURVE SMOOTH",
"408 508 LINE",
"881 508 LINE",
"1022 133 LINE SMOOTH",
"1023 132 OFFCURVE",
"1023 128 QCURVE SMOOTH",
"1023 119 OFFCURVE",
"1009 98 OFFCURVE",
"1001 98 QCURVE SMOOTH",
"883 88 LINE",
"883 0 LINE",
"1370 0 LINE",
"1370 88 LINE",
"1278 104 LINE SMOOTH",
"1255 108 OFFCURVE",
"1243 122 OFFCURVE",
"1235 143 QCURVE SMOOTH",
"760 1407 LINE",
"606 1407 LINE",
"129 113 LINE",
"10 88 LINE",
"10 0 LINE"
);
},
{
closed = 1;
nodes = (
"643 1143 LINE",
"844 606 LINE",
"444 606 LINE"
);
},
{
closed = 1;
nodes = (
"399 1587 LINE",
"404 1624 OFFCURVE",
"467 1686 OFFCURVE",
"508 1686 QCURVE SMOOTH",
"575 1686 OFFCURVE",
"660 1636 OFFCURVE",
"737 1587 OFFCURVE",
"791 1587 QCURVE SMOOTH",
"891 1587 OFFCURVE",
"1005 1722 OFFCURVE",
"1028 1812 QCURVE",
"946 1812 LINE",
"942 1775 OFFCURVE",
"881 1714 OFFCURVE",
"840 1714 QCURVE SMOOTH",
"774 1714 OFFCURVE",
"688 1763 OFFCURVE",
"610 1812 OFFCURVE",
"555 1812 QCURVE SMOOTH",
"455 1812 OFFCURVE",
"340 1678 OFFCURVE",
"317 1587 QCURVE"
);
}
);
width = 1380;
}
);
unicode = 00C3;
},
{
glyphname = AE;
layers = (
{
anchors = (
{
name = bottom;
position = "{956, 0}";
},
{
name = top;
position = "{956, 1374}";
}
);
layerId = "39F396E6-2268-4814-9B49-0C64559D5675";
paths = (
{
closed = 1;
nodes = (
"831 0 LINE",
"831 88 LINE",
"932 96 LINE SMOOTH",
"954 98 OFFCURVE",
"985 128 OFFCURVE",
"985 141 QCURVE SMOOTH",
"985 512 LINE",
"512 512 LINE",
"283 141 LINE SMOOTH",
"276 131 OFFCURVE",
"276 121 QCURVE SMOOTH",
"276 100 OFFCURVE",
"297 98 QCURVE SMOOTH",
"414 88 LINE",
"414 0 LINE",
"10 0 LINE",
"10 88 LINE",
"119 104 LINE",
"815 1235 LINE SMOOTH",
"818 1241 OFFCURVE",
"818 1247 QCURVE SMOOTH",
"818 1259 OFFCURVE",
"797 1277 OFFCURVE",
"786 1278 QCURVE SMOOTH",
"686 1288 LINE",
"686 1374 LINE",
"1772 1374 LINE",
"1772 1069 LINE",
"1653 1069 LINE",
"1624 1237 LINE SMOOTH",
"1621 1252 OFFCURVE",
"1603 1276 OFFCURVE",
"1589 1276 QCURVE SMOOTH",
"1192 1276 LINE",
"1192 764 LINE",
"1450 764 LINE SMOOTH",
"1464 764 OFFCURVE",
"1486 790 OFFCURVE",
"1487 801 QCURVE SMOOTH",
"1505 942 LINE",
"1606 942 LINE",
"1606 485 LINE",
"1505 485 LINE",
"1487 629 LINE SMOOTH",
"1486 640 OFFCURVE",
"1462 664 OFFCURVE",
"1450 664 QCURVE SMOOTH",
"1192 664 LINE",
"1192 100 LINE",
"1661 100 LINE SMOOTH",
"1673 100 OFFCURVE",
"1697 129 OFFCURVE",
"1698 139 QCURVE SMOOTH",
"1729 342 LINE",
"1845 342 LINE",
"1845 0 LINE"
);
},
{
closed = 1;
nodes = (
"985 1280 LINE",
"569 612 LINE",
"985 612 LINE"
);
}
);
width = 1911;
}
);
unicode = 00C6;
},
{
glyphname = B;
layers = (
{
anchors = (
{
name = bottom;
position = "{620, 0}";
},
{
name = top;
position = "{620, 1374}";
}
);
layerId = "39F396E6-2268-4814-9B49-0C64559D5675";
paths = (
{
closed = 1;
nodes = (
"1159 282 OFFCURVE",
"1059 123 OFFCURVE",
"900 34 OFFCURVE",
"720 0 OFFCURVE",
"639 0 QCURVE SMOOTH",
"66 0 LINE",
"66 88 LINE",
"174 96 LINE SMOOTH",
"196 98 OFFCURVE",
"217 126 OFFCURVE",
"217 141 QCURVE SMOOTH",
"217 1233 LINE SMOOTH",
"217 1248 OFFCURVE",
"196 1277 OFFCURVE",
"174 1278 QCURVE SMOOTH",
"66 1286 LINE",
"66 1374 LINE",
"614 1374 LINE SMOOTH",
"859 1374 OFFCURVE",
"1075 1198 OFFCURVE",
"1075 1044 QCURVE SMOOTH",
"1075 942 OFFCURVE",
"978 814 OFFCURVE",
"841 745 OFFCURVE",
"780 729 QCURVE",
"872 729 OFFCURVE",
"1046 668 OFFCURVE",
"1159 527 OFFCURVE",
"1159 406 QCURVE SMOOTH"
);
},
{
closed = 1;
nodes = (
"936 529 OFFCURVE",
"769 659 OFFCURVE",
"606 659 QCURVE SMOOTH",
"573 659 OFFCURVE",
"491 653 OFFCURVE",
"428 647 OFFCURVE",
"422 647 QCURVE",
"422 106 LINE",
"422 106 OFFCURVE",
"469 103 OFFCURVE",
"530 100 OFFCURVE",
"549 100 QCURVE SMOOTH",
"764 100 OFFCURVE",
"936 244 OFFCURVE",
"936 389 QCURVE SMOOTH"
);
},
{
closed = 1;
nodes = (
"854 1150 OFFCURVE",
"697 1280 OFFCURVE",
"539 1280 QCURVE SMOOTH",
"507 1280 OFFCURVE",
"433 1274 OFFCURVE",
"422 1274 QCURVE",
"422 756 LINE",
"422 756 OFFCURVE",
"479 754 OFFCURVE",
"496 754 QCURVE SMOOTH",
"696 754 OFFCURVE",
"854 898 OFFCURVE",
"854 1030 QCURVE SMOOTH"
);
}
);
width = 1239;
}
);
unicode = 0042;
},
{
glyphname = C;
layers = (
{
anchors = (
{
name = bottom;
position = "{642, 0}";
},
{
name = top;
position = "{642, 1374}";
}
);
layerId = "39F396E6-2268-4814-9B49-0C64559D5675";
paths = (
{
closed = 1;
nodes = (
"1204 47 LINE",
"1199 45 OFFCURVE",
"1082 5 OFFCURVE",
"900 -33 OFFCURVE",
"795 -33 QCURVE SMOOTH",
"623 -33 OFFCURVE",
"357 86 OFFCURVE",
"174 290 OFFCURVE",
"80 549 OFFCURVE",
"80 690 QCURVE SMOOTH",
"80 902 OFFCURVE",
"260 1225 OFFCURVE",
"583 1407 OFFCURVE",
"797 1407 QCURVE SMOOTH",
"897 1407 OFFCURVE",
"1080 1365 OFFCURVE",
"1204 1327 QCURVE",
"1204 1006 LINE",
"1081 1006 LINE",
"1051 1192 LINE SMOOTH",
"1047 1209 OFFCURVE",
"1025 1235 OFFCURVE",
"1016 1239 QCURVE SMOOTH",
"1008 1243 LINE SMOOTH",
"982 1255 OFFCURVE",
"878 1292 OFFCURVE",
"807 1292 QCURVE SMOOTH",
"668 1292 OFFCURVE",
"445 1155 OFFCURVE",
"315 887 OFFCURVE",
"315 690 QCURVE SMOOTH",
"315 404 OFFCURVE",
"591 80 OFFCURVE",
"834 80 QCURVE SMOOTH",
"906 80 OFFCURVE",
"996 114 OFFCURVE",
"999 115 QCURVE SMOOTH",
"1031 127 OFFCURVE",
"1038 156 QCURVE SMOOTH",
"1085 379 LINE",
"1204 379 LINE"
);
}
);
width = 1284;
}
);
unicode = 0043;
},
{
glyphname = Ccedilla;
layers = (
{
layerId = "39F396E6-2268-4814-9B49-0C64559D5675";
paths = (
{
closed = 1;
nodes = (
"871 -461 OFFCURVE",
"1008 -361 OFFCURVE",
"1008 -266 QCURVE SMOOTH",
"1008 -188 OFFCURVE",
"920 -121 OFFCURVE",
"858 -121 QCURVE SMOOTH",
"842 -121 OFFCURVE",
"822 -127 OFFCURVE",
"811 -129 QCURVE",
"811 -33 LINE",
"913 -32 OFFCURVE",
"1088 6 OFFCURVE",
"1199 45 OFFCURVE",
"1204 47 QCURVE",
"1204 379 LINE",
"1085 379 LINE",
"1038 156 LINE SMOOTH",
"1031 127 OFFCURVE",
"999 115 QCURVE SMOOTH",
"996 114 OFFCURVE",
"906 80 OFFCURVE",
"834 80 QCURVE SMOOTH",
"672 80 OFFCURVE",
"440 229 OFFCURVE",
"315 506 OFFCURVE",
"315 696 QCURVE SMOOTH",
"315 893 OFFCURVE",
"445 1158 OFFCURVE",
"668 1292 OFFCURVE",
"807 1292 QCURVE SMOOTH",
"878 1292 OFFCURVE",
"982 1255 OFFCURVE",
"1008 1243 QCURVE SMOOTH",
"1016 1239 LINE SMOOTH",
"1025 1235 OFFCURVE",
"1050 1206 OFFCURVE",
"1051 1192 QCURVE SMOOTH",
"1081 1006 LINE",
"1204 1006 LINE",
"1204 1327 LINE",
"1080 1365 OFFCURVE",
"897 1407 OFFCURVE",
"797 1407 QCURVE SMOOTH",
"583 1407 OFFCURVE",
"260 1225 OFFCURVE",
"80 902 OFFCURVE",
"80 690 QCURVE SMOOTH",
"80 556 OFFCURVE",
"165 307 OFFCURVE",
"330 107 OFFCURVE",
"572 -19 OFFCURVE",
"729 -31 QCURVE",
"729 -229 LINE",
"729 -229 OFFCURVE",
"761 -217 OFFCURVE",
"776 -217 QCURVE SMOOTH",
"816 -217 OFFCURVE",
"872 -256 OFFCURVE",
"872 -293 QCURVE SMOOTH",
"872 -340 OFFCURVE",
"791 -377 OFFCURVE",
"741 -377 QCURVE SMOOTH",
"703 -377 OFFCURVE",
"616 -360 OFFCURVE",
"616 -360 QCURVE",
"616 -440 LINE",
"616 -440 OFFCURVE",
"714 -461 OFFCURVE",
"768 -461 QCURVE SMOOTH"
);
}
);
width = 1284;
}
);
unicode = 00C7;
},
{
glyphname = D;
layers = (
{
anchors = (
{
name = bottom;
position = "{713, 0}";
},
{
name = center;
position = "{713, 687}";
},
{
name = top;
position = "{713, 1374}";
}
);
layerId = "39F396E6-2268-4814-9B49-0C64559D5675";
paths = (
{
closed = 1;
nodes = (
"1346 556 OFFCURVE",
"1268 308 OFFCURVE",
"1099 113 OFFCURVE",
"828 0 OFFCURVE",
"635 0 QCURVE SMOOTH",
"66 0 LINE",
"66 88 LINE",
"174 96 LINE SMOOTH",
"196 98 OFFCURVE",
"219 126 OFFCURVE",
"219 141 QCURVE SMOOTH",
"219 1233 LINE SMOOTH",
"219 1248 OFFCURVE",
"196 1277 OFFCURVE",
"174 1278 QCURVE SMOOTH",
"66 1286 LINE",
"66 1374 LINE",
"594 1374 LINE SMOOTH",
"809 1374 OFFCURVE",
"1149 1229 OFFCURVE",
"1346 927 OFFCURVE",
"1346 690 QCURVE SMOOTH"
);
},
{
closed = 1;
nodes = (
"1114 901 OFFCURVE",
"983 1160 OFFCURVE",
"744 1276 OFFCURVE",
"582 1276 QCURVE SMOOTH",
"426 1276 LINE",
"426 98 LINE",
"592 100 LINE SMOOTH",
"750 102 OFFCURVE",
"984 219 OFFCURVE",
"1114 475 OFFCURVE",
"1114 686 QCURVE SMOOTH"
);
}
);
width = 1425;
}
);
unicode = 0044;
},
{
glyphname = Eth;
layers = (
{
layerId = "39F396E6-2268-4814-9B49-0C64559D5675";
paths = (
{
closed = 1;
nodes = (
"1346 492 OFFCURVE",
"1188 181 OFFCURVE",
"873 0 OFFCURVE",
"637 0 QCURVE SMOOTH",
"66 0 LINE",
"66 88 LINE",
"174 96 LINE SMOOTH",
"194 98 OFFCURVE",
"217 128 OFFCURVE",
"217 141 QCURVE SMOOTH",
"217 668 LINE",
"31 668 LINE",
"31 772 LINE",
"217 772 LINE",
"217 1233 LINE SMOOTH",
"217 1248 OFFCURVE",
"190 1275 OFFCURVE",
"174 1276 QCURVE SMOOTH",
"66 1286 LINE",
"66 1374 LINE",
"592 1374 LINE SMOOTH",
"749 1374 OFFCURVE",
"1022 1297 OFFCURVE",
"1229 1132 OFFCURVE",
"1346 871 OFFCURVE",
"1346 686 QCURVE SMOOTH"
);
},
{
closed = 1;
nodes = (
"1114 997 OFFCURVE",
"836 1276 OFFCURVE",
"582 1276 QCURVE SMOOTH",
"424 1276 LINE",
"424 772 LINE",
"752 772 LINE",
"752 668 LINE",
"424 668 LINE",
"424 98 LINE",
"584 98 LINE SMOOTH",
"839 98 OFFCURVE",
"1114 387 OFFCURVE",
"1114 686 QCURVE SMOOTH"
);
}
);
width = 1425;
}
);
unicode = 00D0;
},
{
glyphname = E;
layers = (
{
anchors = (
{
name = bottom;
position = "{597, 0}";
},
{
name = ogonek;
position = "{1128, 0}";
},
{
name = top;
position = "{597, 1374}";
},
{
name = topleft;
position = "{20, 1374}";
}
);
layerId = "39F396E6-2268-4814-9B49-0C64559D5675";
paths = (
{
closed = 1;
nodes = (
"66 0 LINE",
"66 88 LINE",
"172 96 LINE SMOOTH",
"194 98 OFFCURVE",
"217 126 OFFCURVE",
"217 141 QCURVE SMOOTH",
"217 1233 LINE SMOOTH",
"217 1248 OFFCURVE",
"194 1277 OFFCURVE",
"172 1278 QCURVE SMOOTH",
"66 1286 LINE",
"66 1374 LINE",
"1061 1374 LINE",
"1061 1069 LINE",
"938 1069 LINE",
"907 1237 LINE SMOOTH",
"906 1252 OFFCURVE",
"884 1276 OFFCURVE",
"870 1276 QCURVE SMOOTH",
"426 1276 LINE",
"426 766 LINE",
"733 766 LINE SMOOTH",
"747 766 OFFCURVE",
"770 790 OFFCURVE",
"770 801 QCURVE SMOOTH",
"791 942 LINE",
"895 942 LINE",
"895 485 LINE",
"791 485 LINE",
"770 627 LINE SMOOTH",
"770 638 OFFCURVE",
"746 664 OFFCURVE",
"733 664 QCURVE SMOOTH",
"426 664 LINE",
"426 100 LINE",
"944 100 LINE SMOOTH",
"957 100 OFFCURVE",
"980 129 OFFCURVE",
"981 139 QCURVE SMOOTH",
"1018 342 LINE",
"1128 342 LINE",
"1128 0 LINE"
);
}
);
width = 1194;
}
);
unicode = 0045;
},
{
glyphname = Eacute;
layers = (
{
layerId = "39F396E6-2268-4814-9B49-0C64559D5675";
paths = (
{
closed = 1;
nodes = (
"1128 0 LINE",
"1128 342 LINE",
"1018 342 LINE",
"981 139 LINE SMOOTH",
"980 129 OFFCURVE",
"957 100 OFFCURVE",
"944 100 QCURVE SMOOTH",
"426 100 LINE",
"426 664 LINE",
"733 664 LINE SMOOTH",
"746 664 OFFCURVE",
"770 638 OFFCURVE",
"770 627 QCURVE SMOOTH",
"791 485 LINE",
"895 485 LINE",
"895 942 LINE",
"791 942 LINE",
"770 801 LINE SMOOTH",
"770 790 OFFCURVE",
"747 766 OFFCURVE",
"733 766 QCURVE SMOOTH",
"426 766 LINE",
"426 1276 LINE",
"870 1276 LINE SMOOTH",
"884 1276 OFFCURVE",
"906 1252 OFFCURVE",
"907 1237 QCURVE SMOOTH",
"938 1069 LINE",
"1061 1069 LINE",
"1061 1374 LINE",
"66 1374 LINE",
"66 1286 LINE",
"172 1278 LINE SMOOTH",
"194 1277 OFFCURVE",
"217 1248 OFFCURVE",
"217 1233 QCURVE SMOOTH",
"217 141 LINE SMOOTH",
"217 126 OFFCURVE",
"194 98 OFFCURVE",
"172 96 QCURVE SMOOTH",
"66 88 LINE",
"66 0 LINE"
);
},
{
closed = 1;
nodes = (
"602 1524 LINE",
"913 1722 LINE SMOOTH",
"961 1753 OFFCURVE",
"961 1806 QCURVE SMOOTH",
"961 1837 OFFCURVE",
"920 1896 OFFCURVE",
"866 1896 QCURVE SMOOTH",
"825 1896 OFFCURVE",
"783 1867 OFFCURVE",
"760 1841 QCURVE SMOOTH",
"485 1524 LINE"
);
}
);
width = 1194;
}
);
unicode = 00C9;
},
{
glyphname = Ecircumflex;
layers = (
{
layerId = "39F396E6-2268-4814-9B49-0C64559D5675";
paths = (
{
closed = 1;
nodes = (
"1128 0 LINE",
"1128 342 LINE",
"1018 342 LINE",
"981 139 LINE SMOOTH",
"980 129 OFFCURVE",
"957 100 OFFCURVE",
"944 100 QCURVE SMOOTH",
"426 100 LINE",
"426 664 LINE",
"733 664 LINE SMOOTH",
"746 664 OFFCURVE",
"770 638 OFFCURVE",
"770 627 QCURVE SMOOTH",
"791 485 LINE",
"895 485 LINE",
"895 942 LINE",
"791 942 LINE",
"770 801 LINE SMOOTH",
"770 790 OFFCURVE",
"747 766 OFFCURVE",
"733 766 QCURVE SMOOTH",
"426 766 LINE",
"426 1276 LINE",
"870 1276 LINE SMOOTH",
"884 1276 OFFCURVE",
"906 1252 OFFCURVE",
"907 1237 QCURVE SMOOTH",
"938 1069 LINE",
"1061 1069 LINE",
"1061 1374 LINE",
"66 1374 LINE",
"66 1286 LINE",
"172 1278 LINE SMOOTH",
"194 1277 OFFCURVE",
"217 1248 OFFCURVE",
"217 1233 QCURVE SMOOTH",
"217 141 LINE SMOOTH",
"217 126 OFFCURVE",
"194 98 OFFCURVE",
"172 96 QCURVE SMOOTH",
"66 88 LINE",
"66 0 LINE"
);
},
{
closed = 1;
nodes = (
"401 1524 LINE",
"612 1729 LINE",
"823 1524 LINE",
"946 1524 LINE",
"690 1872 LINE",
"539 1872 LINE",
"281 1524 LINE"
);
}
);
width = 1194;
}
);
unicode = 00CA;
},
{
glyphname = Edieresis;
layers = (
{
layerId = "39F396E6-2268-4814-9B49-0C64559D5675";
paths = (
{
closed = 1;
nodes = (
"1128 0 LINE",
"1128 342 LINE",
"1018 342 LINE",
"981 139 LINE SMOOTH",
"980 129 OFFCURVE",
"957 100 OFFCURVE",
"944 100 QCURVE SMOOTH",
"426 100 LINE",
"426 664 LINE",
"733 664 LINE SMOOTH",
"746 664 OFFCURVE",
"770 638 OFFCURVE",
"770 627 QCURVE SMOOTH",
"791 485 LINE",
"895 485 LINE",
"895 942 LINE",
"791 942 LINE",
"770 801 LINE SMOOTH",
"770 790 OFFCURVE",
"747 766 OFFCURVE",
"733 766 QCURVE SMOOTH",
"426 766 LINE",
"426 1276 LINE",
"870 1276 LINE SMOOTH",
"884 1276 OFFCURVE",
"906 1252 OFFCURVE",
"907 1237 QCURVE SMOOTH",
"938 1069 LINE",
"1061 1069 LINE",
"1061 1374 LINE",
"66 1374 LINE",
"66 1286 LINE",
"172 1278 LINE SMOOTH",
"194 1277 OFFCURVE",
"217 1248 OFFCURVE",
"217 1233 QCURVE SMOOTH",
"217 141 LINE SMOOTH",
"217 126 OFFCURVE",
"194 98 OFFCURVE",
"172 96 QCURVE SMOOTH",
"66 88 LINE",
"66 0 LINE"
);
},
{
closed = 1;
nodes = (
"462 1587 OFFCURVE",
"526 1656 OFFCURVE",
"526 1702 QCURVE SMOOTH",
"526 1748 OFFCURVE",
"462 1815 OFFCURVE",
"416 1815 QCURVE SMOOTH",
"371 1815 OFFCURVE",
"303 1744 OFFCURVE",
"303 1700 QCURVE SMOOTH",
"303 1655 OFFCURVE",
"371 1587 OFFCURVE",
"416 1587 QCURVE SMOOTH"
);
},
{
closed = 1;
nodes = (
"888 1587 OFFCURVE",
"950 1656 OFFCURVE",
"950 1702 QCURVE SMOOTH",
"950 1748 OFFCURVE",
"888 1815 OFFCURVE",
"842 1815 QCURVE SMOOTH",
"799 1815 OFFCURVE",
"727 1745 OFFCURVE",
"727 1702 QCURVE SMOOTH",
"727 1656 OFFCURVE",
"796 1587 OFFCURVE",
"842 1587 QCURVE SMOOTH"
);
}
);
width = 1194;
}
);
unicode = 00CB;
},
{
glyphname = Egrave;
layers = (
{
layerId = "39F396E6-2268-4814-9B49-0C64559D5675";
paths = (
{
closed = 1;
nodes = (
"1128 0 LINE",
"1128 342 LINE",
"1018 342 LINE",
"981 139 LINE SMOOTH",
"980 129 OFFCURVE",
"957 100 OFFCURVE",
"944 100 QCURVE SMOOTH",
"426 100 LINE",
"426 664 LINE",
"733 664 LINE SMOOTH",
"746 664 OFFCURVE",
"770 638 OFFCURVE",
"770 627 QCURVE SMOOTH",
"791 485 LINE",
"895 485 LINE",
"895 942 LINE",
"791 942 LINE",
"770 801 LINE SMOOTH",
"770 790 OFFCURVE",
"747 766 OFFCURVE",
"733 766 QCURVE SMOOTH",
"426 766 LINE",
"426 1276 LINE",
"870 1276 LINE SMOOTH",
"884 1276 OFFCURVE",
"906 1252 OFFCURVE",
"907 1237 QCURVE SMOOTH",
"938 1069 LINE",
"1061 1069 LINE",
"1061 1374 LINE",
"66 1374 LINE",
"66 1286 LINE",
"172 1278 LINE SMOOTH",
"194 1277 OFFCURVE",
"217 1248 OFFCURVE",
"217 1233 QCURVE SMOOTH",
"217 141 LINE SMOOTH",
"217 126 OFFCURVE",
"194 98 OFFCURVE",
"172 96 QCURVE SMOOTH",
"66 88 LINE",
"66 0 LINE"
);
},
{
closed = 1;
nodes = (
"752 1524 LINE",
"477 1841 LINE SMOOTH",
"454 1867 OFFCURVE",
"412 1896 OFFCURVE",
"371 1896 QCURVE SMOOTH",
"317 1896 OFFCURVE",
"276 1837 OFFCURVE",
"276 1806 QCURVE SMOOTH",
"276 1753 OFFCURVE",
"324 1722 QCURVE SMOOTH",
"635 1524 LINE"
);
}
);
width = 1194;
}
);
unicode = 00C8;
},
{
glyphname = F;
layers = (
{
anchors = (
{
name = bottom;
position = "{554, 0}";
},
{
name = top;
position = "{554, 1374}";
}
);
layerId = "39F396E6-2268-4814-9B49-0C64559D5675";
paths = (
{
closed = 1;
nodes = (
"926 1049 LINE",
"897 1237 LINE SMOOTH",
"894 1252 OFFCURVE",
"876 1274 OFFCURVE",
"862 1274 QCURVE SMOOTH",
"426 1274 LINE",
"426 741 LINE",
"739 741 LINE SMOOTH",
"753 741 OFFCURVE",
"775 768 OFFCURVE",
"776 778 QCURVE SMOOTH",
"795 922 LINE",
"897 922 LINE",
"897 461 LINE",
"795 461 LINE",
"776 604 LINE SMOOTH",
"775 615 OFFCURVE",
"752 641 OFFCURVE",
"739 641 QCURVE SMOOTH",
"426 641 LINE",
"426 141 LINE SMOOTH",
"426 126 OFFCURVE",
"447 98 OFFCURVE",
"469 96 QCURVE SMOOTH",
"606 88 LINE",
"606 0 LINE",
"68 0 LINE",
"68 88 LINE",
"176 96 LINE SMOOTH",
"198 98 OFFCURVE",
"219 126 OFFCURVE",
"219 141 QCURVE SMOOTH",
"219 1233 LINE SMOOTH",
"219 1248 OFFCURVE",
"198 1277 OFFCURVE",
"176 1278 QCURVE SMOOTH",
"51 1286 LINE",
"51 1374 LINE",
"1047 1374 LINE",
"1047 1049 LINE"
);
}
);
width = 1108;
}
);
unicode = 0046;
},
{
glyphname = G;
layers = (
{
anchors = (
{
name = bottom;
position = "{712, 0}";
},
{
name = top;
position = "{712, 1374}";
}
);
layerId = "39F396E6-2268-4814-9B49-0C64559D5675";
paths = (
{
closed = 1;
nodes = (
"1268 565 LINE SMOOTH",
"1246 564 OFFCURVE",
"1225 538 OFFCURVE",
"1225 522 QCURVE SMOOTH",
"1225 49 LINE",
"1225 49 OFFCURVE",
"1102 8 OFFCURVE",
"906 -33 OFFCURVE",
"795 -33 QCURVE SMOOTH",
"624 -33 OFFCURVE",
"358 85 OFFCURVE",
"175 288 OFFCURVE",
"80 548 OFFCURVE",
"80 690 QCURVE SMOOTH",
"80 905 OFFCURVE",
"259 1228 OFFCURVE",
"592 1407 OFFCURVE",
"821 1407 QCURVE SMOOTH",
"926 1407 OFFCURVE",
"1104 1369 OFFCURVE",
"1189 1346 QCURVE SMOOTH",
"1223 1337 LINE",
"1223 1006 LINE",
"1100 1006 LINE",
"1067 1190 LINE SMOOTH",
"1064 1208 OFFCURVE",
"1040 1233 OFFCURVE",
"1026 1239 QCURVE SMOOTH",
"1022 1240 OFFCURVE",
"1014 1244 QCURVE SMOOTH",
"983 1258 OFFCURVE",
"878 1292 OFFCURVE",
"813 1292 QCURVE SMOOTH",
"666 1292 OFFCURVE",
"440 1155 OFFCURVE",
"313 891 OFFCURVE",
"313 700 QCURVE SMOOTH",
"313 405 OFFCURVE",
"598 82 OFFCURVE",
"838 82 QCURVE SMOOTH",
"906 82 OFFCURVE",
"1011 113 OFFCURVE",
"1018 113 QCURVE",
"1018 522 LINE SMOOTH",
"1018 538 OFFCURVE",
"997 564 OFFCURVE",
"975 565 QCURVE SMOOTH",
"838 575 LINE",
"838 664 LINE",
"1372 664 LINE",
"1372 575 LINE"
);
}
);
width = 1423;
}
);
unicode = 0047;
},
{
glyphname = H;
layers = (
{
anchors = (
{
name = bottom;
position = "{761, 0}";
},
{
name = center;
position = "{761, 687}";
},
{
name = top;
position = "{761, 1374}";
},
{
name = topleft;
position = "{20, 1374}";
}
);
layerId = "39F396E6-2268-4814-9B49-0C64559D5675";
paths = (
{
closed = 1;
nodes = (
"938 0 LINE",
"938 88 LINE",
"1055 96 LINE SMOOTH",
"1076 98 OFFCURVE",
"1098 126 OFFCURVE",
"1098 141 QCURVE SMOOTH",
"1098 670 LINE",
"424 670 LINE",
"424 141 LINE SMOOTH",
"424 126 OFFCURVE",
"445 98 OFFCURVE",
"467 96 QCURVE SMOOTH",
"584 88 LINE",
"584 0 LINE",
"66 0 LINE",
"66 88 LINE",
"172 96 LINE SMOOTH",
"194 98 OFFCURVE",
"217 126 OFFCURVE",
"217 141 QCURVE SMOOTH",
"217 1233 LINE SMOOTH",
"217 1248 OFFCURVE",
"194 1275 OFFCURVE",
"172 1276 QCURVE SMOOTH",
"66 1284 LINE",
"66 1374 LINE",
"584 1374 LINE",
"584 1284 LINE",
"467 1276 LINE SMOOTH",
"445 1275 OFFCURVE",
"424 1248 OFFCURVE",
"424 1233 QCURVE SMOOTH",
"424 772 LINE",
"1098 772 LINE",
"1098 1233 LINE SMOOTH",
"1098 1248 OFFCURVE",
"1076 1275 OFFCURVE",
"1055 1276 QCURVE SMOOTH",
"938 1284 LINE",
"938 1374 LINE",
"1456 1374 LINE",
"1456 1284 LINE",
"1350 1276 LINE SMOOTH",
"1328 1275 OFFCURVE",
"1305 1248 OFFCURVE",
"1305 1233 QCURVE SMOOTH",
"1305 141 LINE SMOOTH",
"1305 126 OFFCURVE",
"1328 98 OFFCURVE",
"1350 96 QCURVE SMOOTH",
"1456 88 LINE",
"1456 0 LINE"
);
}
);
width = 1522;
}
);
unicode = 0048;
},
{
glyphname = I;
layers = (
{
anchors = (
{
name = bottom;
position = "{338, 0}";
},
{
name = ogonek;
position = "{608, 0}";
},
{
name = top;
position = "{338, 1374}";
},
{
name = topleft;
position = "{20, 1374}";
}
);
layerId = "39F396E6-2268-4814-9B49-0C64559D5675";
paths = (
{
closed = 1;
nodes = (
"68 0 LINE",
"68 88 LINE",
"190 96 LINE SMOOTH",
"212 98 OFFCURVE",
"233 126 OFFCURVE",
"233 141 QCURVE SMOOTH",
"233 1233 LINE SMOOTH",
"233 1248 OFFCURVE",
"212 1275 OFFCURVE",
"190 1276 QCURVE SMOOTH",
"68 1284 LINE",
"68 1374 LINE",
"608 1374 LINE",
"608 1284 LINE",
"483 1276 LINE SMOOTH",
"462 1275 OFFCURVE",
"440 1248 OFFCURVE",
"440 1233 QCURVE SMOOTH",
"440 141 LINE SMOOTH",
"440 126 OFFCURVE",
"462 98 OFFCURVE",
"483 96 QCURVE SMOOTH",
"608 88 LINE",
"608 0 LINE"
);
}
);
width = 676;
}
);
unicode = 0049;
},
{
glyphname = Iacute;
layers = (
{
layerId = "39F396E6-2268-4814-9B49-0C64559D5675";
paths = (
{
closed = 1;
nodes = (
"608 0 LINE",
"608 88 LINE",
"483 96 LINE SMOOTH",
"462 98 OFFCURVE",
"440 126 OFFCURVE",
"440 141 QCURVE SMOOTH",
"440 1233 LINE SMOOTH",
"440 1248 OFFCURVE",
"462 1275 OFFCURVE",
"483 1276 QCURVE SMOOTH",
"608 1284 LINE",
"608 1374 LINE",
"68 1374 LINE",
"68 1284 LINE",
"190 1276 LINE SMOOTH",
"212 1275 OFFCURVE",
"233 1248 OFFCURVE",
"233 1233 QCURVE SMOOTH",
"233 141 LINE SMOOTH",
"233 126 OFFCURVE",
"212 98 OFFCURVE",
"190 96 QCURVE SMOOTH",
"68 88 LINE",
"68 0 LINE"
);
},
{
closed = 1;
nodes = (
"303 1524 LINE",
"614 1722 LINE SMOOTH",
"662 1753 OFFCURVE",
"662 1806 QCURVE SMOOTH",
"662 1837 OFFCURVE",
"621 1896 OFFCURVE",
"567 1896 QCURVE SMOOTH",
"526 1896 OFFCURVE",
"484 1867 OFFCURVE",
"461 1841 QCURVE SMOOTH",
"186 1524 LINE"
);
}
);
width = 676;
}
);
unicode = 00CD;
},
{
glyphname = Icircumflex;
layers = (
{
layerId = "39F396E6-2268-4814-9B49-0C64559D5675";
paths = (
{
closed = 1;
nodes = (
"608 0 LINE",
"608 88 LINE",
"483 96 LINE SMOOTH",
"462 98 OFFCURVE",
"440 126 OFFCURVE",
"440 141 QCURVE SMOOTH",
"440 1233 LINE SMOOTH",
"440 1248 OFFCURVE",
"462 1275 OFFCURVE",
"483 1276 QCURVE SMOOTH",
"608 1284 LINE",
"608 1374 LINE",
"68 1374 LINE",
"68 1284 LINE",
"190 1276 LINE SMOOTH",
"212 1275 OFFCURVE",
"233 1248 OFFCURVE",
"233 1233 QCURVE SMOOTH",
"233 141 LINE SMOOTH",
"233 126 OFFCURVE",
"212 98 OFFCURVE",
"190 96 QCURVE SMOOTH",
"68 88 LINE",
"68 0 LINE"
);
},
{
closed = 1;
nodes = (
"129 1524 LINE",
"340 1729 LINE",
"551 1524 LINE",
"674 1524 LINE",
"418 1872 LINE",
"260 1872 LINE",
"2 1524 LINE"
);
}
);
width = 676;
}
);
unicode = 00CE;
},
{
glyphname = Idieresis;
layers = (
{
layerId = "39F396E6-2268-4814-9B49-0C64559D5675";
paths = (
{
closed = 1;
nodes = (
"608 0 LINE",
"608 88 LINE",
"483 96 LINE SMOOTH",
"462 98 OFFCURVE",
"440 126 OFFCURVE",
"440 141 QCURVE SMOOTH",
"440 1233 LINE SMOOTH",
"440 1248 OFFCURVE",
"462 1275 OFFCURVE",
"483 1276 QCURVE SMOOTH",
"608 1284 LINE",
"608 1374 LINE",
"68 1374 LINE",
"68 1284 LINE",
"190 1276 LINE SMOOTH",
"212 1275 OFFCURVE",
"233 1248 OFFCURVE",
"233 1233 QCURVE SMOOTH",
"233 141 LINE SMOOTH",
"233 126 OFFCURVE",
"212 98 OFFCURVE",
"190 96 QCURVE SMOOTH",
"68 88 LINE",
"68 0 LINE"
);
},
{
closed = 1;
nodes = (
"171 1587 OFFCURVE",
"238 1656 OFFCURVE",
"238 1702 QCURVE SMOOTH",
"238 1748 OFFCURVE",
"171 1815 OFFCURVE",
"125 1815 QCURVE SMOOTH",
"81 1815 OFFCURVE",
"14 1744 OFFCURVE",
"14 1700 QCURVE SMOOTH",
"14 1655 OFFCURVE",
"81 1587 OFFCURVE",
"125 1587 QCURVE SMOOTH"
);
},
{
closed = 1;
nodes = (
"597 1587 OFFCURVE",
"662 1656 OFFCURVE",
"662 1702 QCURVE SMOOTH",
"662 1748 OFFCURVE",
"595 1815 OFFCURVE",
"549 1815 QCURVE SMOOTH",
"506 1815 OFFCURVE",
"438 1745 OFFCURVE",
"438 1702 QCURVE SMOOTH",
"438 1656 OFFCURVE",
"505 1587 OFFCURVE",
"551 1587 QCURVE SMOOTH"
);
}
);
width = 676;
}
);
unicode = 00CF;
},
{
glyphname = Igrave;
layers = (
{
layerId = "39F396E6-2268-4814-9B49-0C64559D5675";
paths = (
{
closed = 1;
nodes = (
"608 0 LINE",
"608 88 LINE",
"483 96 LINE SMOOTH",
"462 98 OFFCURVE",
"440 126 OFFCURVE",
"440 141 QCURVE SMOOTH",
"440 1233 LINE SMOOTH",
"440 1248 OFFCURVE",
"462 1275 OFFCURVE",
"483 1276 QCURVE SMOOTH",
"608 1284 LINE",
"608 1374 LINE",
"68 1374 LINE",
"68 1284 LINE",
"190 1276 LINE SMOOTH",
"212 1275 OFFCURVE",
"233 1248 OFFCURVE",
"233 1233 QCURVE SMOOTH",
"233 141 LINE SMOOTH",
"233 126 OFFCURVE",
"212 98 OFFCURVE",
"190 96 QCURVE SMOOTH",
"68 88 LINE",
"68 0 LINE"
);
},
{
closed = 1;
nodes = (
"473 1524 LINE",
"199 1841 LINE SMOOTH",
"177 1867 OFFCURVE",
"133 1896 OFFCURVE",
"92 1896 QCURVE SMOOTH",
"38 1896 OFFCURVE",
"-2 1837 OFFCURVE",
"-2 1806 QCURVE SMOOTH",
"-2 1753 OFFCURVE",
"45 1722 QCURVE SMOOTH",
"356 1524 LINE"
);
}
);
width = 676;
}
);
unicode = 00CC;
},
{
glyphname = J;
layers = (
{
anchors = (
{
name = bottom;
position = "{497, 0}";
},
{
name = top;
position = "{497, 1374}";
}
);
layerId = "39F396E6-2268-4814-9B49-0C64559D5675";
paths = (
{
closed = 1;
nodes = (
"821 1278 LINE SMOOTH",
"800 1277 OFFCURVE",
"778 1248 OFFCURVE",
"778 1233 QCURVE SMOOTH",
"778 518 LINE SMOOTH",
"778 348 OFFCURVE",
"691 101 OFFCURVE",
"494 -33 OFFCURVE",
"328 -33 QCURVE SMOOTH",
"262 -33 OFFCURVE",
"139 -6 OFFCURVE",
"57 23 OFFCURVE",
"51 25 QCURVE",
"51 375 LINE",
"174 375 LINE",
"219 125 LINE SMOOTH",
"225 94 OFFCURVE",
"282 72 OFFCURVE",
"313 72 QCURVE SMOOTH",
"453 72 OFFCURVE",
"571 289 OFFCURVE",
"571 504 QCURVE SMOOTH",
"571 1233 LINE SMOOTH",
"571 1248 OFFCURVE",
"550 1277 OFFCURVE",
"528 1278 QCURVE SMOOTH",
"399 1286 LINE",
"399 1374 LINE",
"940 1374 LINE",
"940 1286 LINE"
);
}
);
width = 993;
}
);
unicode = 004A;
},
{
glyphname = K;
layers = (
{
anchors = (
{
name = bottom;
position = "{654, 0}";
},
{
name = top;
position = "{654, 1374}";
}
);
layerId = "39F396E6-2268-4814-9B49-0C64559D5675";
paths = (
{
closed = 1;
nodes = (
"948 0 LINE",
"948 63 LINE",
"567 610 LINE",
"424 610 LINE",
"424 141 LINE SMOOTH",
"424 126 OFFCURVE",
"447 98 OFFCURVE",
"469 96 QCURVE SMOOTH",
"586 88 LINE",
"586 0 LINE",
"66 0 LINE",
"66 88 LINE",
"174 96 LINE SMOOTH",
"196 98 OFFCURVE",
"217 126 OFFCURVE",
"217 141 QCURVE SMOOTH",
"217 1233 LINE SMOOTH",
"217 1248 OFFCURVE",
"196 1277 OFFCURVE",
"174 1278 QCURVE SMOOTH",
"66 1286 LINE",
"66 1374 LINE",
"586 1374 LINE",
"586 1286 LINE",
"469 1278 LINE SMOOTH",
"447 1277 OFFCURVE",
"424 1248 OFFCURVE",
"424 1233 QCURVE SMOOTH",
"424 696 LINE",
"498 696 LINE",
"944 1241 LINE SMOOTH",
"948 1245 OFFCURVE",
"948 1252 QCURVE SMOOTH",
"948 1274 OFFCURVE",
"928 1276 QCURVE SMOOTH",
"823 1286 LINE",
"823 1374 LINE",
"1257 1374 LINE",
"1257 1286 LINE",
"1257 1286 OFFCURVE",
"1192 1279 OFFCURVE",
"1124 1271 OFFCURVE",
"1118 1270 QCURVE SMOOTH",
"700 770 LINE",
"1159 98 LINE",
"1307 88 LINE",
"1307 0 LINE"
);
}
);
width = 1307;
}
);
unicode = 004B;
},
{
glyphname = L;
layers = (
{
anchors = (
{
name = bottom;
position = "{544, 0}";
},
{
name = center;
position = "{544, 687}";
},
{
name = dot;
position = "{544, 0}";
},
{
name = top;
position = "{544, 1374}";
},
{
name = topright;
position = "{424, 987}";
}
);
layerId = "39F396E6-2268-4814-9B49-0C64559D5675";
paths = (
{
closed = 1;
nodes = (
"55 0 LINE",
"55 88 LINE",
"174 96 LINE SMOOTH",
"196 98 OFFCURVE",
"217 126 OFFCURVE",
"217 141 QCURVE SMOOTH",
"217 1233 LINE SMOOTH",
"217 1248 OFFCURVE",
"196 1277 OFFCURVE",
"174 1278 QCURVE SMOOTH",
"55 1286 LINE",
"55 1374 LINE",
"578 1374 LINE",
"578 1286 LINE",
"469 1278 LINE SMOOTH",
"447 1277 OFFCURVE",
"424 1248 OFFCURVE",
"424 1233 QCURVE SMOOTH",
"424 100 LINE",
"854 100 LINE SMOOTH",
"868 100 OFFCURVE",
"898 122 OFFCURVE",
"899 135 QCURVE SMOOTH",
"932 381 LINE",
"1051 381 LINE",
"1051 0 LINE"
);
}
);
width = 1087;
}
);
unicode = 004C;
},
{
glyphname = M;
layers = (
{
anchors = (
{
name = bottom;
position = "{897, 0}";
},
{
name = top;
position = "{897, 1374}";
}
);
layerId = "39F396E6-2268-4814-9B49-0C64559D5675";
paths = (
{
closed = 1;
nodes = (
"1214 0 LINE",
"1214 88 LINE",
"1323 96 LINE SMOOTH",
"1345 98 OFFCURVE",
"1368 126 OFFCURVE",
"1368 141 QCURVE SMOOTH",
"1368 1270 LINE",
"897 0 LINE",
"795 0 LINE",
"340 1251 LINE",
"340 141 LINE SMOOTH",
"340 126 OFFCURVE",
"363 98 OFFCURVE",
"385 96 QCURVE SMOOTH",
"502 88 LINE",
"502 0 LINE",
"59 0 LINE",
"59 88 LINE",
"176 96 LINE SMOOTH",
"198 98 OFFCURVE",
"219 126 OFFCURVE",
"219 141 QCURVE SMOOTH",
"219 1233 LINE SMOOTH",
"219 1248 OFFCURVE",
"198 1277 OFFCURVE",
"176 1278 QCURVE SMOOTH",
"59 1286 LINE",
"59 1374 LINE",
"518 1374 LINE",
"518 1319 LINE",
"889 313 LINE",
"1260 1313 LINE",
"1260 1374 LINE",
"1731 1374 LINE",
"1731 1286 LINE",
"1620 1278 LINE SMOOTH",
"1598 1277 OFFCURVE",
"1575 1248 OFFCURVE",
"1575 1233 QCURVE SMOOTH",
"1575 141 LINE SMOOTH",
"1575 126 OFFCURVE",
"1598 98 OFFCURVE",
"1620 96 QCURVE SMOOTH",
"1731 88 LINE",
"1731 0 LINE"
);
}
);
width = 1794;
}
);
unicode = 004D;
},
{
glyphname = N;
layers = (
{
anchors = (
{
name = bottom;
position = "{739, 0}";
},
{
name = top;
position = "{739, 1374}";
}
);
layerId = "39F396E6-2268-4814-9B49-0C64559D5675";
paths = (
{
closed = 1;
nodes = (
"1303 1278 LINE SMOOTH",
"1281 1277 OFFCURVE",
"1260 1248 OFFCURVE",
"1260 1233 QCURVE SMOOTH",
"1260 0 LINE",
"1100 0 LINE",
"338 1147 LINE",
"338 141 LINE SMOOTH",
"338 126 OFFCURVE",
"359 98 OFFCURVE",
"381 96 QCURVE SMOOTH",
"498 88 LINE",
"498 0 LINE",
"55 0 LINE",
"55 88 LINE",
"172 96 LINE SMOOTH",
"194 98 OFFCURVE",
"217 126 OFFCURVE",
"217 141 QCURVE SMOOTH",
"217 1233 LINE SMOOTH",
"217 1248 OFFCURVE",
"194 1277 OFFCURVE",
"172 1278 QCURVE SMOOTH",
"51 1286 LINE",
"51 1374 LINE",
"457 1374 LINE",
"457 1323 LINE",
"1139 293 LINE",
"1139 1233 LINE SMOOTH",
"1139 1248 OFFCURVE",
"1117 1277 OFFCURVE",
"1096 1278 QCURVE SMOOTH",
"979 1286 LINE",
"979 1374 LINE",
"1417 1374 LINE",
"1417 1286 LINE"
);
}
);
width = 1477;
}
);
unicode = 004E;
},
{
glyphname = Ntilde;
layers = (
{
layerId = "39F396E6-2268-4814-9B49-0C64559D5675";
paths = (
{
closed = 1;
nodes = (
"498 0 LINE",
"498 88 LINE",
"381 96 LINE SMOOTH",
"359 98 OFFCURVE",
"338 126 OFFCURVE",
"338 141 QCURVE SMOOTH",
"338 1147 LINE",
"1100 0 LINE",
"1260 0 LINE",
"1260 1233 LINE SMOOTH",
"1260 1248 OFFCURVE",
"1281 1277 OFFCURVE",
"1303 1278 QCURVE SMOOTH",
"1417 1286 LINE",
"1417 1374 LINE",
"979 1374 LINE",
"979 1286 LINE",
"1096 1278 LINE SMOOTH",
"1117 1277 OFFCURVE",
"1139 1248 OFFCURVE",
"1139 1233 QCURVE SMOOTH",
"1139 293 LINE",
"457 1323 LINE",
"457 1374 LINE",
"51 1374 LINE",
"51 1286 LINE",
"172 1278 LINE SMOOTH",
"194 1277 OFFCURVE",
"217 1248 OFFCURVE",
"217 1233 QCURVE SMOOTH",
"217 141 LINE SMOOTH",
"217 126 OFFCURVE",
"194 98 OFFCURVE",
"172 96 QCURVE SMOOTH",
"55 88 LINE",
"55 0 LINE"
);
},
{
closed = 1;
nodes = (
"487 1587 LINE",
"492 1624 OFFCURVE",
"553 1686 OFFCURVE",
"594 1686 QCURVE SMOOTH",
"661 1686 OFFCURVE",
"746 1636 OFFCURVE",
"825 1587 OFFCURVE",
"879 1587 QCURVE SMOOTH",
"979 1587 OFFCURVE",
"1091 1722 OFFCURVE",
"1114 1812 QCURVE",
"1032 1812 LINE",
"1028 1775 OFFCURVE",
"967 1714 OFFCURVE",
"926 1714 QCURVE SMOOTH",
"860 1714 OFFCURVE",
"774 1763 OFFCURVE",
"696 1812 OFFCURVE",
"641 1812 QCURVE SMOOTH",
"541 1812 OFFCURVE",
"429 1678 OFFCURVE",
"406 1587 QCURVE"
);
}
);
width = 1477;
}
);
unicode = 00D1;
},
{
glyphname = O;
layers = (
{
anchors = (
{
name = bottom;
position = "{749, 0}";
},
{
name = center;
position = "{749, 687}";
},
{
name = ogonek;
position = "{964, 0}";
},
{
name = top;
position = "{749, 1374}";
},
{
name = topleft;
position = "{20, 1374}";
},
{
name = topright;
position = "{1361, 987}";
}
);
layerId = "39F396E6-2268-4814-9B49-0C64559D5675";
paths = (
{
closed = 1;
nodes = (
"1417 537 OFFCURVE",
"1322 277 OFFCURVE",
"1146 79 OFFCURVE",
"900 -33 OFFCURVE",
"750 -33 QCURVE SMOOTH",
"549 -33 OFFCURVE",
"248 156 OFFCURVE",
"80 482 OFFCURVE",
"80 688 QCURVE SMOOTH",
"80 838 OFFCURVE",
"173 1098 OFFCURVE",
"349 1296 OFFCURVE",
"595 1407 OFFCURVE",
"748 1407 QCURVE SMOOTH",
"900 1407 OFFCURVE",
"1146 1295 OFFCURVE",
"1322 1096 OFFCURVE",
"1417 835 OFFCURVE",
"1417 686 QCURVE SMOOTH"
);
},
{
closed = 1;
nodes = (
"1180 851 OFFCURVE",
"1084 1126 OFFCURVE",
"893 1290 OFFCURVE",
"750 1290 QCURVE SMOOTH",
"602 1290 OFFCURVE",
"409 1125 OFFCURVE",
"315 851 OFFCURVE",
"315 688 QCURVE SMOOTH",
"315 524 OFFCURVE",
"409 247 OFFCURVE",
"600 80 OFFCURVE",
"745 80 QCURVE SMOOTH",
"893 80 OFFCURVE",
"1085 247 OFFCURVE",
"1180 522 OFFCURVE",
"1180 684 QCURVE SMOOTH"
);
}
);
width = 1497;
}
);
unicode = 004F;
},
{
glyphname = Oacute;
layers = (
{
layerId = "39F396E6-2268-4814-9B49-0C64559D5675";
paths = (
{
closed = 1;
nodes = (
"900 -33 OFFCURVE",
"1146 79 OFFCURVE",
"1322 277 OFFCURVE",
"1417 537 OFFCURVE",
"1417 686 QCURVE SMOOTH",
"1417 835 OFFCURVE",
"1322 1096 OFFCURVE",
"1146 1295 OFFCURVE",
"900 1407 OFFCURVE",
"748 1407 QCURVE SMOOTH",
"595 1407 OFFCURVE",
"349 1296 OFFCURVE",
"173 1098 OFFCURVE",
"80 838 OFFCURVE",
"80 688 QCURVE SMOOTH",
"80 482 OFFCURVE",
"248 156 OFFCURVE",
"549 -33 OFFCURVE",
"750 -33 QCURVE SMOOTH"
);
},
{
closed = 1;
nodes = (
"600 80 OFFCURVE",
"409 247 OFFCURVE",
"315 524 OFFCURVE",
"315 688 QCURVE SMOOTH",
"315 851 OFFCURVE",
"409 1125 OFFCURVE",
"602 1290 OFFCURVE",
"750 1290 QCURVE SMOOTH",
"893 1290 OFFCURVE",
"1084 1126 OFFCURVE",
"1180 851 OFFCURVE",
"1180 684 QCURVE SMOOTH",
"1180 522 OFFCURVE",
"1085 247 OFFCURVE",
"893 80 OFFCURVE",
"745 80 QCURVE SMOOTH"
);
},
{
closed = 1;
nodes = (
"748 1524 LINE",
"1059 1722 LINE SMOOTH",
"1106 1751 OFFCURVE",
"1106 1806 QCURVE SMOOTH",
"1106 1837 OFFCURVE",
"1065 1896 OFFCURVE",
"1012 1896 QCURVE SMOOTH",
"970 1896 OFFCURVE",
"927 1867 OFFCURVE",
"905 1841 QCURVE SMOOTH",
"631 1524 LINE"
);
}
);
width = 1497;
}
);
unicode = 00D3;
},
{
glyphname = Ocircumflex;
layers = (
{
layerId = "39F396E6-2268-4814-9B49-0C64559D5675";
paths = (
{
closed = 1;
nodes = (
"900 -33 OFFCURVE",
"1146 79 OFFCURVE",
"1322 277 OFFCURVE",
"1417 537 OFFCURVE",
"1417 686 QCURVE SMOOTH",
"1417 835 OFFCURVE",
"1322 1096 OFFCURVE",
"1146 1295 OFFCURVE",
"900 1407 OFFCURVE",
"748 1407 QCURVE SMOOTH",
"595 1407 OFFCURVE",
"349 1296 OFFCURVE",
"173 1098 OFFCURVE",
"80 838 OFFCURVE",
"80 688 QCURVE SMOOTH",
"80 482 OFFCURVE",
"248 156 OFFCURVE",
"549 -33 OFFCURVE",
"750 -33 QCURVE SMOOTH"
);
},
{
closed = 1;
nodes = (
"600 80 OFFCURVE",
"409 247 OFFCURVE",
"315 524 OFFCURVE",
"315 688 QCURVE SMOOTH",
"315 851 OFFCURVE",
"409 1125 OFFCURVE",
"602 1290 OFFCURVE",
"750 1290 QCURVE SMOOTH",
"893 1290 OFFCURVE",
"1084 1126 OFFCURVE",
"1180 851 OFFCURVE",
"1180 684 QCURVE SMOOTH",
"1180 522 OFFCURVE",
"1085 247 OFFCURVE",
"893 80 OFFCURVE",
"745 80 QCURVE SMOOTH"
);
},
{
closed = 1;
nodes = (
"537 1524 LINE",
"748 1729 LINE",
"958 1524 LINE",
"1081 1524 LINE",
"823 1872 LINE",
"670 1872 LINE",
"414 1524 LINE"
);
}
);
width = 1497;
}
);
unicode = 00D4;
},
{
glyphname = Odieresis;
layers = (
{
layerId = "39F396E6-2268-4814-9B49-0C64559D5675";
paths = (
{
closed = 1;
nodes = (
"900 -33 OFFCURVE",
"1146 79 OFFCURVE",
"1322 277 OFFCURVE",
"1417 537 OFFCURVE",
"1417 686 QCURVE SMOOTH",
"1417 835 OFFCURVE",
"1322 1096 OFFCURVE",
"1146 1295 OFFCURVE",
"900 1407 OFFCURVE",
"748 1407 QCURVE SMOOTH",
"595 1407 OFFCURVE",
"349 1296 OFFCURVE",
"173 1098 OFFCURVE",
"80 838 OFFCURVE",
"80 688 QCURVE SMOOTH",
"80 482 OFFCURVE",
"248 156 OFFCURVE",
"549 -33 OFFCURVE",
"750 -33 QCURVE SMOOTH"
);
},
{
closed = 1;
nodes = (
"600 80 OFFCURVE",
"409 247 OFFCURVE",
"315 524 OFFCURVE",
"315 688 QCURVE SMOOTH",
"315 851 OFFCURVE",
"409 1125 OFFCURVE",
"602 1290 OFFCURVE",
"750 1290 QCURVE SMOOTH",
"893 1290 OFFCURVE",
"1084 1126 OFFCURVE",
"1180 851 OFFCURVE",
"1180 684 QCURVE SMOOTH",
"1180 522 OFFCURVE",
"1085 247 OFFCURVE",
"893 80 OFFCURVE",
"745 80 QCURVE SMOOTH"
);
},
{
closed = 1;
nodes = (
"579 1587 OFFCURVE",
"645 1656 OFFCURVE",
"645 1702 QCURVE SMOOTH",
"645 1748 OFFCURVE",
"579 1815 OFFCURVE",
"532 1815 QCURVE SMOOTH",
"488 1815 OFFCURVE",
"422 1744 OFFCURVE",
"422 1700 QCURVE SMOOTH",
"422 1655 OFFCURVE",
"488 1587 OFFCURVE",
"532 1587 QCURVE SMOOTH"
);
},
{
closed = 1;
nodes = (
"1005 1587 OFFCURVE",
"1069 1656 OFFCURVE",
"1069 1702 QCURVE SMOOTH",
"1069 1748 OFFCURVE",
"1003 1815 OFFCURVE",
"956 1815 QCURVE SMOOTH",
"913 1815 OFFCURVE",
"846 1745 OFFCURVE",
"846 1702 QCURVE SMOOTH",
"846 1656 OFFCURVE",
"912 1587 OFFCURVE",
"958 1587 QCURVE SMOOTH"
);
}
);
width = 1499;
}
);
unicode = 00D6;
},
{
glyphname = Ograve;
layers = (
{
layerId = "39F396E6-2268-4814-9B49-0C64559D5675";
paths = (
{
closed = 1;
nodes = (
"900 -33 OFFCURVE",
"1146 79 OFFCURVE",
"1322 277 OFFCURVE",
"1417 537 OFFCURVE",
"1417 686 QCURVE SMOOTH",
"1417 835 OFFCURVE",
"1322 1096 OFFCURVE",
"1146 1295 OFFCURVE",
"900 1407 OFFCURVE",
"748 1407 QCURVE SMOOTH",
"595 1407 OFFCURVE",
"349 1296 OFFCURVE",
"173 1098 OFFCURVE",
"80 838 OFFCURVE",
"80 688 QCURVE SMOOTH",
"80 482 OFFCURVE",
"248 156 OFFCURVE",
"549 -33 OFFCURVE",
"750 -33 QCURVE SMOOTH"
);
},
{
closed = 1;
nodes = (
"600 80 OFFCURVE",
"409 247 OFFCURVE",
"315 524 OFFCURVE",
"315 688 QCURVE SMOOTH",
"315 851 OFFCURVE",
"409 1125 OFFCURVE",
"602 1290 OFFCURVE",
"750 1290 QCURVE SMOOTH",
"893 1290 OFFCURVE",
"1084 1126 OFFCURVE",
"1180 851 OFFCURVE",
"1180 684 QCURVE SMOOTH",
"1180 522 OFFCURVE",
"1085 247 OFFCURVE",
"893 80 OFFCURVE",
"745 80 QCURVE SMOOTH"
);
},
{
closed = 1;
nodes = (
"856 1524 LINE",
"582 1841 LINE SMOOTH",
"560 1867 OFFCURVE",
"516 1896 OFFCURVE",
"475 1896 QCURVE SMOOTH",
"421 1896 OFFCURVE",
"381 1837 OFFCURVE",
"381 1806 QCURVE SMOOTH",
"381 1753 OFFCURVE",
"428 1722 QCURVE SMOOTH",
"739 1524 LINE"
);
}
);
width = 1497;
}
);
unicode = 00D2;
},
{
glyphname = Oslash;
layers = (
{
anchors = (
{
name = bottom;
position = "{749, 0}";
},
{
name = top;
position = "{749, 1374}";
}
);
layerId = "39F396E6-2268-4814-9B49-0C64559D5675";
paths = (
{
closed = 1;
nodes = (
"1417 537 OFFCURVE",
"1322 277 OFFCURVE",
"1146 79 OFFCURVE",
"900 -33 OFFCURVE",
"750 -33 QCURVE SMOOTH",
"565 -33 OFFCURVE",
"420 49 QCURVE",
"388 -5 OFFCURVE",
"325 -109 OFFCURVE",
"293 -162 QCURVE",
"199 -104 LINE",
"328 113 LINE",
"211 210 OFFCURVE",
"80 509 OFFCURVE",
"80 688 QCURVE SMOOTH",
"80 838 OFFCURVE",
"173 1098 OFFCURVE",
"349 1296 OFFCURVE",
"595 1407 OFFCURVE",
"748 1407 QCURVE SMOOTH",
"834 1407 OFFCURVE",
"989 1369 OFFCURVE",
"1055 1335 QCURVE",
"1171 1532 LINE",
"1268 1475 LINE",
"1242 1430 OFFCURVE",
"1181 1330 OFFCURVE",
"1149 1276 QCURVE",
"1277 1178 OFFCURVE",
"1417 869 OFFCURVE",
"1417 686 QCURVE SMOOTH"
);
},
{
closed = 1;
nodes = (
"886 1290 OFFCURVE",
"750 1290 QCURVE SMOOTH",
"602 1290 OFFCURVE",
"409 1125 OFFCURVE",
"315 851 OFFCURVE",
"315 688 QCURVE SMOOTH",
"315 567 OFFCURVE",
"368 349 OFFCURVE",
"420 266 QCURVE",
"981 1212 LINE"
);
},
{
closed = 1;
nodes = (
"1180 816 OFFCURVE",
"1122 1046 OFFCURVE",
"1063 1128 QCURVE",
"940 921 OFFCURVE",
"648 431 OFFCURVE",
"496 174 QCURVE",
"545 130 OFFCURVE",
"669 80 OFFCURVE",
"745 80 QCURVE SMOOTH",
"893 80 OFFCURVE",
"1085 247 OFFCURVE",
"1180 522 OFFCURVE",
"1180 684 QCURVE SMOOTH"
);
}
);
width = 1497;
}
);
unicode = 00D8;
},
{
glyphname = Otilde;
layers = (
{
layerId = "39F396E6-2268-4814-9B49-0C64559D5675";
paths = (
{
closed = 1;
nodes = (
"900 -33 OFFCURVE",
"1146 79 OFFCURVE",
"1322 277 OFFCURVE",
"1417 537 OFFCURVE",
"1417 686 QCURVE SMOOTH",
"1417 835 OFFCURVE",
"1322 1096 OFFCURVE",
"1146 1295 OFFCURVE",
"900 1407 OFFCURVE",
"748 1407 QCURVE SMOOTH",
"595 1407 OFFCURVE",
"349 1296 OFFCURVE",
"173 1098 OFFCURVE",
"80 838 OFFCURVE",
"80 688 QCURVE SMOOTH",
"80 482 OFFCURVE",
"248 156 OFFCURVE",
"549 -33 OFFCURVE",
"750 -33 QCURVE SMOOTH"
);
},
{
closed = 1;
nodes = (
"600 80 OFFCURVE",
"409 247 OFFCURVE",
"315 524 OFFCURVE",
"315 688 QCURVE SMOOTH",
"315 851 OFFCURVE",
"409 1125 OFFCURVE",
"602 1290 OFFCURVE",
"750 1290 QCURVE SMOOTH",
"893 1290 OFFCURVE",
"1084 1126 OFFCURVE",
"1180 851 OFFCURVE",
"1180 684 QCURVE SMOOTH",
"1180 522 OFFCURVE",
"1085 247 OFFCURVE",
"893 80 OFFCURVE",
"745 80 QCURVE SMOOTH"
);
},
{
closed = 1;
nodes = (
"471 1587 LINE",
"476 1624 OFFCURVE",
"536 1686 OFFCURVE",
"578 1686 QCURVE SMOOTH",
"645 1686 OFFCURVE",
"730 1636 OFFCURVE",
"808 1587 OFFCURVE",
"862 1587 QCURVE SMOOTH",
"962 1587 OFFCURVE",
"1077 1722 OFFCURVE",
"1100 1812 QCURVE",
"1018 1812 LINE",
"1014 1775 OFFCURVE",
"951 1714 OFFCURVE",
"909 1714 QCURVE SMOOTH",
"843 1714 OFFCURVE",
"758 1763 OFFCURVE",
"681 1812 OFFCURVE",
"627 1812 QCURVE SMOOTH",
"527 1812 OFFCURVE",
"412 1678 OFFCURVE",
"389 1587 QCURVE"
);
}
);
width = 1497;
}
);
unicode = 00D5;
},
{
glyphname = OE;
layers = (
{
anchors = (
{
name = bottom;
position = "{1023, 0}";
},
{
name = top;
position = "{1023, 1374}";
}
);
layerId = "39F396E6-2268-4814-9B49-0C64559D5675";
paths = (
{
closed = 1;
nodes = (
"1069 0 LINE",
"1069 113 LINE",
"999 43 OFFCURVE",
"803 -33 OFFCURVE",
"680 -33 QCURVE SMOOTH",
"480 -33 OFFCURVE",
"213 156 OFFCURVE",
"80 482 OFFCURVE",
"80 688 QCURVE SMOOTH",
"80 888 OFFCURVE",
"209 1214 OFFCURVE",
"474 1407 OFFCURVE",
"678 1407 QCURVE SMOOTH",
"803 1407 OFFCURVE",
"999 1331 OFFCURVE",
"1069 1262 QCURVE",
"1069 1374 LINE",
"1913 1374 LINE",
"1913 1069 LINE",
"1790 1069 LINE",
"1759 1237 LINE SMOOTH",
"1758 1252 OFFCURVE",
"1736 1276 OFFCURVE",
"1722 1276 QCURVE SMOOTH",
"1278 1276 LINE",
"1278 766 LINE",
"1585 766 LINE SMOOTH",
"1599 766 OFFCURVE",
"1622 790 OFFCURVE",
"1622 801 QCURVE SMOOTH",
"1642 942 LINE",
"1747 942 LINE",
"1747 485 LINE",
"1642 485 LINE",
"1622 627 LINE SMOOTH",
"1622 638 OFFCURVE",
"1598 664 OFFCURVE",
"1585 664 QCURVE SMOOTH",
"1278 664 LINE",
"1278 100 LINE",
"1796 100 LINE SMOOTH",
"1808 100 OFFCURVE",
"1832 129 OFFCURVE",
"1835 139 QCURVE SMOOTH",
"1870 342 LINE",
"1980 342 LINE",
"1980 0 LINE"
);
},
{
closed = 1;
nodes = (
"1040 851 OFFCURVE",
"980 1126 OFFCURVE",
"824 1290 OFFCURVE",
"680 1290 QCURVE SMOOTH",
"569 1290 OFFCURVE",
"426 1195 OFFCURVE",
"346 1028 OFFCURVE",
"315 810 OFFCURVE",
"315 688 QCURVE SMOOTH",
"315 565 OFFCURVE",
"347 345 OFFCURVE",
"426 177 OFFCURVE",
"567 80 OFFCURVE",
"676 80 QCURVE SMOOTH",
"787 80 OFFCURVE",
"929 176 OFFCURVE",
"1008 345 OFFCURVE",
"1040 563 OFFCURVE",
"1040 684 QCURVE SMOOTH"
);
}
);
width = 2046;
}
);
unicode = 0152;
},
{
glyphname = P;
layers = (
{
anchors = (
{
name = bottom;
position = "{593, 0}";
},
{
name = top;
position = "{593, 1374}";
}
);
layerId = "39F396E6-2268-4814-9B49-0C64559D5675";
paths = (
{
closed = 1;
nodes = (
"1106 811 OFFCURVE",
"964 613 OFFCURVE",
"724 514 OFFCURVE",
"577 514 QCURVE SMOOTH",
"571 514 LINE SMOOTH",
"531 514 OFFCURVE",
"434 521 OFFCURVE",
"426 522 QCURVE",
"426 141 LINE SMOOTH",
"426 126 OFFCURVE",
"447 98 OFFCURVE",
"469 96 QCURVE SMOOTH",
"604 88 LINE",
"604 0 LINE",
"66 0 LINE",
"66 88 LINE",
"174 96 LINE SMOOTH",
"196 98 OFFCURVE",
"219 126 OFFCURVE",
"219 141 QCURVE SMOOTH",
"219 1233 LINE SMOOTH",
"219 1248 OFFCURVE",
"196 1277 OFFCURVE",
"174 1278 QCURVE SMOOTH",
"51 1286 LINE",
"51 1374 LINE",
"541 1374 LINE SMOOTH",
"831 1374 OFFCURVE",
"1106 1188 OFFCURVE",
"1106 961 QCURVE SMOOTH"
);
},
{
closed = 1;
nodes = (
"893 1107 OFFCURVE",
"726 1274 OFFCURVE",
"530 1274 QCURVE SMOOTH",
"502 1274 OFFCURVE",
"426 1272 OFFCURVE",
"426 1272 QCURVE",
"426 627 LINE",
"431 627 OFFCURVE",
"512 616 OFFCURVE",
"541 616 QCURVE SMOOTH",
"547 616 LINE SMOOTH",
"706 616 OFFCURVE",
"893 782 OFFCURVE",
"893 958 QCURVE SMOOTH"
);
}
);
width = 1186;
}
);
unicode = 0050;
},
{
glyphname = Thorn;
layers = (
{
anchors = (
{
name = bottom;
position = "{592, 0}";
},
{
name = top;
position = "{592, 1374}";
}
);
layerId = "39F396E6-2268-4814-9B49-0C64559D5675";
paths = (
{
closed = 1;
nodes = (
"1104 568 OFFCURVE",
"969 372 OFFCURVE",
"731 270 OFFCURVE",
"575 270 QCURVE SMOOTH",
"569 270 LINE SMOOTH",
"541 270 OFFCURVE",
"473 276 OFFCURVE",
"424 281 OFFCURVE",
"424 281 QCURVE",
"424 141 LINE SMOOTH",
"424 123 OFFCURVE",
"450 98 OFFCURVE",
"469 96 QCURVE SMOOTH",
"588 88 LINE",
"588 0 LINE",
"66 0 LINE",
"66 88 LINE",
"170 96 LINE SMOOTH",
"189 98 OFFCURVE",
"215 123 OFFCURVE",
"215 141 QCURVE SMOOTH",
"215 1233 LINE SMOOTH",
"215 1251 OFFCURVE",
"189 1277 OFFCURVE",
"170 1278 QCURVE SMOOTH",
"66 1286 LINE",
"66 1374 LINE",
"588 1374 LINE",
"588 1286 LINE",
"469 1278 LINE SMOOTH",
"450 1277 OFFCURVE",
"424 1251 OFFCURVE",
"424 1233 QCURVE SMOOTH",
"424 1116 LINE",
"563 1116 LINE",
"843 1112 OFFCURVE",
"1104 925 OFFCURVE",
"1104 709 QCURVE SMOOTH"
);
},
{
closed = 1;
nodes = (
"870 856 OFFCURVE",
"731 1021 OFFCURVE",
"551 1021 QCURVE SMOOTH",
"544 1021 OFFCURVE",
"528 1020 OFFCURVE",
"520 1020 QCURVE SMOOTH",
"519 1021 OFFCURVE",
"508 1021 QCURVE SMOOTH",
"489 1021 OFFCURVE",
"424 1016 OFFCURVE",
"424 1016 QCURVE",
"424 383 LINE",
"424 383 OFFCURVE",
"467 379 OFFCURVE",
"524 375 OFFCURVE",
"543 375 QCURVE SMOOTH",
"549 375 LINE SMOOTH",
"710 375 OFFCURVE",
"870 537 OFFCURVE",
"870 709 QCURVE SMOOTH"
);
}
);
width = 1184;
}
);
unicode = 00DE;
},
{
glyphname = Q;
layers = (
{
anchors = (
{
name = bottom;
position = "{757, 0}";
},
{
name = top;
position = "{757, 1374}";
}
);
layerId = "39F396E6-2268-4814-9B49-0C64559D5675";
paths = (
{
closed = 1;
nodes = (
"1434 502 OFFCURVE",
"1299 202 OFFCURVE",
"1046 6 OFFCURVE",
"868 -23 QCURVE",
"870 -138 OFFCURVE",
"1010 -270 OFFCURVE",
"1151 -270 QCURVE SMOOTH",
"1222 -270 OFFCURVE",
"1326 -253 OFFCURVE",
"1344 -249 QCURVE SMOOTH",
"1345 -249 OFFCURVE",
"1347 -248 OFFCURVE",
"1348 -248 QCURVE SMOOTH",
"1348 -336 LINE SMOOTH",
"1347 -336 OFFCURVE",
"1345 -337 OFFCURVE",
"1343 -337 QCURVE SMOOTH",
"1315 -343 OFFCURVE",
"1147 -371 OFFCURVE",
"1044 -371 QCURVE SMOOTH",
"828 -371 OFFCURVE",
"649 -185 OFFCURVE",
"649 -27 QCURVE",
"486 -3 OFFCURVE",
"228 182 OFFCURVE",
"80 486 OFFCURVE",
"80 686 QCURVE SMOOTH",
"80 836 OFFCURVE",
"175 1098 OFFCURVE",
"352 1296 OFFCURVE",
"600 1407 OFFCURVE",
"754 1407 QCURVE SMOOTH",
"962 1407 OFFCURVE",
"1267 1215 OFFCURVE",
"1434 888 OFFCURVE",
"1434 686 QCURVE SMOOTH"
);
},
{
closed = 1;
nodes = (
"1192 847 OFFCURVE",
"1099 1123 OFFCURVE",
"907 1292 OFFCURVE",
"756 1292 QCURVE SMOOTH",
"607 1292 OFFCURVE",
"413 1127 OFFCURVE",
"319 853 OFFCURVE",
"319 690 QCURVE SMOOTH",
"319 530 OFFCURVE",
"415 251 OFFCURVE",
"610 80 OFFCURVE",
"756 80 QCURVE SMOOTH",
"904 80 OFFCURVE",
"1097 249 OFFCURVE",
"1192 526 OFFCURVE",
"1192 686 QCURVE SMOOTH"
);
}
);
width = 1513;
}
);
unicode = 0051;
},
{
glyphname = R;
layers = (
{
anchors = (
{
name = bottom;
position = "{665, 0}";
},
{
name = top;
position = "{665, 1374}";
}
);
layerId = "39F396E6-2268-4814-9B49-0C64559D5675";
paths = (
{
closed = 1;
nodes = (
"1316 -7 OFFCURVE",
"1240 -33 OFFCURVE",
"1194 -33 QCURVE SMOOTH",
"1089 -33 OFFCURVE",
"966 37 OFFCURVE",
"899 152 OFFCURVE",
"860 290 OFFCURVE",
"820 427 OFFCURVE",
"750 542 OFFCURVE",
"624 612 OFFCURVE",
"516 612 QCURVE SMOOTH",
"484 612 OFFCURVE",
"427 608 OFFCURVE",
"424 608 QCURVE SMOOTH",
"424 141 LINE SMOOTH",
"424 126 OFFCURVE",
"445 98 OFFCURVE",
"467 96 QCURVE SMOOTH",
"575 88 LINE",
"575 0 LINE",
"66 0 LINE",
"66 88 LINE",
"172 96 LINE SMOOTH",
"194 98 OFFCURVE",
"217 126 OFFCURVE",
"217 141 QCURVE SMOOTH",
"217 1233 LINE SMOOTH",
"217 1248 OFFCURVE",
"194 1277 OFFCURVE",
"172 1278 QCURVE SMOOTH",
"66 1286 LINE",
"66 1374 LINE",
"600 1374 LINE SMOOTH",
"833 1374 OFFCURVE",
"1102 1213 OFFCURVE",
"1102 1010 QCURVE SMOOTH",
"1102 903 OFFCURVE",
"1006 766 OFFCURVE",
"853 688 OFFCURVE",
"766 668 QCURVE",
"861 645 OFFCURVE",
"968 560 OFFCURVE",
"1020 452 OFFCURVE",
"1046 336 OFFCURVE",
"1072 226 OFFCURVE",
"1125 138 OFFCURVE",
"1233 86 OFFCURVE",
"1329 86 QCURVE",
"1329 -6 LINE"
);
},
{
closed = 1;
nodes = (
"879 1132 OFFCURVE",
"712 1274 OFFCURVE",
"518 1274 QCURVE SMOOTH",
"424 1274 LINE",
"424 713 LINE",
"429 713 OFFCURVE",
"502 711 OFFCURVE",
"526 711 QCURVE SMOOTH",
"697 711 OFFCURVE",
"879 837 OFFCURVE",
"879 1001 QCURVE SMOOTH"
);
}
);
width = 1329;
}
);
unicode = 0052;
},
{
glyphname = S;
layers = (
{
anchors = (
{
name = bottom;
position = "{534, 0}";
},
{
name = top;
position = "{534, 1374}";
}
);
layerId = "39F396E6-2268-4814-9B49-0C64559D5675";
paths = (
{
closed = 1;
nodes = (
"987 282 OFFCURVE",
"876 90 OFFCURVE",
"637 -33 OFFCURVE",
"444 -33 QCURVE SMOOTH",
"334 -33 OFFCURVE",
"170 5 OFFCURVE",
"80 43 OFFCURVE",
"80 43 QCURVE",
"80 406 LINE",
"209 406 LINE",
"236 174 LINE SMOOTH",
"238 162 OFFCURVE",
"260 134 OFFCURVE",
"270 129 QCURVE SMOOTH",
"275 128 OFFCURVE",
"382 82 OFFCURVE",
"477 82 QCURVE SMOOTH",
"608 82 OFFCURVE",
"778 210 OFFCURVE",
"778 324 QCURVE SMOOTH",
"778 386 OFFCURVE",
"709 479 OFFCURVE",
"599 551 OFFCURVE",
"474 610 OFFCURVE",
"418 637 QCURVE SMOOTH",
"334 677 OFFCURVE",
"190 768 OFFCURVE",
"102 902 OFFCURVE",
"102 1006 QCURVE SMOOTH",
"102 1128 OFFCURVE",
"226 1308 OFFCURVE",
"440 1407 OFFCURVE",
"575 1407 QCURVE SMOOTH",
"685 1407 OFFCURVE",
"853 1364 OFFCURVE",
"918 1343 QCURVE SMOOTH",
"936 1337 LINE",
"936 1018 LINE",
"819 1018 LINE",
"788 1214 LINE SMOOTH",
"786 1228 OFFCURVE",
"765 1241 OFFCURVE",
"756 1250 QCURVE SMOOTH",
"748 1256 OFFCURVE",
"665 1296 OFFCURVE",
"578 1296 QCURVE SMOOTH",
"455 1296 OFFCURVE",
"313 1159 OFFCURVE",
"313 1055 QCURVE SMOOTH",
"313 961 OFFCURVE",
"460 837 OFFCURVE",
"598 784 QCURVE SMOOTH",
"784 714 OFFCURVE",
"987 539 OFFCURVE",
"987 385 QCURVE SMOOTH"
);
}
);
width = 1067;
}
);
unicode = 0053;
},
{
glyphname = Scaron;
layers = (
{
layerId = "39F396E6-2268-4814-9B49-0C64559D5675";
paths = (
{
closed = 1;
nodes = (
"637 -33 OFFCURVE",
"876 90 OFFCURVE",
"987 282 OFFCURVE",
"987 385 QCURVE SMOOTH",
"987 539 OFFCURVE",
"784 714 OFFCURVE",
"598 784 QCURVE SMOOTH",
"460 837 OFFCURVE",
"313 961 OFFCURVE",
"313 1055 QCURVE SMOOTH",
"313 1159 OFFCURVE",
"455 1296 OFFCURVE",
"578 1296 QCURVE SMOOTH",
"665 1296 OFFCURVE",
"748 1256 OFFCURVE",
"756 1250 QCURVE SMOOTH",
"765 1241 OFFCURVE",
"786 1228 OFFCURVE",
"788 1214 QCURVE SMOOTH",
"819 1018 LINE",
"936 1018 LINE",
"936 1337 LINE",
"918 1343 LINE SMOOTH",
"853 1364 OFFCURVE",
"685 1407 OFFCURVE",
"575 1407 QCURVE SMOOTH",
"440 1407 OFFCURVE",
"226 1308 OFFCURVE",
"102 1128 OFFCURVE",
"102 1006 QCURVE SMOOTH",
"102 902 OFFCURVE",
"190 768 OFFCURVE",
"334 677 OFFCURVE",
"418 637 QCURVE SMOOTH",
"474 610 OFFCURVE",
"599 551 OFFCURVE",
"709 479 OFFCURVE",
"778 386 OFFCURVE",
"778 324 QCURVE SMOOTH",
"778 210 OFFCURVE",
"608 82 OFFCURVE",
"477 82 QCURVE SMOOTH",
"382 82 OFFCURVE",
"275 128 OFFCURVE",
"270 129 QCURVE SMOOTH",
"260 134 OFFCURVE",
"238 162 OFFCURVE",
"236 174 QCURVE SMOOTH",
"209 406 LINE",
"80 406 LINE",
"80 43 LINE",
"80 43 OFFCURVE",
"170 5 OFFCURVE",
"334 -33 OFFCURVE",
"444 -33 QCURVE SMOOTH"
);
},
{
closed = 1;
nodes = (
"631 1524 LINE",
"889 1872 LINE",
"766 1872 LINE",
"555 1667 LINE",
"342 1872 LINE",
"219 1872 LINE",
"477 1524 LINE"
);
}
);
width = 1067;
}
);
unicode = 0160;
},
{
glyphname = T;
layers = (
{
anchors = (
{
name = bottom;
position = "{614, 0}";
},
{
name = center;
position = "{614, 687}";
},
{
name = top;
position = "{614, 1374}";
}
);
layerId = "39F396E6-2268-4814-9B49-0C64559D5675";
paths = (
{
closed = 1;
nodes = (
"1073 1047 LINE",
"1044 1239 LINE SMOOTH",
"1037 1274 OFFCURVE",
"1010 1274 QCURVE SMOOTH",
"717 1274 LINE",
"717 141 LINE SMOOTH",
"717 126 OFFCURVE",
"738 98 OFFCURVE",
"760 96 QCURVE SMOOTH",
"891 88 LINE",
"891 0 LINE",
"336 0 LINE",
"336 88 LINE",
"467 96 LINE SMOOTH",
"489 98 OFFCURVE",
"510 126 OFFCURVE",
"510 141 QCURVE SMOOTH",
"510 1274 LINE",
"215 1274 LINE SMOOTH",
"185 1274 OFFCURVE",
"180 1239 QCURVE SMOOTH",
"152 1047 LINE",
"33 1047 LINE",
"33 1374 LINE",
"1194 1374 LINE",
"1194 1047 LINE"
);
}
);
width = 1227;
}
);
unicode = 0054;
},
{
glyphname = U;
layers = (
{
anchors = (
{
name = bottom;
position = "{729, 0}";
},
{
name = ogonek;
position = "{953, 0}";
},
{
name = top;
position = "{729, 1374}";
},
{
name = topright;
position = "{1241, 987}";
}
);
layerId = "39F396E6-2268-4814-9B49-0C64559D5675";
paths = (
{
closed = 1;
nodes = (
"1284 1278 LINE SMOOTH",
"1262 1277 OFFCURVE",
"1241 1248 OFFCURVE",
"1241 1233 QCURVE SMOOTH",
"1241 455 LINE SMOOTH",
"1241 203 OFFCURVE",
"972 -33 OFFCURVE",
"715 -33 QCURVE SMOOTH",
"462 -33 OFFCURVE",
"215 214 OFFCURVE",
"215 455 QCURVE SMOOTH",
"215 1233 LINE SMOOTH",
"215 1248 OFFCURVE",
"194 1277 OFFCURVE",
"172 1278 QCURVE SMOOTH",
"63 1286 LINE",
"63 1374 LINE",
"584 1374 LINE",
"584 1286 LINE",
"467 1278 LINE SMOOTH",
"445 1277 OFFCURVE",
"424 1248 OFFCURVE",
"424 1233 QCURVE SMOOTH",
"424 508 LINE SMOOTH",
"424 388 OFFCURVE",
"478 206 OFFCURVE",
"628 104 OFFCURVE",
"770 104 QCURVE SMOOTH",
"912 104 OFFCURVE",
"1063 211 OFFCURVE",
"1120 395 OFFCURVE",
"1120 508 QCURVE SMOOTH",
"1120 1233 LINE SMOOTH",
"1120 1248 OFFCURVE",
"1097 1277 OFFCURVE",
"1075 1278 QCURVE SMOOTH",
"958 1286 LINE",
"958 1374 LINE",
"1403 1374 LINE",
"1403 1286 LINE"
);
}
);
width = 1458;
}
);
unicode = 0055;
},
{
glyphname = Uacute;
layers = (
{
layerId = "39F396E6-2268-4814-9B49-0C64559D5675";
paths = (
{
closed = 1;
nodes = (
"972 -33 OFFCURVE",
"1241 203 OFFCURVE",
"1241 455 QCURVE SMOOTH",
"1241 1233 LINE SMOOTH",
"1241 1248 OFFCURVE",
"1262 1277 OFFCURVE",
"1284 1278 QCURVE SMOOTH",
"1403 1286 LINE",
"1403 1374 LINE",
"958 1374 LINE",
"958 1286 LINE",
"1075 1278 LINE SMOOTH",
"1097 1277 OFFCURVE",
"1120 1248 OFFCURVE",
"1120 1233 QCURVE SMOOTH",
"1120 508 LINE SMOOTH",
"1120 395 OFFCURVE",
"1063 211 OFFCURVE",
"912 104 OFFCURVE",
"770 104 QCURVE SMOOTH",
"628 104 OFFCURVE",
"478 206 OFFCURVE",
"424 388 OFFCURVE",
"424 508 QCURVE SMOOTH",
"424 1233 LINE SMOOTH",
"424 1248 OFFCURVE",
"445 1277 OFFCURVE",
"467 1278 QCURVE SMOOTH",
"584 1286 LINE",
"584 1374 LINE",
"63 1374 LINE",
"63 1286 LINE",
"172 1278 LINE SMOOTH",
"194 1277 OFFCURVE",
"215 1248 OFFCURVE",
"215 1233 QCURVE SMOOTH",
"215 455 LINE SMOOTH",
"215 214 OFFCURVE",
"462 -33 OFFCURVE",
"715 -33 QCURVE SMOOTH"
);
},
{
closed = 1;
nodes = (
"756 1524 LINE",
"1067 1722 LINE SMOOTH",
"1114 1753 OFFCURVE",
"1114 1806 QCURVE SMOOTH",
"1114 1837 OFFCURVE",
"1074 1896 OFFCURVE",
"1020 1896 QCURVE SMOOTH",
"979 1896 OFFCURVE",
"933 1867 OFFCURVE",
"911 1841 QCURVE SMOOTH",
"639 1524 LINE"
);
}
);
width = 1458;
}
);
unicode = 00DA;
},
{
glyphname = Ucircumflex;
layers = (
{
layerId = "39F396E6-2268-4814-9B49-0C64559D5675";
paths = (
{
closed = 1;
nodes = (
"972 -33 OFFCURVE",
"1241 203 OFFCURVE",
"1241 455 QCURVE SMOOTH",
"1241 1233 LINE SMOOTH",
"1241 1248 OFFCURVE",
"1262 1277 OFFCURVE",
"1284 1278 QCURVE SMOOTH",
"1403 1286 LINE",
"1403 1374 LINE",
"958 1374 LINE",
"958 1286 LINE",
"1075 1278 LINE SMOOTH",
"1097 1277 OFFCURVE",
"1120 1248 OFFCURVE",
"1120 1233 QCURVE SMOOTH",
"1120 508 LINE SMOOTH",
"1120 395 OFFCURVE",
"1063 211 OFFCURVE",
"912 104 OFFCURVE",
"770 104 QCURVE SMOOTH",
"628 104 OFFCURVE",
"478 206 OFFCURVE",
"424 388 OFFCURVE",
"424 508 QCURVE SMOOTH",
"424 1233 LINE SMOOTH",
"424 1248 OFFCURVE",
"445 1277 OFFCURVE",
"467 1278 QCURVE SMOOTH",
"584 1286 LINE",
"584 1374 LINE",
"63 1374 LINE",
"63 1286 LINE",
"172 1278 LINE SMOOTH",
"194 1277 OFFCURVE",
"215 1248 OFFCURVE",
"215 1233 QCURVE SMOOTH",
"215 455 LINE SMOOTH",
"215 214 OFFCURVE",
"462 -33 OFFCURVE",
"715 -33 QCURVE SMOOTH"
);
},
{
closed = 1;
nodes = (
"543 1524 LINE",
"754 1729 LINE",
"967 1524 LINE",
"1090 1524 LINE",
"831 1872 LINE",
"678 1872 LINE",
"420 1524 LINE"
);
}
);
width = 1458;
}
);
unicode = 00DB;
},
{
glyphname = Udieresis;
layers = (
{
layerId = "39F396E6-2268-4814-9B49-0C64559D5675";
paths = (
{
closed = 1;
nodes = (
"972 -33 OFFCURVE",
"1241 203 OFFCURVE",
"1241 455 QCURVE SMOOTH",
"1241 1233 LINE SMOOTH",
"1241 1248 OFFCURVE",
"1262 1277 OFFCURVE",
"1284 1278 QCURVE SMOOTH",
"1403 1286 LINE",
"1403 1374 LINE",
"958 1374 LINE",
"958 1286 LINE",
"1075 1278 LINE SMOOTH",
"1097 1277 OFFCURVE",
"1120 1248 OFFCURVE",
"1120 1233 QCURVE SMOOTH",
"1120 508 LINE SMOOTH",
"1120 395 OFFCURVE",
"1063 211 OFFCURVE",
"912 104 OFFCURVE",
"770 104 QCURVE SMOOTH",
"628 104 OFFCURVE",
"478 206 OFFCURVE",
"424 388 OFFCURVE",
"424 508 QCURVE SMOOTH",
"424 1233 LINE SMOOTH",
"424 1248 OFFCURVE",
"445 1277 OFFCURVE",
"467 1278 QCURVE SMOOTH",
"584 1286 LINE",
"584 1374 LINE",
"63 1374 LINE",
"63 1286 LINE",
"172 1278 LINE SMOOTH",
"194 1277 OFFCURVE",
"215 1248 OFFCURVE",
"215 1233 QCURVE SMOOTH",
"215 455 LINE SMOOTH",
"215 214 OFFCURVE",
"462 -33 OFFCURVE",
"715 -33 QCURVE SMOOTH"
);
},
{
closed = 1;
nodes = (
"595 1587 OFFCURVE",
"662 1656 OFFCURVE",
"662 1702 QCURVE SMOOTH",
"662 1748 OFFCURVE",
"595 1815 OFFCURVE",
"549 1815 QCURVE SMOOTH",
"504 1815 OFFCURVE",
"438 1744 OFFCURVE",
"438 1700 QCURVE SMOOTH",
"438 1655 OFFCURVE",
"504 1587 OFFCURVE",
"549 1587 QCURVE SMOOTH"
);
},
{
closed = 1;
nodes = (
"1021 1587 OFFCURVE",
"1085 1656 OFFCURVE",
"1085 1702 QCURVE SMOOTH",
"1085 1748 OFFCURVE",
"1019 1815 OFFCURVE",
"973 1815 QCURVE SMOOTH",
"930 1815 OFFCURVE",
"862 1745 OFFCURVE",
"862 1702 QCURVE SMOOTH",
"862 1656 OFFCURVE",
"929 1587 OFFCURVE",
"975 1587 QCURVE SMOOTH"
);
}
);
width = 1458;
}
);
unicode = 00DC;
},
{
glyphname = Ugrave;
layers = (
{
layerId = "39F396E6-2268-4814-9B49-0C64559D5675";
paths = (
{
closed = 1;
nodes = (
"972 -33 OFFCURVE",
"1241 203 OFFCURVE",
"1241 455 QCURVE SMOOTH",
"1241 1233 LINE SMOOTH",
"1241 1248 OFFCURVE",
"1262 1277 OFFCURVE",
"1284 1278 QCURVE SMOOTH",
"1403 1286 LINE",
"1403 1374 LINE",
"958 1374 LINE",
"958 1286 LINE",
"1075 1278 LINE SMOOTH",
"1097 1277 OFFCURVE",
"1120 1248 OFFCURVE",
"1120 1233 QCURVE SMOOTH",
"1120 508 LINE SMOOTH",
"1120 395 OFFCURVE",
"1063 211 OFFCURVE",
"912 104 OFFCURVE",
"770 104 QCURVE SMOOTH",
"628 104 OFFCURVE",
"478 206 OFFCURVE",
"424 388 OFFCURVE",
"424 508 QCURVE SMOOTH",
"424 1233 LINE SMOOTH",
"424 1248 OFFCURVE",
"445 1277 OFFCURVE",
"467 1278 QCURVE SMOOTH",
"584 1286 LINE",
"584 1374 LINE",
"63 1374 LINE",
"63 1286 LINE",
"172 1278 LINE SMOOTH",
"194 1277 OFFCURVE",
"215 1248 OFFCURVE",
"215 1233 QCURVE SMOOTH",
"215 455 LINE SMOOTH",
"215 214 OFFCURVE",
"462 -33 OFFCURVE",
"715 -33 QCURVE SMOOTH"
);
},
{
closed = 1;
nodes = (
"866 1524 LINE",
"592 1841 LINE SMOOTH",
"570 1867 OFFCURVE",
"527 1896 OFFCURVE",
"485 1896 QCURVE SMOOTH",
"432 1896 OFFCURVE",
"391 1837 OFFCURVE",
"391 1806 QCURVE SMOOTH",
"391 1778 OFFCURVE",
"417 1736 OFFCURVE",
"438 1722 QCURVE SMOOTH",
"750 1524 LINE"
);
}
);
width = 1458;
}
);
unicode = 00D9;
},
{
glyphname = V;
layers = (
{
anchors = (
{
name = bottom;
position = "{682, 0}";
},
{
name = top;
position = "{682, 1374}";
}
);
layerId = "39F396E6-2268-4814-9B49-0C64559D5675";
paths = (
{
closed = 1;
nodes = (
"1225 1264 LINE",
"766 -33 LINE",
"610 -33 LINE",
"141 1266 LINE",
"20 1286 LINE",
"20 1374 LINE",
"510 1374 LINE",
"510 1286 LINE",
"389 1276 LINE SMOOTH",
"380 1275 OFFCURVE",
"370 1255 OFFCURVE",
"370 1246 QCURVE SMOOTH",
"370 1241 OFFCURVE",
"371 1239 QCURVE SMOOTH",
"731 227 LINE",
"1077 1235 LINE SMOOTH",
"1078 1237 OFFCURVE",
"1078 1242 QCURVE SMOOTH",
"1078 1253 OFFCURVE",
"1060 1275 OFFCURVE",
"1049 1276 QCURVE SMOOTH",
"936 1286 LINE",
"936 1374 LINE",
"1343 1374 LINE",
"1343 1286 LINE"
);
}
);
width = 1364;
}
);
unicode = 0056;
},
{
glyphname = W;
layers = (
{
anchors = (
{
name = bottom;
position = "{954, 0}";
},
{
name = top;
position = "{954, 1374}";
}
);
layerId = "39F396E6-2268-4814-9B49-0C64559D5675";
paths = (
{
closed = 1;
nodes = (
"1761 1262 LINE",
"1448 -33 LINE",
"1298 -33 LINE",
"956 1102 LINE",
"621 -33 LINE",
"473 -33 LINE",
"139 1262 LINE",
"20 1286 LINE",
"20 1374 LINE",
"489 1374 LINE",
"489 1286 LINE",
"367 1274 LINE SMOOTH",
"344 1271 OFFCURVE",
"344 1244 QCURVE SMOOTH",
"344 1241 OFFCURVE",
"346 1233 QCURVE SMOOTH",
"590 309 LINE",
"911 1374 LINE",
"1069 1374 LINE",
"1399 276 LINE",
"1626 1233 LINE SMOOTH",
"1627 1235 OFFCURVE",
"1627 1240 QCURVE SMOOTH",
"1627 1271 OFFCURVE",
"1597 1274 QCURVE SMOOTH",
"1468 1286 LINE",
"1468 1374 LINE",
"1886 1374 LINE",
"1886 1286 LINE"
);
}
);
width = 1907;
}
);
unicode = 0057;
},
{
glyphname = X;
layers = (
{
anchors = (
{
name = bottom;
position = "{649, 0}";
},
{
name = top;
position = "{649, 1374}";
}
);
layerId = "39F396E6-2268-4814-9B49-0C64559D5675";
paths = (
{
closed = 1;
nodes = (
"752 0 LINE",
"752 88 LINE",
"870 100 LINE SMOOTH",
"899 104 OFFCURVE",
"899 129 QCURVE SMOOTH",
"899 136 OFFCURVE",
"895 143 QCURVE SMOOTH",
"623 571 LINE",
"307 137 LINE SMOOTH",
"302 129 OFFCURVE",
"302 121 QCURVE SMOOTH",
"302 101 OFFCURVE",
"332 98 QCURVE SMOOTH",
"455 88 LINE",
"455 0 LINE",
"20 0 LINE",
"20 88 LINE",
"143 113 LINE",
"555 678 LINE",
"182 1262 LINE",
"47 1286 LINE",
"47 1374 LINE",
"561 1374 LINE",
"561 1286 LINE",
"457 1276 LINE SMOOTH",
"427 1275 OFFCURVE",
"427 1252 QCURVE SMOOTH",
"427 1243 OFFCURVE",
"432 1235 QCURVE SMOOTH",
"682 850 LINE",
"958 1229 LINE SMOOTH",
"964 1237 OFFCURVE",
"964 1245 QCURVE SMOOTH",
"964 1270 OFFCURVE",
"936 1272 QCURVE SMOOTH",
"831 1286 LINE",
"831 1374 LINE",
"1260 1374 LINE",
"1260 1286 LINE",
"1128 1266 LINE",
"748 743 LINE",
"1151 113 LINE",
"1278 88 LINE",
"1278 0 LINE"
);
}
);
width = 1298;
}
);
unicode = 0058;
},
{
glyphname = Y;
layers = (
{
anchors = (
{
name = bottom;
position = "{641, 0}";
},
{
name = top;
position = "{641, 1374}";
},
{
name = topleft;
position = "{20, 1374}";
}
);
layerId = "39F396E6-2268-4814-9B49-0C64559D5675";
paths = (
{
closed = 1;
nodes = (
"1151 1266 LINE",
"739 584 LINE",
"739 141 LINE SMOOTH",
"739 126 OFFCURVE",
"761 98 OFFCURVE",
"782 96 QCURVE SMOOTH",
"913 88 LINE",
"913 0 LINE",
"360 0 LINE",
"360 88 LINE",
"487 96 LINE SMOOTH",
"509 98 OFFCURVE",
"532 126 OFFCURVE",
"532 141 QCURVE SMOOTH",
"532 553 LINE",
"139 1262 LINE",
"20 1286 LINE",
"20 1374 LINE",
"506 1374 LINE",
"506 1286 LINE",
"403 1276 LINE SMOOTH",
"375 1272 OFFCURVE",
"375 1252 QCURVE SMOOTH",
"375 1242 OFFCURVE",
"379 1235 QCURVE SMOOTH",
"668 700 LINE",
"985 1229 LINE SMOOTH",
"989 1236 OFFCURVE",
"989 1243 QCURVE SMOOTH",
"989 1268 OFFCURVE",
"961 1272 QCURVE SMOOTH",
"846 1286 LINE",
"846 1374 LINE",
"1262 1374 LINE",
"1262 1286 LINE"
);
}
);
width = 1282;
}
);
unicode = 0059;
},
{
glyphname = Yacute;
layers = (
{
layerId = "39F396E6-2268-4814-9B49-0C64559D5675";
paths = (
{
closed = 1;
nodes = (
"913 0 LINE",
"913 88 LINE",
"782 96 LINE SMOOTH",
"761 98 OFFCURVE",
"739 126 OFFCURVE",
"739 141 QCURVE SMOOTH",
"739 584 LINE",
"1151 1266 LINE",
"1262 1286 LINE",
"1262 1374 LINE",
"846 1374 LINE",
"846 1286 LINE",
"961 1272 LINE SMOOTH",
"989 1268 OFFCURVE",
"989 1243 QCURVE SMOOTH",
"989 1236 OFFCURVE",
"985 1229 QCURVE SMOOTH",
"668 700 LINE",
"379 1235 LINE SMOOTH",
"375 1242 OFFCURVE",
"375 1252 QCURVE SMOOTH",
"375 1272 OFFCURVE",
"403 1276 QCURVE SMOOTH",
"506 1286 LINE",
"506 1374 LINE",
"20 1374 LINE",
"20 1286 LINE",
"139 1262 LINE",
"532 553 LINE",
"532 141 LINE SMOOTH",
"532 126 OFFCURVE",
"509 98 OFFCURVE",
"487 96 QCURVE SMOOTH",
"360 88 LINE",
"360 0 LINE"
);
},
{
closed = 1;
nodes = (
"616 1524 LINE",
"928 1722 LINE SMOOTH",
"975 1751 OFFCURVE",
"975 1806 QCURVE SMOOTH",
"975 1837 OFFCURVE",
"934 1896 OFFCURVE",
"881 1896 QCURVE SMOOTH",
"839 1896 OFFCURVE",
"794 1867 OFFCURVE",
"772 1841 QCURVE SMOOTH",
"500 1524 LINE"
);
}
);
width = 1280;
}
);
unicode = 00DD;
},
{
glyphname = Ydieresis;
layers = (
{
layerId = "39F396E6-2268-4814-9B49-0C64559D5675";
paths = (
{
closed = 1;
nodes = (
"911 0 LINE",
"911 88 LINE",
"780 96 LINE SMOOTH",
"759 98 OFFCURVE",
"737 126 OFFCURVE",
"737 141 QCURVE SMOOTH",
"737 584 LINE",
"1149 1268 LINE",
"1260 1288 LINE",
"1260 1374 LINE",
"844 1374 LINE",
"844 1288 LINE",
"958 1274 LINE SMOOTH",
"987 1270 OFFCURVE",
"987 1245 QCURVE SMOOTH",
"987 1238 OFFCURVE",
"983 1231 QCURVE SMOOTH",
"666 700 LINE",
"379 1237 LINE SMOOTH",
"375 1244 OFFCURVE",
"375 1254 QCURVE SMOOTH",
"375 1273 OFFCURVE",
"407 1278 QCURVE SMOOTH",
"506 1288 LINE",
"506 1374 LINE",
"20 1374 LINE",
"20 1288 LINE",
"139 1264 LINE",
"532 553 LINE",
"532 141 LINE SMOOTH",
"532 126 OFFCURVE",
"509 98 OFFCURVE",
"487 96 QCURVE SMOOTH",
"360 88 LINE",
"360 0 LINE"
);
},
{
closed = 1;
nodes = (
"499 1587 OFFCURVE",
"565 1656 OFFCURVE",
"565 1702 QCURVE SMOOTH",
"565 1748 OFFCURVE",
"501 1815 OFFCURVE",
"455 1815 QCURVE SMOOTH",
"410 1815 OFFCURVE",
"342 1744 OFFCURVE",
"342 1700 QCURVE SMOOTH",
"342 1655 OFFCURVE",
"408 1587 OFFCURVE",
"453 1587 QCURVE SMOOTH"
);
},
{
closed = 1;
nodes = (
"925 1587 OFFCURVE",
"991 1656 OFFCURVE",
"991 1702 QCURVE SMOOTH",
"991 1748 OFFCURVE",
"925 1815 OFFCURVE",
"879 1815 QCURVE SMOOTH",
"836 1815 OFFCURVE",
"768 1745 OFFCURVE",
"768 1702 QCURVE SMOOTH",
"768 1656 OFFCURVE",
"833 1587 OFFCURVE",
"879 1587 QCURVE SMOOTH"
);
}
);
width = 1280;
}
);
unicode = 0178;
},
{
glyphname = Z;
layers = (
{
anchors = (
{
name = bottom;
position = "{589, 0}";
},
{
name = center;
position = "{589, 687}";
},
{
name = top;
position = "{589, 1374}";
}
);
layerId = "39F396E6-2268-4814-9B49-0C64559D5675";
paths = (
{
closed = 1;
nodes = (
"80 0 LINE",
"80 90 LINE",
"842 1272 LINE",
"309 1272 LINE SMOOTH",
"283 1272 OFFCURVE",
"274 1237 QCURVE SMOOTH",
"244 1047 LINE",
"123 1047 LINE",
"123 1374 LINE",
"1087 1374 LINE",
"1087 1280 LINE",
"324 104 LINE",
"907 104 LINE SMOOTH",
"921 104 OFFCURVE",
"940 126 OFFCURVE",
"942 141 QCURVE SMOOTH",
"977 379 LINE",
"1098 379 LINE",
"1098 0 LINE"
);
}
);
width = 1178;
}
);
unicode = 005A;
},
{
glyphname = Zcaron;
layers = (
{
layerId = "39F396E6-2268-4814-9B49-0C64559D5675";
paths = (
{
closed = 1;
nodes = (
"1098 0 LINE",
"1098 379 LINE",
"977 379 LINE",
"942 141 LINE SMOOTH",
"940 126 OFFCURVE",
"921 104 OFFCURVE",
"907 104 QCURVE SMOOTH",
"324 104 LINE",
"1087 1280 LINE",
"1087 1374 LINE",
"123 1374 LINE",
"123 1047 LINE",
"244 1047 LINE",
"274 1237 LINE SMOOTH",
"283 1272 OFFCURVE",
"309 1272 QCURVE SMOOTH",
"842 1272 LINE",
"80 90 LINE",
"80 0 LINE"
);
},
{
closed = 1;
nodes = (
"687 1528 LINE",
"945 1875 LINE",
"822 1875 LINE",
"611 1672 LINE",
"398 1875 LINE",
"275 1875 LINE",
"533 1528 LINE"
);
}
);
width = 1178;
}
);
unicode = 017D;
},
{
glyphname = a;
layers = (
{
anchors = (
{
name = bottom;
position = "{521, 0}";
},
{
name = ogonek;
position = "{1008, 0}";
},
{
name = top;
position = "{521, 987}";
}
);
layerId = "39F396E6-2268-4814-9B49-0C64559D5675";
paths = (
{
closed = 1;
nodes = (
"705 0 LINE",
"678 121 LINE",
"678 121 OFFCURVE",
"617 77 OFFCURVE",
"517 19 OFFCURVE",
"396 -25 OFFCURVE",
"336 -25 QCURVE SMOOTH",
"225 -25 OFFCURVE",
"70 123 OFFCURVE",
"70 252 QCURVE SMOOTH",
"70 309 OFFCURVE",
"111 407 OFFCURVE",
"234 496 OFFCURVE",
"477 581 OFFCURVE",
"678 625 QCURVE",
"678 713 LINE SMOOTH",
"678 915 OFFCURVE",
"487 915 QCURVE SMOOTH",
"434 915 OFFCURVE",
"357 895 OFFCURVE",
"342 889 QCURVE",
"342 711 LINE",
"193 711 LINE SMOOTH",
"165 711 OFFCURVE",
"117 732 OFFCURVE",
"117 770 QCURVE SMOOTH",
"117 854 OFFCURVE",
"245 961 OFFCURVE",
"442 1012 OFFCURVE",
"543 1012 QCURVE SMOOTH",
"670 1012 OFFCURVE",
"810 933 OFFCURVE",
"866 794 OFFCURVE",
"866 705 QCURVE SMOOTH",
"866 131 LINE SMOOTH",
"866 112 OFFCURVE",
"891 88 OFFCURVE",
"909 86 QCURVE SMOOTH",
"1008 80 LINE",
"1008 0 LINE"
);
},
{
closed = 1;
nodes = (
"678 547 LINE",
"540 513 OFFCURVE",
"377 444 OFFCURVE",
"297 375 OFFCURVE",
"272 304 OFFCURVE",
"272 266 QCURVE SMOOTH",
"272 203 OFFCURVE",
"353 96 OFFCURVE",
"426 96 QCURVE SMOOTH",
"467 96 OFFCURVE",
"555 125 OFFCURVE",
"631 164 OFFCURVE",
"678 193 OFFCURVE",
"678 193 QCURVE"
);
}
);
width = 1042;
}
);
unicode = 0061;
},
{
glyphname = aacute;
layers = (
{
layerId = "39F396E6-2268-4814-9B49-0C64559D5675";
paths = (
{
closed = 1;
nodes = (
"396 -25 OFFCURVE",
"517 19 OFFCURVE",
"617 77 OFFCURVE",
"678 121 OFFCURVE",
"678 121 QCURVE",
"705 0 LINE",
"1008 0 LINE",
"1008 80 LINE",
"909 86 LINE SMOOTH",
"891 88 OFFCURVE",
"866 112 OFFCURVE",
"866 131 QCURVE SMOOTH",
"866 705 LINE SMOOTH",
"866 794 OFFCURVE",
"810 933 OFFCURVE",
"670 1012 OFFCURVE",
"543 1012 QCURVE SMOOTH",
"442 1012 OFFCURVE",
"245 961 OFFCURVE",
"117 854 OFFCURVE",
"117 770 QCURVE SMOOTH",
"117 732 OFFCURVE",
"165 711 OFFCURVE",
"193 711 QCURVE SMOOTH",
"342 711 LINE",
"342 889 LINE",
"357 895 OFFCURVE",
"434 915 OFFCURVE",
"487 915 QCURVE SMOOTH",
"678 915 OFFCURVE",
"678 713 QCURVE SMOOTH",
"678 625 LINE",
"477 581 OFFCURVE",
"234 496 OFFCURVE",
"111 407 OFFCURVE",
"70 309 OFFCURVE",
"70 252 QCURVE SMOOTH",
"70 123 OFFCURVE",
"225 -25 OFFCURVE",
"336 -25 QCURVE SMOOTH"
);
},
{
closed = 1;
nodes = (
"353 96 OFFCURVE",
"272 203 OFFCURVE",
"272 266 QCURVE SMOOTH",
"272 304 OFFCURVE",
"297 375 OFFCURVE",
"377 444 OFFCURVE",
"540 513 OFFCURVE",
"678 547 QCURVE",
"678 193 LINE",
"678 193 OFFCURVE",
"631 164 OFFCURVE",
"555 125 OFFCURVE",
"467 96 OFFCURVE",
"426 96 QCURVE SMOOTH"
);
},
{
closed = 1;
nodes = (
"502 1128 LINE",
"813 1327 LINE SMOOTH",
"860 1358 OFFCURVE",
"860 1409 QCURVE SMOOTH",
"860 1440 OFFCURVE",
"820 1501 OFFCURVE",
"766 1501 QCURVE SMOOTH",
"725 1501 OFFCURVE",
"682 1472 OFFCURVE",
"659 1446 QCURVE SMOOTH",
"385 1128 LINE"
);
}
);
width = 1042;
}
);
unicode = 00E1;
},
{
glyphname = acircumflex;
layers = (
{
layerId = "39F396E6-2268-4814-9B49-0C64559D5675";
paths = (
{
closed = 1;
nodes = (
"396 -25 OFFCURVE",
"517 19 OFFCURVE",
"617 77 OFFCURVE",
"678 121 OFFCURVE",
"678 121 QCURVE",
"705 0 LINE",
"1008 0 LINE",
"1008 80 LINE",
"909 86 LINE SMOOTH",
"891 88 OFFCURVE",
"866 112 OFFCURVE",
"866 131 QCURVE SMOOTH",
"866 705 LINE SMOOTH",
"866 794 OFFCURVE",
"810 933 OFFCURVE",
"670 1012 OFFCURVE",
"543 1012 QCURVE SMOOTH",
"442 1012 OFFCURVE",
"245 961 OFFCURVE",
"117 854 OFFCURVE",
"117 770 QCURVE SMOOTH",
"117 732 OFFCURVE",
"165 711 OFFCURVE",
"193 711 QCURVE SMOOTH",
"342 711 LINE",
"342 889 LINE",
"357 895 OFFCURVE",
"434 915 OFFCURVE",
"487 915 QCURVE SMOOTH",
"678 915 OFFCURVE",
"678 713 QCURVE SMOOTH",
"678 625 LINE",
"477 581 OFFCURVE",
"234 496 OFFCURVE",
"111 407 OFFCURVE",
"70 309 OFFCURVE",
"70 252 QCURVE SMOOTH",
"70 123 OFFCURVE",
"225 -25 OFFCURVE",
"336 -25 QCURVE SMOOTH"
);
},
{
closed = 1;
nodes = (
"353 96 OFFCURVE",
"272 203 OFFCURVE",
"272 266 QCURVE SMOOTH",
"272 304 OFFCURVE",
"297 375 OFFCURVE",
"377 444 OFFCURVE",
"540 513 OFFCURVE",
"678 547 QCURVE",
"678 193 LINE",
"678 193 OFFCURVE",
"631 164 OFFCURVE",
"555 125 OFFCURVE",
"467 96 OFFCURVE",
"426 96 QCURVE SMOOTH"
);
},
{
closed = 1;
nodes = (
"283 1128 LINE",
"494 1331 LINE",
"705 1128 LINE",
"827 1128 LINE",
"571 1475 LINE",
"416 1475 LINE",
"158 1128 LINE"
);
}
);
width = 1042;
}
);
unicode = 00E2;
},
{
glyphname = adieresis;
layers = (
{
layerId = "39F396E6-2268-4814-9B49-0C64559D5675";
paths = (
{
closed = 1;
nodes = (
"396 -25 OFFCURVE",
"517 19 OFFCURVE",
"617 77 OFFCURVE",
"678 121 OFFCURVE",
"678 121 QCURVE",
"705 0 LINE",
"1008 0 LINE",
"1008 80 LINE",
"909 86 LINE SMOOTH",
"891 88 OFFCURVE",
"866 112 OFFCURVE",
"866 131 QCURVE SMOOTH",
"866 705 LINE SMOOTH",
"866 794 OFFCURVE",
"810 933 OFFCURVE",
"670 1012 OFFCURVE",
"543 1012 QCURVE SMOOTH",
"442 1012 OFFCURVE",
"245 961 OFFCURVE",
"117 854 OFFCURVE",
"117 770 QCURVE SMOOTH",
"117 732 OFFCURVE",
"165 711 OFFCURVE",
"193 711 QCURVE SMOOTH",
"342 711 LINE",
"342 889 LINE",
"357 895 OFFCURVE",
"434 915 OFFCURVE",
"487 915 QCURVE SMOOTH",
"678 915 OFFCURVE",
"678 713 QCURVE SMOOTH",
"678 625 LINE",
"477 581 OFFCURVE",
"234 496 OFFCURVE",
"111 407 OFFCURVE",
"70 309 OFFCURVE",
"70 252 QCURVE SMOOTH",
"70 123 OFFCURVE",
"225 -25 OFFCURVE",
"336 -25 QCURVE SMOOTH"
);
},
{
closed = 1;
nodes = (
"353 96 OFFCURVE",
"272 203 OFFCURVE",
"272 266 QCURVE SMOOTH",
"272 304 OFFCURVE",
"297 375 OFFCURVE",
"377 444 OFFCURVE",
"540 513 OFFCURVE",
"678 547 QCURVE",
"678 193 LINE",
"678 193 OFFCURVE",
"631 164 OFFCURVE",
"555 125 OFFCURVE",
"467 96 OFFCURVE",
"426 96 QCURVE SMOOTH"
);
},
{
closed = 1;
nodes = (
"347 1198 OFFCURVE",
"414 1267 OFFCURVE",
"414 1313 QCURVE SMOOTH",
"414 1359 OFFCURVE",
"350 1425 OFFCURVE",
"303 1425 QCURVE SMOOTH",
"259 1425 OFFCURVE",
"193 1355 OFFCURVE",
"193 1311 QCURVE SMOOTH",
"193 1266 OFFCURVE",
"257 1198 OFFCURVE",
"301 1198 QCURVE SMOOTH"
);
},
{
closed = 1;
nodes = (
"773 1198 OFFCURVE",
"840 1267 OFFCURVE",
"840 1313 QCURVE SMOOTH",
"840 1359 OFFCURVE",
"773 1425 OFFCURVE",
"727 1425 QCURVE SMOOTH",
"684 1425 OFFCURVE",
"616 1356 OFFCURVE",
"616 1313 QCURVE SMOOTH",
"616 1267 OFFCURVE",
"681 1198 OFFCURVE",
"727 1198 QCURVE SMOOTH"
);
}
);
width = 1042;
}
);
unicode = 00E4;
},
{
glyphname = agrave;
layers = (
{
layerId = "39F396E6-2268-4814-9B49-0C64559D5675";
paths = (
{
closed = 1;
nodes = (
"396 -25 OFFCURVE",
"517 19 OFFCURVE",
"617 77 OFFCURVE",
"678 121 OFFCURVE",
"678 121 QCURVE",
"705 0 LINE",
"1008 0 LINE",
"1008 80 LINE",
"909 86 LINE SMOOTH",
"891 88 OFFCURVE",
"866 112 OFFCURVE",
"866 131 QCURVE SMOOTH",
"866 705 LINE SMOOTH",
"866 794 OFFCURVE",
"810 933 OFFCURVE",
"670 1012 OFFCURVE",
"543 1012 QCURVE SMOOTH",
"442 1012 OFFCURVE",
"245 961 OFFCURVE",
"117 854 OFFCURVE",
"117 770 QCURVE SMOOTH",
"117 732 OFFCURVE",
"165 711 OFFCURVE",
"193 711 QCURVE SMOOTH",
"342 711 LINE",
"342 889 LINE",
"357 895 OFFCURVE",
"434 915 OFFCURVE",
"487 915 QCURVE SMOOTH",
"678 915 OFFCURVE",
"678 713 QCURVE SMOOTH",
"678 625 LINE",
"477 581 OFFCURVE",
"234 496 OFFCURVE",
"111 407 OFFCURVE",
"70 309 OFFCURVE",
"70 252 QCURVE SMOOTH",
"70 123 OFFCURVE",
"225 -25 OFFCURVE",
"336 -25 QCURVE SMOOTH"
);
},
{
closed = 1;
nodes = (
"353 96 OFFCURVE",
"272 203 OFFCURVE",
"272 266 QCURVE SMOOTH",
"272 304 OFFCURVE",
"297 375 OFFCURVE",
"377 444 OFFCURVE",
"540 513 OFFCURVE",
"678 547 QCURVE",
"678 193 LINE",
"678 193 OFFCURVE",
"631 164 OFFCURVE",
"555 125 OFFCURVE",
"467 96 OFFCURVE",
"426 96 QCURVE SMOOTH"
);
},
{
closed = 1;
nodes = (
"643 1128 LINE",
"369 1446 LINE SMOOTH",
"347 1472 OFFCURVE",
"303 1501 OFFCURVE",
"262 1501 QCURVE SMOOTH",
"208 1501 OFFCURVE",
"168 1440 OFFCURVE",
"168 1409 QCURVE SMOOTH",
"168 1358 OFFCURVE",
"215 1327 QCURVE SMOOTH",
"526 1128 LINE"
);
}
);
width = 1042;
}
);
unicode = 00E0;
},
{
glyphname = aring;
layers = (
{
layerId = "39F396E6-2268-4814-9B49-0C64559D5675";
paths = (
{
closed = 1;
nodes = (
"396 -25 OFFCURVE",
"517 19 OFFCURVE",
"617 77 OFFCURVE",
"678 121 OFFCURVE",
"678 121 QCURVE",
"705 0 LINE",
"1008 0 LINE",
"1008 80 LINE",
"909 86 LINE SMOOTH",
"891 88 OFFCURVE",
"866 112 OFFCURVE",
"866 131 QCURVE SMOOTH",
"866 705 LINE SMOOTH",
"866 794 OFFCURVE",
"810 933 OFFCURVE",
"670 1012 OFFCURVE",
"543 1012 QCURVE SMOOTH",
"442 1012 OFFCURVE",
"245 961 OFFCURVE",
"117 854 OFFCURVE",
"117 770 QCURVE SMOOTH",
"117 732 OFFCURVE",
"165 711 OFFCURVE",
"193 711 QCURVE SMOOTH",
"342 711 LINE",
"342 889 LINE",
"357 895 OFFCURVE",
"434 915 OFFCURVE",
"487 915 QCURVE SMOOTH",
"678 915 OFFCURVE",
"678 713 QCURVE SMOOTH",
"678 625 LINE",
"477 581 OFFCURVE",
"234 496 OFFCURVE",
"111 407 OFFCURVE",
"70 309 OFFCURVE",
"70 252 QCURVE SMOOTH",
"70 123 OFFCURVE",
"225 -25 OFFCURVE",
"336 -25 QCURVE SMOOTH"
);
},
{
closed = 1;
nodes = (
"353 96 OFFCURVE",
"272 203 OFFCURVE",
"272 266 QCURVE SMOOTH",
"272 304 OFFCURVE",
"297 375 OFFCURVE",
"377 444 OFFCURVE",
"540 513 OFFCURVE",
"678 547 QCURVE",
"678 193 LINE",
"678 193 OFFCURVE",
"631 164 OFFCURVE",
"555 125 OFFCURVE",
"467 96 OFFCURVE",
"426 96 QCURVE SMOOTH"
);
},
{
closed = 1;
nodes = (
"590 1128 OFFCURVE",
"700 1194 OFFCURVE",
"766 1305 OFFCURVE",
"766 1372 QCURVE SMOOTH",
"766 1440 OFFCURVE",
"700 1550 OFFCURVE",
"590 1616 OFFCURVE",
"522 1616 QCURVE SMOOTH",
"455 1616 OFFCURVE",
"344 1550 OFFCURVE",
"279 1440 OFFCURVE",
"279 1372 QCURVE SMOOTH",
"279 1305 OFFCURVE",
"344 1194 OFFCURVE",
"455 1128 OFFCURVE",
"522 1128 QCURVE SMOOTH"
);
},
{
closed = 1;
nodes = (
"462 1229 OFFCURVE",
"379 1312 OFFCURVE",
"379 1372 QCURVE SMOOTH",
"379 1432 OFFCURVE",
"462 1516 OFFCURVE",
"522 1516 QCURVE SMOOTH",
"582 1516 OFFCURVE",
"666 1432 OFFCURVE",
"666 1372 QCURVE SMOOTH",
"666 1312 OFFCURVE",
"582 1229 OFFCURVE",
"522 1229 QCURVE SMOOTH"
);
}
);
width = 1042;
}
);
unicode = 00E5;
},
{
glyphname = atilde;
layers = (
{
layerId = "39F396E6-2268-4814-9B49-0C64559D5675";
paths = (
{
closed = 1;
nodes = (
"396 -25 OFFCURVE",
"517 19 OFFCURVE",
"617 77 OFFCURVE",
"678 121 OFFCURVE",
"678 121 QCURVE",
"705 0 LINE",
"1008 0 LINE",
"1008 80 LINE",
"909 86 LINE SMOOTH",
"891 88 OFFCURVE",
"866 112 OFFCURVE",
"866 131 QCURVE SMOOTH",
"866 705 LINE SMOOTH",
"866 794 OFFCURVE",
"810 933 OFFCURVE",
"670 1012 OFFCURVE",
"543 1012 QCURVE SMOOTH",
"442 1012 OFFCURVE",
"245 961 OFFCURVE",
"117 854 OFFCURVE",
"117 770 QCURVE SMOOTH",
"117 732 OFFCURVE",
"165 711 OFFCURVE",
"193 711 QCURVE SMOOTH",
"342 711 LINE",
"342 889 LINE",
"357 895 OFFCURVE",
"434 915 OFFCURVE",
"487 915 QCURVE SMOOTH",
"678 915 OFFCURVE",
"678 713 QCURVE SMOOTH",
"678 625 LINE",
"477 581 OFFCURVE",
"234 496 OFFCURVE",
"111 407 OFFCURVE",
"70 309 OFFCURVE",
"70 252 QCURVE SMOOTH",
"70 123 OFFCURVE",
"225 -25 OFFCURVE",
"336 -25 QCURVE SMOOTH"
);
},
{
closed = 1;
nodes = (
"353 96 OFFCURVE",
"272 203 OFFCURVE",
"272 266 QCURVE SMOOTH",
"272 304 OFFCURVE",
"297 375 OFFCURVE",
"377 444 OFFCURVE",
"540 513 OFFCURVE",
"678 547 QCURVE",
"678 193 LINE",
"678 193 OFFCURVE",
"631 164 OFFCURVE",
"555 125 OFFCURVE",
"467 96 OFFCURVE",
"426 96 QCURVE SMOOTH"
);
},
{
closed = 1;
nodes = (
"236 1198 LINE",
"241 1235 OFFCURVE",
"301 1296 OFFCURVE",
"342 1296 QCURVE SMOOTH",
"409 1296 OFFCURVE",
"494 1247 OFFCURVE",
"573 1198 OFFCURVE",
"627 1198 QCURVE SMOOTH",
"727 1198 OFFCURVE",
"842 1333 OFFCURVE",
"864 1423 QCURVE",
"782 1423 LINE",
"778 1386 OFFCURVE",
"715 1325 OFFCURVE",
"674 1325 QCURVE SMOOTH",
"608 1325 OFFCURVE",
"523 1374 OFFCURVE",
"446 1423 OFFCURVE",
"391 1423 QCURVE SMOOTH",
"291 1423 OFFCURVE",
"177 1289 OFFCURVE",
"154 1198 QCURVE"
);
}
);
width = 1042;
}
);
unicode = 00E3;
},
{
glyphname = ae;
layers = (
{
anchors = (
{
name = bottom;
position = "{739, 0}";
},
{
name = top;
position = "{739, 987}";
}
);
layerId = "39F396E6-2268-4814-9B49-0C64559D5675";
paths = (
{
closed = 1;
nodes = (
"1378 81 OFFCURVE",
"1281 21 OFFCURVE",
"1149 -25 OFFCURVE",
"1067 -25 QCURVE SMOOTH",
"978 -25 OFFCURVE",
"839 22 OFFCURVE",
"743 84 OFFCURVE",
"694 131 OFFCURVE",
"694 131 QCURVE",
"694 131 OFFCURVE",
"633 84 OFFCURVE",
"530 22 OFFCURVE",
"402 -25 OFFCURVE",
"334 -25 QCURVE SMOOTH",
"205 -25 OFFCURVE",
"70 130 OFFCURVE",
"70 244 QCURVE SMOOTH",
"70 353 OFFCURVE",
"184 480 OFFCURVE",
"437 572 OFFCURVE",
"645 625 QCURVE",
"645 709 LINE SMOOTH",
"645 810 OFFCURVE",
"570 915 OFFCURVE",
"467 915 QCURVE SMOOTH",
"418 915 OFFCURVE",
"353 895 OFFCURVE",
"338 889 QCURVE",
"338 711 LINE",
"195 711 LINE SMOOTH",
"155 711 OFFCURVE",
"117 735 OFFCURVE",
"117 770 QCURVE SMOOTH",
"117 854 OFFCURVE",
"240 961 OFFCURVE",
"425 1012 OFFCURVE",
"518 1012 QCURVE SMOOTH",
"615 1012 OFFCURVE",
"722 970 OFFCURVE",
"776 914 OFFCURVE",
"791 891 QCURVE",
"807 911 OFFCURVE",
"877 968 OFFCURVE",
"988 1012 OFFCURVE",
"1067 1012 QCURVE SMOOTH",
"1189 1012 OFFCURVE",
"1339 895 OFFCURVE",
"1407 706 OFFCURVE",
"1407 596 QCURVE SMOOTH",
"1407 579 OFFCURVE",
"1403 524 OFFCURVE",
"1403 524 QCURVE",
"836 524 LINE",
"836 252 LINE",
"880 208 OFFCURVE",
"1024 113 OFFCURVE",
"1133 113 QCURVE SMOOTH",
"1225 113 OFFCURVE",
"1352 179 OFFCURVE",
"1407 225 QCURVE",
"1407 102 LINE"
);
},
{
closed = 1;
nodes = (
"645 547 LINE",
"494 506 OFFCURVE",
"330 427 OFFCURVE",
"266 334 OFFCURVE",
"266 272 QCURVE SMOOTH",
"266 203 OFFCURVE",
"342 98 OFFCURVE",
"422 98 QCURVE SMOOTH",
"470 98 OFFCURVE",
"574 146 OFFCURVE",
"645 193 OFFCURVE",
"645 193 QCURVE"
);
},
{
closed = 1;
nodes = (
"1204 674 LINE SMOOTH",
"1204 736 OFFCURVE",
"1167 846 OFFCURVE",
"1091 915 OFFCURVE",
"1030 915 QCURVE SMOOTH",
"955 915 OFFCURVE",
"870 825 OFFCURVE",
"836 686 OFFCURVE",
"836 612 QCURVE",
"1204 612 LINE"
);
}
);
width = 1477;
}
);
unicode = 00E6;
},
{
glyphname = b;
layers = (
{
anchors = (
{
name = bottom;
position = "{569, 0}";
},
{
name = top;
position = "{569, 1509}";
}
);
layerId = "39F396E6-2268-4814-9B49-0C64559D5675";
paths = (
{
closed = 1;
nodes = (
"1067 387 OFFCURVE",
"945 142 OFFCURVE",
"685 0 OFFCURVE",
"479 0 QCURVE SMOOTH",
"184 0 LINE",
"184 1362 LINE",
"29 1362 LINE",
"29 1430 LINE",
"293 1509 LINE",
"375 1509 LINE",
"375 936 LINE",
"410 953 OFFCURVE",
"567 1012 OFFCURVE",
"657 1012 QCURVE SMOOTH",
"792 1012 OFFCURVE",
"974 882 OFFCURVE",
"1067 667 OFFCURVE",
"1067 541 QCURVE SMOOTH"
);
},
{
closed = 1;
nodes = (
"858 694 OFFCURVE",
"694 891 OFFCURVE",
"545 891 QCURVE SMOOTH",
"511 891 OFFCURVE",
"406 869 OFFCURVE",
"375 858 QCURVE",
"375 98 LINE",
"375 98 OFFCURVE",
"446 96 OFFCURVE",
"475 96 QCURVE SMOOTH",
"657 96 OFFCURVE",
"858 276 OFFCURVE",
"858 500 QCURVE SMOOTH"
);
}
);
width = 1137;
}
);
unicode = 0062;
},
{
glyphname = c;
layers = (
{
anchors = (
{
name = bottom;
position = "{477, 0}";
},
{
name = top;
position = "{477, 987}";
}
);
layerId = "39F396E6-2268-4814-9B49-0C64559D5675";
paths = (
{
closed = 1;
nodes = (
"885 76 LINE",
"816 39 OFFCURVE",
"643 -25 OFFCURVE",
"539 -25 QCURVE SMOOTH",
"396 -25 OFFCURVE",
"185 109 OFFCURVE",
"70 340 OFFCURVE",
"70 487 QCURVE SMOOTH",
"70 659 OFFCURVE",
"207 893 OFFCURVE",
"432 1012 OFFCURVE",
"563 1012 QCURVE SMOOTH",
"698 1012 OFFCURVE",
"881 907 OFFCURVE",
"881 807 QCURVE SMOOTH",
"881 747 OFFCURVE",
"806 686 OFFCURVE",
"760 686 QCURVE SMOOTH",
"726 686 OFFCURVE",
"676 709 OFFCURVE",
"657 721 QCURVE",
"657 899 LINE",
"610 926 OFFCURVE",
"571 926 QCURVE SMOOTH",
"480 926 OFFCURVE",
"349 819 OFFCURVE",
"279 633 OFFCURVE",
"279 514 QCURVE SMOOTH",
"279 401 OFFCURVE",
"355 214 OFFCURVE",
"506 104 OFFCURVE",
"618 104 QCURVE SMOOTH",
"689 104 OFFCURVE",
"819 150 OFFCURVE",
"885 193 QCURVE"
);
}
);
width = 954;
}
);
unicode = 0063;
},
{
glyphname = ccedilla;
layers = (
{
layerId = "39F396E6-2268-4814-9B49-0C64559D5675";
paths = (
{
closed = 1;
nodes = (
"625 -461 OFFCURVE",
"760 -361 OFFCURVE",
"760 -266 QCURVE SMOOTH",
"760 -188 OFFCURVE",
"672 -121 OFFCURVE",
"610 -121 QCURVE SMOOTH",
"594 -121 OFFCURVE",
"574 -127 OFFCURVE",
"563 -129 QCURVE",
"563 -25 LINE",
"658 -20 OFFCURVE",
"821 49 OFFCURVE",
"885 84 QCURVE",
"885 201 LINE",
"819 158 OFFCURVE",
"689 104 OFFCURVE",
"618 104 QCURVE SMOOTH",
"506 104 OFFCURVE",
"355 214 OFFCURVE",
"279 401 OFFCURVE",
"279 514 QCURVE SMOOTH",
"279 633 OFFCURVE",
"349 819 OFFCURVE",
"480 926 OFFCURVE",
"571 926 QCURVE SMOOTH",
"610 926 OFFCURVE",
"657 899 QCURVE",
"657 719 LINE",
"676 706 OFFCURVE",
"726 686 OFFCURVE",
"760 686 QCURVE SMOOTH",
"806 686 OFFCURVE",
"881 745 OFFCURVE",
"881 805 QCURVE SMOOTH",
"881 905 OFFCURVE",
"698 1012 OFFCURVE",
"563 1012 QCURVE SMOOTH",
"432 1012 OFFCURVE",
"207 893 OFFCURVE",
"70 659 OFFCURVE",
"70 487 QCURVE SMOOTH",
"70 350 OFFCURVE",
"171 128 OFFCURVE",
"356 -10 OFFCURVE",
"483 -23 QCURVE",
"483 -229 LINE",
"483 -229 OFFCURVE",
"513 -217 OFFCURVE",
"528 -217 QCURVE SMOOTH",
"569 -217 OFFCURVE",
"627 -256 OFFCURVE",
"627 -293 QCURVE SMOOTH",
"627 -340 OFFCURVE",
"543 -377 OFFCURVE",
"494 -377 QCURVE SMOOTH",
"455 -377 OFFCURVE",
"369 -360 OFFCURVE",
"369 -360 QCURVE",
"369 -440 LINE",
"369 -440 OFFCURVE",
"469 -461 OFFCURVE",
"522 -461 QCURVE SMOOTH"
);
}
);
width = 954;
}
);
unicode = 00E7;
},
{
glyphname = d;
layers = (
{
anchors = (
{
name = bottom;
position = "{578, 0}";
},
{
name = center;
position = "{578, 494}";
},
{
name = top;
position = "{578, 1509}";
},
{
name = topright;
position = "{1102, 987}";
}
);
layerId = "39F396E6-2268-4814-9B49-0C64559D5675";
paths = (
{
closed = 1;
nodes = (
"780 0 LINE",
"780 109 LINE",
"710 55 OFFCURVE",
"552 -25 OFFCURVE",
"463 -25 QCURVE SMOOTH",
"360 -25 OFFCURVE",
"211 62 OFFCURVE",
"116 206 OFFCURVE",
"70 380 OFFCURVE",
"70 467 QCURVE SMOOTH",
"70 606 OFFCURVE",
"184 855 OFFCURVE",
"416 1012 OFFCURVE",
"592 1012 QCURVE SMOOTH",
"641 1012 OFFCURVE",
"756 993 OFFCURVE",
"780 987 QCURVE",
"780 1362 LINE",
"625 1362 LINE",
"625 1430 LINE",
"889 1509 LINE",
"971 1509 LINE",
"971 131 LINE SMOOTH",
"971 89 OFFCURVE",
"1014 86 QCURVE SMOOTH",
"1102 80 LINE",
"1102 0 LINE"
);
},
{
closed = 1;
nodes = (
"780 883 LINE",
"754 892 OFFCURVE",
"651 913 OFFCURVE",
"606 913 QCURVE SMOOTH",
"454 913 OFFCURVE",
"272 688 OFFCURVE",
"272 502 QCURVE SMOOTH",
"272 335 OFFCURVE",
"428 115 OFFCURVE",
"569 115 QCURVE SMOOTH",
"631 115 OFFCURVE",
"740 162 OFFCURVE",
"780 186 QCURVE"
);
}
);
width = 1155;
}
);
unicode = 0064;
},
{
glyphname = eth;
layers = (
{
layerId = "39F396E6-2268-4814-9B49-0C64559D5675";
paths = (
{
closed = 1;
nodes = (
"1034 379 OFFCURVE",
"911 118 OFFCURVE",
"694 -25 OFFCURVE",
"553 -25 QCURVE SMOOTH",
"408 -25 OFFCURVE",
"190 110 OFFCURVE",
"70 348 OFFCURVE",
"70 500 QCURVE SMOOTH",
"70 652 OFFCURVE",
"200 882 OFFCURVE",
"424 1012 OFFCURVE",
"565 1012 QCURVE SMOOTH",
"609 1012 OFFCURVE",
"701 983 OFFCURVE",
"702 983 QCURVE",
"687 1010 OFFCURVE",
"637 1083 OFFCURVE",
"585 1153 OFFCURVE",
"547 1202 OFFCURVE",
"545 1204 QCURVE SMOOTH",
"285 1049 LINE",
"240 1130 LINE",
"475 1272 LINE",
"403 1354 LINE",
"231 1376 LINE",
"231 1434 LINE",
"483 1509 LINE",
"631 1358 LINE",
"854 1491 LINE",
"901 1409 LINE",
"692 1282 LINE",
"719 1251 OFFCURVE",
"830 1113 OFFCURVE",
"950 918 OFFCURVE",
"1034 683 OFFCURVE",
"1034 555 QCURVE SMOOTH"
);
},
{
closed = 1;
nodes = (
"836 637 OFFCURVE",
"794 818 OFFCURVE",
"756 881 QCURVE",
"756 881 OFFCURVE",
"705 902 OFFCURVE",
"632 922 OFFCURVE",
"600 922 QCURVE SMOOTH",
"491 922 OFFCURVE",
"351 809 OFFCURVE",
"283 617 OFFCURVE",
"283 498 QCURVE SMOOTH",
"283 390 OFFCURVE",
"338 193 OFFCURVE",
"460 68 OFFCURVE",
"559 68 QCURVE SMOOTH",
"660 68 OFFCURVE",
"781 201 OFFCURVE",
"836 406 OFFCURVE",
"836 514 QCURVE SMOOTH"
);
}
);
width = 1104;
}
);
unicode = 00F0;
},
{
glyphname = e;
layers = (
{
anchors = (
{
name = bottom;
position = "{502, 0}";
},
{
name = ogonek;
position = "{713, 0}";
},
{
name = top;
position = "{502, 987}";
}
);
layerId = "39F396E6-2268-4814-9B49-0C64559D5675";
paths = (
{
closed = 1;
nodes = (
"848 49 OFFCURVE",
"649 -25 OFFCURVE",
"545 -25 QCURVE SMOOTH",
"421 -25 OFFCURVE",
"204 86 OFFCURVE",
"70 312 OFFCURVE",
"70 483 QCURVE SMOOTH",
"70 643 OFFCURVE",
"194 881 OFFCURVE",
"412 1012 OFFCURVE",
"551 1012 QCURVE SMOOTH",
"742 1012 OFFCURVE",
"934 775 OFFCURVE",
"934 592 QCURVE SMOOTH",
"934 582 OFFCURVE",
"934 549 OFFCURVE",
"932 535 QCURVE",
"268 535 LINE",
"268 457 OFFCURVE",
"301 302 OFFCURVE",
"379 176 OFFCURVE",
"511 100 OFFCURVE",
"610 100 QCURVE SMOOTH",
"698 100 OFFCURVE",
"865 181 OFFCURVE",
"934 227 QCURVE",
"934 102 LINE"
);
},
{
closed = 1;
nodes = (
"729 672 LINE SMOOTH",
"729 773 OFFCURVE",
"632 911 OFFCURVE",
"530 911 QCURVE SMOOTH",
"429 911 OFFCURVE",
"287 759 OFFCURVE",
"279 627 QCURVE",
"729 627 LINE"
);
}
);
width = 1004;
}
);
unicode = 0065;
},
{
glyphname = eacute;
layers = (
{
layerId = "39F396E6-2268-4814-9B49-0C64559D5675";
paths = (
{
closed = 1;
nodes = (
"649 -25 OFFCURVE",
"848 49 OFFCURVE",
"934 102 QCURVE",
"934 227 LINE",
"865 181 OFFCURVE",
"698 100 OFFCURVE",
"610 100 QCURVE SMOOTH",
"511 100 OFFCURVE",
"379 176 OFFCURVE",
"301 302 OFFCURVE",
"268 457 OFFCURVE",
"268 535 QCURVE",
"932 535 LINE",
"934 549 OFFCURVE",
"934 582 OFFCURVE",
"934 592 QCURVE SMOOTH",
"934 775 OFFCURVE",
"742 1012 OFFCURVE",
"551 1012 QCURVE SMOOTH",
"412 1012 OFFCURVE",
"194 881 OFFCURVE",
"70 643 OFFCURVE",
"70 483 QCURVE SMOOTH",
"70 312 OFFCURVE",
"204 86 OFFCURVE",
"421 -25 OFFCURVE",
"545 -25 QCURVE SMOOTH"
);
},
{
closed = 1;
nodes = (
"287 759 OFFCURVE",
"429 911 OFFCURVE",
"530 911 QCURVE SMOOTH",
"632 911 OFFCURVE",
"729 773 OFFCURVE",
"729 672 QCURVE SMOOTH",
"729 627 LINE",
"279 627 LINE"
);
},
{
closed = 1;
nodes = (
"532 1128 LINE",
"844 1327 LINE SMOOTH",
"865 1341 OFFCURVE",
"891 1381 OFFCURVE",
"891 1409 QCURVE SMOOTH",
"891 1440 OFFCURVE",
"850 1501 OFFCURVE",
"797 1501 QCURVE SMOOTH",
"755 1501 OFFCURVE",
"710 1472 OFFCURVE",
"688 1446 QCURVE SMOOTH",
"416 1128 LINE"
);
}
);
width = 1004;
}
);
unicode = 00E9;
},
{
glyphname = ecircumflex;
layers = (
{
layerId = "39F396E6-2268-4814-9B49-0C64559D5675";
paths = (
{
closed = 1;
nodes = (
"649 -25 OFFCURVE",
"848 49 OFFCURVE",
"934 102 QCURVE",
"934 227 LINE",
"865 181 OFFCURVE",
"698 100 OFFCURVE",
"610 100 QCURVE SMOOTH",
"511 100 OFFCURVE",
"379 176 OFFCURVE",
"301 302 OFFCURVE",
"268 457 OFFCURVE",
"268 535 QCURVE",
"932 535 LINE",
"934 549 OFFCURVE",
"934 582 OFFCURVE",
"934 592 QCURVE SMOOTH",
"934 775 OFFCURVE",
"742 1012 OFFCURVE",
"551 1012 QCURVE SMOOTH",
"412 1012 OFFCURVE",
"194 881 OFFCURVE",
"70 643 OFFCURVE",
"70 483 QCURVE SMOOTH",
"70 312 OFFCURVE",
"204 86 OFFCURVE",
"421 -25 OFFCURVE",
"545 -25 QCURVE SMOOTH"
);
},
{
closed = 1;
nodes = (
"287 759 OFFCURVE",
"429 911 OFFCURVE",
"530 911 QCURVE SMOOTH",
"632 911 OFFCURVE",
"729 773 OFFCURVE",
"729 672 QCURVE SMOOTH",
"729 627 LINE",
"279 627 LINE"
);
},
{
closed = 1;
nodes = (
"305 1128 LINE",
"516 1331 LINE",
"727 1128 LINE",
"850 1128 LINE",
"592 1475 LINE",
"438 1475 LINE",
"182 1128 LINE"
);
}
);
width = 1004;
}
);
unicode = 00EA;
},
{
glyphname = edieresis;
layers = (
{
layerId = "39F396E6-2268-4814-9B49-0C64559D5675";
paths = (
{
closed = 1;
nodes = (
"649 -25 OFFCURVE",
"848 49 OFFCURVE",
"934 102 QCURVE",
"934 227 LINE",
"865 181 OFFCURVE",
"698 100 OFFCURVE",
"610 100 QCURVE SMOOTH",
"511 100 OFFCURVE",
"379 176 OFFCURVE",
"301 302 OFFCURVE",
"268 457 OFFCURVE",
"268 535 QCURVE",
"932 535 LINE",
"934 549 OFFCURVE",
"934 582 OFFCURVE",
"934 592 QCURVE SMOOTH",
"934 775 OFFCURVE",
"742 1012 OFFCURVE",
"551 1012 QCURVE SMOOTH",
"412 1012 OFFCURVE",
"194 881 OFFCURVE",
"70 643 OFFCURVE",
"70 483 QCURVE SMOOTH",
"70 312 OFFCURVE",
"204 86 OFFCURVE",
"421 -25 OFFCURVE",
"545 -25 QCURVE SMOOTH"
);
},
{
closed = 1;
nodes = (
"287 759 OFFCURVE",
"429 911 OFFCURVE",
"530 911 QCURVE SMOOTH",
"632 911 OFFCURVE",
"729 773 OFFCURVE",
"729 672 QCURVE SMOOTH",
"729 627 LINE",
"279 627 LINE"
);
},
{
closed = 1;
nodes = (
"354 1198 OFFCURVE",
"420 1267 OFFCURVE",
"420 1313 QCURVE SMOOTH",
"420 1359 OFFCURVE",
"354 1425 OFFCURVE",
"307 1425 QCURVE SMOOTH",
"263 1425 OFFCURVE",
"197 1355 OFFCURVE",
"197 1311 QCURVE SMOOTH",
"197 1266 OFFCURVE",
"263 1198 OFFCURVE",
"307 1198 QCURVE SMOOTH"
);
},
{
closed = 1;
nodes = (
"780 1198 OFFCURVE",
"846 1267 OFFCURVE",
"846 1313 QCURVE SMOOTH",
"846 1359 OFFCURVE",
"778 1425 OFFCURVE",
"731 1425 QCURVE SMOOTH",
"688 1425 OFFCURVE",
"621 1356 OFFCURVE",
"621 1313 QCURVE SMOOTH",
"621 1267 OFFCURVE",
"687 1198 OFFCURVE",
"733 1198 QCURVE SMOOTH"
);
}
);
width = 1004;
}
);
unicode = 00EB;
},
{
glyphname = egrave;
layers = (
{
layerId = "39F396E6-2268-4814-9B49-0C64559D5675";
paths = (
{
closed = 1;
nodes = (
"649 -25 OFFCURVE",
"848 49 OFFCURVE",
"934 102 QCURVE",
"934 227 LINE",
"865 181 OFFCURVE",
"698 100 OFFCURVE",
"610 100 QCURVE SMOOTH",
"511 100 OFFCURVE",
"379 176 OFFCURVE",
"301 302 OFFCURVE",
"268 457 OFFCURVE",
"268 535 QCURVE",
"932 535 LINE",
"934 549 OFFCURVE",
"934 582 OFFCURVE",
"934 592 QCURVE SMOOTH",
"934 775 OFFCURVE",
"742 1012 OFFCURVE",
"551 1012 QCURVE SMOOTH",
"412 1012 OFFCURVE",
"194 881 OFFCURVE",
"70 643 OFFCURVE",
"70 483 QCURVE SMOOTH",
"70 312 OFFCURVE",
"204 86 OFFCURVE",
"421 -25 OFFCURVE",
"545 -25 QCURVE SMOOTH"
);
},
{
closed = 1;
nodes = (
"287 759 OFFCURVE",
"429 911 OFFCURVE",
"530 911 QCURVE SMOOTH",
"632 911 OFFCURVE",
"729 773 OFFCURVE",
"729 672 QCURVE SMOOTH",
"729 627 LINE",
"279 627 LINE"
);
},
{
closed = 1;
nodes = (
"655 1128 LINE",
"381 1446 LINE SMOOTH",
"359 1472 OFFCURVE",
"316 1501 OFFCURVE",
"274 1501 QCURVE SMOOTH",
"221 1501 OFFCURVE",
"180 1440 OFFCURVE",
"180 1409 QCURVE SMOOTH",
"180 1381 OFFCURVE",
"206 1341 OFFCURVE",
"227 1327 QCURVE SMOOTH",
"539 1128 LINE"
);
}
);
width = 1004;
}
);
unicode = 00E8;
},
{
glyphname = f;
layers = (
{
anchors = (
{
name = bottom;
position = "{334, 0}";
},
{
name = top;
position = "{334, 1509}";
}
);
layerId = "39F396E6-2268-4814-9B49-0C64559D5675";
paths = (
{
closed = 1;
nodes = (
"797 1345 OFFCURVE",
"756 1298 OFFCURVE",
"710 1278 OFFCURVE",
"702 1276 QCURVE SMOOTH",
"699 1279 OFFCURVE",
"642 1319 OFFCURVE",
"571 1369 OFFCURVE",
"516 1408 OFFCURVE",
"514 1409 QCURVE SMOOTH",
"470 1386 OFFCURVE",
"393 1246 OFFCURVE",
"393 1102 QCURVE SMOOTH",
"393 971 LINE",
"647 971 LINE",
"647 866 LINE",
"393 866 LINE",
"393 131 LINE SMOOTH",
"393 112 OFFCURVE",
"418 87 OFFCURVE",
"436 86 QCURVE SMOOTH",
"557 80 LINE",
"557 0 LINE",
"59 0 LINE",
"59 80 LINE",
"160 86 LINE SMOOTH",
"178 88 OFFCURVE",
"203 112 OFFCURVE",
"203 131 QCURVE SMOOTH",
"203 866 LINE",
"72 866 LINE",
"72 938 LINE",
"203 975 LINE",
"203 1076 OFFCURVE",
"234 1209 OFFCURVE",
"272 1282 QCURVE SMOOTH",
"332 1398 OFFCURVE",
"521 1509 OFFCURVE",
"621 1509 QCURVE SMOOTH",
"708 1509 OFFCURVE",
"797 1436 OFFCURVE",
"797 1386 QCURVE SMOOTH"
);
}
);
width = 668;
}
);
unicode = 0066;
},
{
glyphname = g;
layers = (
{
anchors = (
{
name = bottom;
position = "{538, -446}";
},
{
name = top;
position = "{538, 987}";
}
);
layerId = "39F396E6-2268-4814-9B49-0C64559D5675";
paths = (
{
closed = 1;
nodes = (
"836 850 LINE",
"859 813 OFFCURVE",
"891 725 OFFCURVE",
"891 666 QCURVE SMOOTH",
"891 564 OFFCURVE",
"779 419 OFFCURVE",
"596 341 OFFCURVE",
"489 341 QCURVE SMOOTH",
"479 341 OFFCURVE",
"459 341 OFFCURVE",
"449 342 QCURVE",
"436 321 OFFCURVE",
"427 273 OFFCURVE",
"427 252 QCURVE SMOOTH",
"427 233 OFFCURVE",
"431 207 OFFCURVE",
"432 205 QCURVE SMOOTH",
"461 202 LINE SMOOTH",
"533 195 OFFCURVE",
"712 169 OFFCURVE",
"879 111 OFFCURVE",
"987 5 OFFCURVE",
"987 -82 QCURVE SMOOTH",
"987 -179 OFFCURVE",
"845 -356 OFFCURVE",
"604 -469 OFFCURVE",
"455 -469 QCURVE SMOOTH",
"272 -469 OFFCURVE",
"70 -302 OFFCURVE",
"70 -178 QCURVE SMOOTH",
"70 -89 OFFCURVE",
"176 50 OFFCURVE",
"287 70 QCURVE",
"276 102 OFFCURVE",
"266 130 OFFCURVE",
"266 164 QCURVE SMOOTH",
"266 204 OFFCURVE",
"315 301 OFFCURVE",
"369 356 QCURVE",
"267 379 OFFCURVE",
"115 540 OFFCURVE",
"115 664 QCURVE SMOOTH",
"115 825 OFFCURVE",
"342 1012 OFFCURVE",
"526 1012 QCURVE SMOOTH",
"599 1012 OFFCURVE",
"724 969 OFFCURVE",
"764 950 QCURVE",
"1040 950 LINE",
"1040 850 LINE"
);
},
{
closed = 1;
nodes = (
"811 -73 OFFCURVE",
"722 -3 OFFCURVE",
"590 31 OFFCURVE",
"456 46 OFFCURVE",
"410 55 QCURVE",
"321 23 OFFCURVE",
"254 -87 OFFCURVE",
"254 -137 QCURVE SMOOTH",
"254 -186 OFFCURVE",
"311 -297 OFFCURVE",
"430 -375 OFFCURVE",
"522 -375 QCURVE SMOOTH",
"620 -375 OFFCURVE",
"748 -297 OFFCURVE",
"811 -186 OFFCURVE",
"811 -137 QCURVE SMOOTH"
);
},
{
closed = 1;
nodes = (
"696 743 OFFCURVE",
"652 857 OFFCURVE",
"568 928 OFFCURVE",
"506 928 QCURVE SMOOTH",
"420 928 OFFCURVE",
"311 795 OFFCURVE",
"311 676 QCURVE SMOOTH",
"311 573 OFFCURVE",
"409 426 OFFCURVE",
"506 426 QCURVE SMOOTH",
"598 426 OFFCURVE",
"696 574 OFFCURVE",
"696 678 QCURVE SMOOTH"
);
}
);
width = 1075;
}
);
unicode = 0067;
},
{
glyphname = h;
layers = (
{
anchors = (
{
name = bottom;
position = "{588, 0}";
},
{
name = center;
position = "{588, 755}";
},
{
name = top;
position = "{588, 1509}";
}
);
layerId = "39F396E6-2268-4814-9B49-0C64559D5675";
paths = (
{
closed = 1;
nodes = (
"672 0 LINE",
"672 80 LINE",
"756 86 LINE SMOOTH",
"774 88 OFFCURVE",
"801 112 OFFCURVE",
"801 131 QCURVE SMOOTH",
"801 659 LINE SMOOTH",
"801 747 OFFCURVE",
"717 862 OFFCURVE",
"598 862 QCURVE SMOOTH",
"544 862 OFFCURVE",
"419 828 OFFCURVE",
"375 803 QCURVE",
"375 131 LINE SMOOTH",
"375 89 OFFCURVE",
"416 86 QCURVE SMOOTH",
"504 80 LINE",
"504 0 LINE",
"43 0 LINE",
"43 80 LINE",
"141 86 LINE SMOOTH",
"184 89 OFFCURVE",
"184 131 QCURVE SMOOTH",
"184 1362 LINE",
"31 1362 LINE",
"31 1430 LINE",
"293 1509 LINE",
"375 1509 LINE",
"375 885 LINE",
"412 908 OFFCURVE",
"530 967 OFFCURVE",
"660 1012 OFFCURVE",
"713 1012 QCURVE SMOOTH",
"831 1012 OFFCURVE",
"991 860 OFFCURVE",
"991 702 QCURVE SMOOTH",
"991 131 LINE SMOOTH",
"991 112 OFFCURVE",
"1018 88 OFFCURVE",
"1036 86 QCURVE SMOOTH",
"1128 80 LINE",
"1128 0 LINE"
);
}
);
width = 1176;
}
);
unicode = 0068;
},
{
glyphname = i;
layers = (
{
anchors = (
{
name = bottom;
position = "{311, 0}";
}
);
layerId = "39F396E6-2268-4814-9B49-0C64559D5675";
paths = (
{
closed = 1;
nodes = (
"70 0 LINE",
"70 80 LINE",
"170 86 LINE SMOOTH",
"213 89 OFFCURVE",
"213 131 QCURVE SMOOTH",
"213 862 LINE",
"72 862 LINE",
"72 934 LINE",
"322 1012 LINE",
"403 1012 LINE",
"403 131 LINE SMOOTH",
"403 112 OFFCURVE",
"428 88 OFFCURVE",
"446 86 QCURVE SMOOTH",
"551 80 LINE",
"551 0 LINE"
);
},
{
closed = 1;
nodes = (
"446 1273 OFFCURVE",
"374 1198 OFFCURVE",
"322 1198 QCURVE SMOOTH",
"270 1198 OFFCURVE",
"195 1273 OFFCURVE",
"195 1325 QCURVE SMOOTH",
"195 1378 OFFCURVE",
"270 1450 OFFCURVE",
"322 1450 QCURVE SMOOTH",
"374 1450 OFFCURVE",
"446 1378 OFFCURVE",
"446 1325 QCURVE SMOOTH"
);
}
);
width = 621;
}
);
unicode = 0069;
},
{
glyphname = dotlessi;
layers = (
{
anchors = (
{
name = bottom;
position = "{311, 0}";
},
{
name = ogonek;
position = "{551, 0}";
},
{
name = top;
position = "{311, 987}";
}
);
layerId = "39F396E6-2268-4814-9B49-0C64559D5675";
paths = (
{
closed = 1;
nodes = (
"70 0 LINE",
"70 80 LINE",
"170 86 LINE SMOOTH",
"213 89 OFFCURVE",
"213 131 QCURVE SMOOTH",
"213 862 LINE",
"72 862 LINE",
"72 934 LINE",
"322 1012 LINE",
"403 1012 LINE",
"403 131 LINE SMOOTH",
"403 112 OFFCURVE",
"428 88 OFFCURVE",
"446 86 QCURVE SMOOTH",
"551 80 LINE",
"551 0 LINE"
);
}
);
width = 621;
}
);
unicode = 0131;
},
{
glyphname = iacute;
layers = (
{
layerId = "39F396E6-2268-4814-9B49-0C64559D5675";
paths = (
{
closed = 1;
nodes = (
"70 0 LINE",
"70 80 LINE",
"170 86 LINE SMOOTH",
"213 89 OFFCURVE",
"213 131 QCURVE SMOOTH",
"213 862 LINE",
"72 862 LINE",
"72 932 LINE",
"322 1010 LINE",
"403 1010 LINE",
"403 131 LINE SMOOTH",
"403 112 OFFCURVE",
"428 88 OFFCURVE",
"446 86 QCURVE SMOOTH",
"551 80 LINE",
"551 0 LINE"
);
},
{
closed = 1;
nodes = (
"553 1358 OFFCURVE",
"506 1327 QCURVE SMOOTH",
"195 1128 LINE",
"78 1128 LINE",
"350 1446 LINE SMOOTH",
"372 1472 OFFCURVE",
"417 1501 OFFCURVE",
"459 1501 QCURVE SMOOTH",
"512 1501 OFFCURVE",
"553 1440 OFFCURVE",
"553 1409 QCURVE SMOOTH"
);
}
);
width = 621;
}
);
unicode = 00ED;
},
{
glyphname = icircumflex;
layers = (
{
layerId = "39F396E6-2268-4814-9B49-0C64559D5675";
paths = (
{
closed = 1;
nodes = (
"72 0 LINE",
"72 80 LINE",
"170 86 LINE SMOOTH",
"213 89 OFFCURVE",
"213 131 QCURVE SMOOTH",
"213 862 LINE",
"74 862 LINE",
"74 932 LINE",
"324 1010 LINE",
"403 1010 LINE",
"403 131 LINE SMOOTH",
"403 112 OFFCURVE",
"428 88 OFFCURVE",
"446 86 QCURVE SMOOTH",
"553 80 LINE",
"553 0 LINE"
);
},
{
closed = 1;
nodes = (
"522 1128 LINE",
"309 1331 LINE",
"98 1128 LINE",
"-25 1128 LINE",
"233 1475 LINE",
"387 1475 LINE",
"645 1128 LINE"
);
}
);
width = 621;
}
);
unicode = 00EE;
},
{
glyphname = idieresis;
layers = (
{
layerId = "39F396E6-2268-4814-9B49-0C64559D5675";
paths = (
{
closed = 1;
nodes = (
"70 0 LINE",
"70 80 LINE",
"170 86 LINE SMOOTH",
"213 89 OFFCURVE",
"213 131 QCURVE SMOOTH",
"213 862 LINE",
"72 862 LINE",
"72 932 LINE",
"322 1010 LINE",
"403 1010 LINE",
"403 131 LINE SMOOTH",
"403 112 OFFCURVE",
"428 88 OFFCURVE",
"446 86 QCURVE SMOOTH",
"551 80 LINE",
"551 0 LINE"
);
},
{
closed = 1;
nodes = (
"209 1267 OFFCURVE",
"143 1198 OFFCURVE",
"96 1198 QCURVE SMOOTH",
"52 1198 OFFCURVE",
"-14 1266 OFFCURVE",
"-14 1311 QCURVE SMOOTH",
"-14 1355 OFFCURVE",
"52 1425 OFFCURVE",
"96 1425 QCURVE SMOOTH",
"143 1425 OFFCURVE",
"209 1359 OFFCURVE",
"209 1313 QCURVE SMOOTH"
);
},
{
closed = 1;
nodes = (
"633 1267 OFFCURVE",
"567 1198 OFFCURVE",
"520 1198 QCURVE SMOOTH",
"474 1198 OFFCURVE",
"410 1267 OFFCURVE",
"410 1313 QCURVE SMOOTH",
"410 1356 OFFCURVE",
"477 1425 OFFCURVE",
"520 1425 QCURVE SMOOTH",
"567 1425 OFFCURVE",
"633 1359 OFFCURVE",
"633 1313 QCURVE SMOOTH"
);
}
);
width = 621;
}
);
unicode = 00EF;
},
{
glyphname = igrave;
layers = (
{
layerId = "39F396E6-2268-4814-9B49-0C64559D5675";
paths = (
{
closed = 1;
nodes = (
"70 0 LINE",
"70 80 LINE",
"170 86 LINE SMOOTH",
"213 89 OFFCURVE",
"213 131 QCURVE SMOOTH",
"213 862 LINE",
"72 862 LINE",
"72 932 LINE",
"322 1010 LINE",
"403 1010 LINE",
"403 131 LINE SMOOTH",
"403 112 OFFCURVE",
"428 88 OFFCURVE",
"446 86 QCURVE SMOOTH",
"551 80 LINE",
"551 0 LINE"
);
},
{
closed = 1;
nodes = (
"332 1128 LINE",
"20 1327 LINE SMOOTH",
"-1 1341 OFFCURVE",
"-29 1381 OFFCURVE",
"-29 1409 QCURVE SMOOTH",
"-29 1440 OFFCURVE",
"14 1501 OFFCURVE",
"68 1501 QCURVE SMOOTH",
"109 1501 OFFCURVE",
"152 1472 OFFCURVE",
"174 1446 QCURVE SMOOTH",
"446 1128 LINE"
);
}
);
width = 621;
}
);
unicode = 00EC;
},
{
glyphname = j;
layers = (
{
layerId = "39F396E6-2268-4814-9B49-0C64559D5675";
paths = (
{
closed = 1;
nodes = (
"414 70 OFFCURVE",
"403 -80 OFFCURVE",
"368 -224 OFFCURVE",
"333 -279 QCURVE SMOOTH",
"271 -376 OFFCURVE",
"91 -469 OFFCURVE",
"-6 -469 QCURVE SMOOTH",
"-69 -469 OFFCURVE",
"-162 -414 OFFCURVE",
"-162 -356 QCURVE SMOOTH",
"-162 -304 OFFCURVE",
"-105 -248 OFFCURVE",
"-74 -238 QCURVE",
"125 -375 LINE",
"182 -343 OFFCURVE",
"223 -161 OFFCURVE",
"223 -43 QCURVE SMOOTH",
"223 866 LINE",
"78 866 LINE",
"78 934 LINE",
"330 1012 LINE",
"414 1012 LINE",
"414 131 LINE SMOOTH"
);
},
{
closed = 1;
nodes = (
"436 1273 OFFCURVE",
"364 1198 OFFCURVE",
"311 1198 QCURVE SMOOTH",
"259 1198 OFFCURVE",
"184 1273 OFFCURVE",
"184 1325 QCURVE SMOOTH",
"184 1378 OFFCURVE",
"259 1450 OFFCURVE",
"311 1450 QCURVE SMOOTH",
"364 1450 OFFCURVE",
"436 1378 OFFCURVE",
"436 1325 QCURVE SMOOTH"
);
}
);
width = 598;
}
);
unicode = 006A;
},
{
glyphname = k;
layers = (
{
anchors = (
{
name = bottom;
position = "{547, 0}";
},
{
name = top;
position = "{547, 1509}";
}
);
layerId = "39F396E6-2268-4814-9B49-0C64559D5675";
paths = (
{
closed = 1;
nodes = (
"745 0 LINE",
"745 80 LINE",
"489 465 LINE",
"375 465 LINE",
"375 131 LINE SMOOTH",
"375 89 OFFCURVE",
"418 86 QCURVE SMOOTH",
"506 80 LINE",
"506 0 LINE",
"41 0 LINE",
"41 80 LINE",
"141 86 LINE SMOOTH",
"184 89 OFFCURVE",
"184 131 QCURVE SMOOTH",
"184 1362 LINE",
"29 1362 LINE",
"29 1430 LINE",
"291 1509 LINE",
"375 1509 LINE",
"375 524 LINE",
"416 524 LINE",
"717 864 LINE SMOOTH",
"721 869 OFFCURVE",
"721 877 QCURVE SMOOTH",
"721 897 OFFCURVE",
"700 899 QCURVE SMOOTH",
"616 907 LINE",
"616 987 LINE",
"1014 987 LINE",
"1014 907 LINE",
"883 893 LINE",
"612 604 LINE",
"965 92 LINE",
"1073 80 LINE",
"1073 0 LINE"
);
}
);
width = 1094;
}
);
unicode = 006B;
},
{
glyphname = l;
layers = (
{
anchors = (
{
name = bottom;
position = "{304, 0}";
},
{
name = center;
position = "{304, 494}";
},
{
name = dot;
position = "{304, 0}";
},
{
name = top;
position = "{304, 987}";
},
{
name = topright;
position = "{399, 987}";
}
);
layerId = "39F396E6-2268-4814-9B49-0C64559D5675";
paths = (
{
closed = 1;
nodes = (
"55 0 LINE",
"55 80 LINE",
"164 86 LINE SMOOTH",
"178 86 OFFCURVE",
"209 116 OFFCURVE",
"209 129 QCURVE SMOOTH",
"209 1362 LINE",
"53 1362 LINE",
"53 1430 LINE",
"315 1509 LINE",
"399 1509 LINE",
"399 129 LINE SMOOTH",
"399 116 OFFCURVE",
"429 86 OFFCURVE",
"442 86 QCURVE SMOOTH",
"553 80 LINE",
"553 0 LINE"
);
}
);
width = 608;
}
);
unicode = 006C;
},
{
glyphname = m;
layers = (
{
anchors = (
{
name = bottom;
position = "{871, 0}";
},
{
name = top;
position = "{871, 987}";
}
);
layerId = "39F396E6-2268-4814-9B49-0C64559D5675";
paths = (
{
closed = 1;
nodes = (
"1237 0 LINE",
"1237 80 LINE",
"1323 86 LINE SMOOTH",
"1366 89 OFFCURVE",
"1366 131 QCURVE SMOOTH",
"1366 653 LINE SMOOTH",
"1366 748 OFFCURVE",
"1287 862 OFFCURVE",
"1184 862 QCURVE SMOOTH",
"1133 862 OFFCURVE",
"1012 830 OFFCURVE",
"965 805 QCURVE",
"965 131 LINE SMOOTH",
"965 89 OFFCURVE",
"1008 86 QCURVE SMOOTH",
"1094 80 LINE",
"1094 0 LINE",
"645 0 LINE",
"645 80 LINE",
"731 86 LINE SMOOTH",
"774 89 OFFCURVE",
"774 131 QCURVE SMOOTH",
"774 666 LINE SMOOTH",
"774 753 OFFCURVE",
"692 862 OFFCURVE",
"594 862 QCURVE SMOOTH",
"536 862 OFFCURVE",
"410 823 OFFCURVE",
"375 803 QCURVE",
"375 131 LINE SMOOTH",
"375 89 OFFCURVE",
"418 86 QCURVE SMOOTH",
"504 80 LINE",
"504 0 LINE",
"41 0 LINE",
"41 80 LINE",
"141 86 LINE SMOOTH",
"184 89 OFFCURVE",
"184 131 QCURVE SMOOTH",
"184 842 LINE",
"43 842 LINE",
"43 909 LINE",
"291 987 LINE",
"375 987 LINE",
"375 885 LINE",
"421 913 OFFCURVE",
"536 971 OFFCURVE",
"656 1012 OFFCURVE",
"709 1012 QCURVE SMOOTH",
"798 1012 OFFCURVE",
"908 921 OFFCURVE",
"934 870 QCURVE",
"975 896 OFFCURVE",
"1101 963 OFFCURVE",
"1236 1012 OFFCURVE",
"1290 1012 QCURVE SMOOTH",
"1398 1012 OFFCURVE",
"1512 913 OFFCURVE",
"1554 768 OFFCURVE",
"1554 698 QCURVE SMOOTH",
"1554 131 LINE SMOOTH",
"1554 112 OFFCURVE",
"1579 88 OFFCURVE",
"1597 86 QCURVE SMOOTH",
"1696 80 LINE",
"1696 0 LINE"
);
}
);
width = 1741;
}
);
unicode = 006D;
},
{
glyphname = n;
layers = (
{
anchors = (
{
name = bottom;
position = "{581, 0}";
},
{
name = top;
position = "{581, 987}";
}
);
layerId = "39F396E6-2268-4814-9B49-0C64559D5675";
paths = (
{
closed = 1;
nodes = (
"668 0 LINE",
"668 80 LINE",
"754 86 LINE SMOOTH",
"772 88 OFFCURVE",
"797 112 OFFCURVE",
"797 131 QCURVE SMOOTH",
"797 664 LINE SMOOTH",
"797 761 OFFCURVE",
"707 862 OFFCURVE",
"600 862 QCURVE SMOOTH",
"542 862 OFFCURVE",
"427 829 OFFCURVE",
"375 803 QCURVE",
"375 131 LINE SMOOTH",
"375 89 OFFCURVE",
"418 86 QCURVE SMOOTH",
"504 80 LINE",
"504 0 LINE",
"41 0 LINE",
"41 80 LINE",
"141 86 LINE SMOOTH",
"184 89 OFFCURVE",
"184 131 QCURVE SMOOTH",
"184 842 LINE",
"41 842 LINE",
"41 909 LINE",
"291 987 LINE",
"375 987 LINE",
"375 885 LINE",
"461 934 OFFCURVE",
"642 1012 OFFCURVE",
"713 1012 QCURVE SMOOTH",
"847 1012 OFFCURVE",
"987 845 OFFCURVE",
"987 696 QCURVE SMOOTH",
"987 131 LINE SMOOTH",
"987 112 OFFCURVE",
"1012 88 OFFCURVE",
"1030 86 QCURVE SMOOTH",
"1120 80 LINE",
"1120 0 LINE"
);
}
);
width = 1161;
}
);
unicode = 006E;
},
{
glyphname = ntilde;
layers = (
{
layerId = "39F396E6-2268-4814-9B49-0C64559D5675";
paths = (
{
closed = 1;
nodes = (
"504 0 LINE",
"504 80 LINE",
"418 86 LINE SMOOTH",
"375 89 OFFCURVE",
"375 131 QCURVE SMOOTH",
"375 803 LINE",
"427 829 OFFCURVE",
"542 862 OFFCURVE",
"600 862 QCURVE SMOOTH",
"707 862 OFFCURVE",
"797 761 OFFCURVE",
"797 664 QCURVE SMOOTH",
"797 131 LINE SMOOTH",
"797 112 OFFCURVE",
"772 88 OFFCURVE",
"754 86 QCURVE SMOOTH",
"668 80 LINE",
"668 0 LINE",
"1120 0 LINE",
"1120 80 LINE",
"1030 86 LINE SMOOTH",
"1012 88 OFFCURVE",
"987 112 OFFCURVE",
"987 131 QCURVE SMOOTH",
"987 696 LINE SMOOTH",
"987 845 OFFCURVE",
"847 1012 OFFCURVE",
"713 1012 QCURVE SMOOTH",
"642 1012 OFFCURVE",
"461 934 OFFCURVE",
"375 885 QCURVE",
"375 987 LINE",
"291 987 LINE",
"41 909 LINE",
"41 842 LINE",
"184 842 LINE",
"184 131 LINE SMOOTH",
"184 89 OFFCURVE",
"141 86 QCURVE SMOOTH",
"41 80 LINE",
"41 0 LINE"
);
},
{
closed = 1;
nodes = (
"311 1198 LINE",
"316 1235 OFFCURVE",
"379 1296 OFFCURVE",
"420 1296 QCURVE SMOOTH",
"487 1296 OFFCURVE",
"571 1247 OFFCURVE",
"648 1198 OFFCURVE",
"702 1198 QCURVE SMOOTH",
"803 1198 OFFCURVE",
"917 1333 OFFCURVE",
"940 1423 QCURVE",
"858 1423 LINE",
"854 1386 OFFCURVE",
"793 1325 OFFCURVE",
"752 1325 QCURVE SMOOTH",
"685 1325 OFFCURVE",
"599 1374 OFFCURVE",
"521 1423 OFFCURVE",
"467 1423 QCURVE SMOOTH",
"367 1423 OFFCURVE",
"252 1289 OFFCURVE",
"229 1198 QCURVE"
);
}
);
width = 1182;
}
);
unicode = 00F1;
},
{
glyphname = o;
layers = (
{
anchors = (
{
name = bottom;
position = "{557, 0}";
},
{
name = center;
position = "{557, 494}";
},
{
name = ogonek;
position = "{721, 0}";
},
{
name = top;
position = "{557, 987}";
},
{
name = topright;
position = "{728, 987}";
}
);
layerId = "39F396E6-2268-4814-9B49-0C64559D5675";
paths = (
{
closed = 1;
nodes = (
"1044 347 OFFCURVE",
"924 112 OFFCURVE",
"705 -25 OFFCURVE",
"555 -25 QCURVE SMOOTH",
"406 -25 OFFCURVE",
"188 111 OFFCURVE",
"70 345 OFFCURVE",
"70 492 QCURVE SMOOTH",
"70 638 OFFCURVE",
"189 874 OFFCURVE",
"410 1012 OFFCURVE",
"561 1012 QCURVE SMOOTH",
"714 1012 OFFCURVE",
"930 872 OFFCURVE",
"1044 636 OFFCURVE",
"1044 492 QCURVE SMOOTH"
);
},
{
closed = 1;
nodes = (
"831 606 OFFCURVE",
"772 800 OFFCURVE",
"651 920 OFFCURVE",
"559 920 QCURVE SMOOTH",
"464 920 OFFCURVE",
"343 800 OFFCURVE",
"285 606 OFFCURVE",
"285 494 QCURVE SMOOTH",
"285 383 OFFCURVE",
"344 188 OFFCURVE",
"465 68 OFFCURVE",
"557 68 QCURVE SMOOTH",
"651 68 OFFCURVE",
"772 188 OFFCURVE",
"831 382 OFFCURVE",
"831 494 QCURVE SMOOTH"
);
}
);
width = 1114;
}
);
unicode = 006F;
},
{
glyphname = oacute;
layers = (
{
layerId = "39F396E6-2268-4814-9B49-0C64559D5675";
paths = (
{
closed = 1;
nodes = (
"705 -25 OFFCURVE",
"924 112 OFFCURVE",
"1044 347 OFFCURVE",
"1044 492 QCURVE SMOOTH",
"1044 636 OFFCURVE",
"930 872 OFFCURVE",
"714 1012 OFFCURVE",
"561 1012 QCURVE SMOOTH",
"410 1012 OFFCURVE",
"189 874 OFFCURVE",
"70 638 OFFCURVE",
"70 492 QCURVE SMOOTH",
"70 345 OFFCURVE",
"188 111 OFFCURVE",
"406 -25 OFFCURVE",
"555 -25 QCURVE SMOOTH"
);
},
{
closed = 1;
nodes = (
"465 68 OFFCURVE",
"344 188 OFFCURVE",
"285 383 OFFCURVE",
"285 494 QCURVE SMOOTH",
"285 606 OFFCURVE",
"343 800 OFFCURVE",
"464 920 OFFCURVE",
"559 920 QCURVE SMOOTH",
"651 920 OFFCURVE",
"772 800 OFFCURVE",
"831 606 OFFCURVE",
"831 494 QCURVE SMOOTH",
"831 382 OFFCURVE",
"772 188 OFFCURVE",
"651 68 OFFCURVE",
"557 68 QCURVE SMOOTH"
);
},
{
closed = 1;
nodes = (
"567 1128 LINE",
"879 1327 LINE SMOOTH",
"926 1356 OFFCURVE",
"926 1409 QCURVE SMOOTH",
"926 1440 OFFCURVE",
"885 1501 OFFCURVE",
"831 1501 QCURVE SMOOTH",
"790 1501 OFFCURVE",
"745 1472 OFFCURVE",
"723 1446 QCURVE SMOOTH",
"451 1128 LINE"
);
}
);
width = 1114;
}
);
unicode = 00F3;
},
{
glyphname = ocircumflex;
layers = (
{
layerId = "39F396E6-2268-4814-9B49-0C64559D5675";
paths = (
{
closed = 1;
nodes = (
"705 -25 OFFCURVE",
"924 112 OFFCURVE",
"1044 347 OFFCURVE",
"1044 492 QCURVE SMOOTH",
"1044 636 OFFCURVE",
"930 872 OFFCURVE",
"714 1012 OFFCURVE",
"561 1012 QCURVE SMOOTH",
"410 1012 OFFCURVE",
"189 874 OFFCURVE",
"70 638 OFFCURVE",
"70 492 QCURVE SMOOTH",
"70 345 OFFCURVE",
"188 111 OFFCURVE",
"406 -25 OFFCURVE",
"555 -25 QCURVE SMOOTH"
);
},
{
closed = 1;
nodes = (
"465 68 OFFCURVE",
"344 188 OFFCURVE",
"285 383 OFFCURVE",
"285 494 QCURVE SMOOTH",
"285 606 OFFCURVE",
"343 800 OFFCURVE",
"464 920 OFFCURVE",
"559 920 QCURVE SMOOTH",
"651 920 OFFCURVE",
"772 800 OFFCURVE",
"831 606 OFFCURVE",
"831 494 QCURVE SMOOTH",
"831 382 OFFCURVE",
"772 188 OFFCURVE",
"651 68 OFFCURVE",
"557 68 QCURVE SMOOTH"
);
},
{
closed = 1;
nodes = (
"346 1128 LINE",
"559 1331 LINE",
"770 1128 LINE",
"893 1128 LINE",
"635 1475 LINE",
"481 1475 LINE",
"223 1128 LINE"
);
}
);
width = 1114;
}
);
unicode = 00F4;
},
{
glyphname = odieresis;
layers = (
{
layerId = "39F396E6-2268-4814-9B49-0C64559D5675";
paths = (
{
closed = 1;
nodes = (
"705 -25 OFFCURVE",
"924 112 OFFCURVE",
"1044 347 OFFCURVE",
"1044 492 QCURVE SMOOTH",
"1044 636 OFFCURVE",
"930 872 OFFCURVE",
"714 1012 OFFCURVE",
"561 1012 QCURVE SMOOTH",
"410 1012 OFFCURVE",
"189 874 OFFCURVE",
"70 638 OFFCURVE",
"70 492 QCURVE SMOOTH",
"70 345 OFFCURVE",
"188 111 OFFCURVE",
"406 -25 OFFCURVE",
"555 -25 QCURVE SMOOTH"
);
},
{
closed = 1;
nodes = (
"465 68 OFFCURVE",
"344 188 OFFCURVE",
"285 383 OFFCURVE",
"285 494 QCURVE SMOOTH",
"285 606 OFFCURVE",
"343 800 OFFCURVE",
"464 920 OFFCURVE",
"559 920 QCURVE SMOOTH",
"651 920 OFFCURVE",
"772 800 OFFCURVE",
"831 606 OFFCURVE",
"831 494 QCURVE SMOOTH",
"831 382 OFFCURVE",
"772 188 OFFCURVE",
"651 68 OFFCURVE",
"557 68 QCURVE SMOOTH"
);
},
{
closed = 1;
nodes = (
"397 1198 OFFCURVE",
"463 1267 OFFCURVE",
"463 1313 QCURVE SMOOTH",
"463 1359 OFFCURVE",
"397 1425 OFFCURVE",
"350 1425 QCURVE SMOOTH",
"306 1425 OFFCURVE",
"240 1355 OFFCURVE",
"240 1311 QCURVE SMOOTH",
"240 1266 OFFCURVE",
"306 1198 OFFCURVE",
"350 1198 QCURVE SMOOTH"
);
},
{
closed = 1;
nodes = (
"821 1198 OFFCURVE",
"887 1267 OFFCURVE",
"887 1313 QCURVE SMOOTH",
"887 1359 OFFCURVE",
"821 1425 OFFCURVE",
"774 1425 QCURVE SMOOTH",
"731 1425 OFFCURVE",
"664 1356 OFFCURVE",
"664 1313 QCURVE SMOOTH",
"664 1267 OFFCURVE",
"728 1198 OFFCURVE",
"774 1198 QCURVE SMOOTH"
);
}
);
width = 1114;
}
);
unicode = 00F6;
},
{
glyphname = ograve;
layers = (
{
layerId = "39F396E6-2268-4814-9B49-0C64559D5675";
paths = (
{
closed = 1;
nodes = (
"705 -25 OFFCURVE",
"924 112 OFFCURVE",
"1044 347 OFFCURVE",
"1044 492 QCURVE SMOOTH",
"1044 636 OFFCURVE",
"930 872 OFFCURVE",
"714 1012 OFFCURVE",
"561 1012 QCURVE SMOOTH",
"410 1012 OFFCURVE",
"189 874 OFFCURVE",
"70 638 OFFCURVE",
"70 492 QCURVE SMOOTH",
"70 345 OFFCURVE",
"188 111 OFFCURVE",
"406 -25 OFFCURVE",
"555 -25 QCURVE SMOOTH"
);
},
{
closed = 1;
nodes = (
"465 68 OFFCURVE",
"344 188 OFFCURVE",
"285 383 OFFCURVE",
"285 494 QCURVE SMOOTH",
"285 606 OFFCURVE",
"343 800 OFFCURVE",
"464 920 OFFCURVE",
"559 920 QCURVE SMOOTH",
"651 920 OFFCURVE",
"772 800 OFFCURVE",
"831 606 OFFCURVE",
"831 494 QCURVE SMOOTH",
"831 382 OFFCURVE",
"772 188 OFFCURVE",
"651 68 OFFCURVE",
"557 68 QCURVE SMOOTH"
);
},
{
closed = 1;
nodes = (
"676 1128 LINE",
"401 1446 LINE SMOOTH",
"379 1472 OFFCURVE",
"336 1501 OFFCURVE",
"295 1501 QCURVE SMOOTH",
"241 1501 OFFCURVE",
"201 1440 OFFCURVE",
"201 1409 QCURVE SMOOTH",
"201 1358 OFFCURVE",
"248 1327 QCURVE SMOOTH",
"559 1128 LINE"
);
}
);
width = 1114;
}
);
unicode = 00F2;
},
{
glyphname = oslash;
layers = (
{
anchors = (
{
name = top;
position = "{557, 987}";
}
);
layerId = "39F396E6-2268-4814-9B49-0C64559D5675";
paths = (
{
closed = 1;
nodes = (
"322 31 LINE",
"372 5 OFFCURVE",
"489 -25 OFFCURVE",
"555 -25 QCURVE SMOOTH",
"705 -25 OFFCURVE",
"924 112 OFFCURVE",
"1044 347 OFFCURVE",
"1044 492 QCURVE SMOOTH",
"1044 632 OFFCURVE",
"938 861 OFFCURVE",
"838 930 QCURVE",
"940 1108 LINE",
"866 1149 LINE",
"764 971 LINE",
"720 991 OFFCURVE",
"618 1012 OFFCURVE",
"561 1012 QCURVE SMOOTH",
"410 1012 OFFCURVE",
"189 874 OFFCURVE",
"70 638 OFFCURVE",
"70 492 QCURVE SMOOTH",
"70 361 OFFCURVE",
"164 145 OFFCURVE",
"252 76 QCURVE",
"137 -125 LINE",
"209 -168 LINE"
);
},
{
closed = 1;
nodes = (
"505 68 OFFCURVE",
"421 110 OFFCURVE",
"389 145 QCURVE",
"762 797 LINE",
"797 737 OFFCURVE",
"831 580 OFFCURVE",
"831 494 QCURVE SMOOTH",
"831 382 OFFCURVE",
"772 188 OFFCURVE",
"651 68 OFFCURVE",
"557 68 QCURVE SMOOTH"
);
},
{
closed = 1;
nodes = (
"285 340 OFFCURVE",
"285 494 QCURVE SMOOTH",
"285 606 OFFCURVE",
"343 800 OFFCURVE",
"464 920 OFFCURVE",
"559 920 QCURVE SMOOTH",
"602 920 OFFCURVE",
"676 891 OFFCURVE",
"705 866 QCURVE",
"338 225 LINE"
);
}
);
width = 1114;
}
);
unicode = 00F8;
},
{
glyphname = otilde;
layers = (
{
layerId = "39F396E6-2268-4814-9B49-0C64559D5675";
paths = (
{
closed = 1;
nodes = (
"705 -25 OFFCURVE",
"924 112 OFFCURVE",
"1044 347 OFFCURVE",
"1044 492 QCURVE SMOOTH",
"1044 636 OFFCURVE",
"930 872 OFFCURVE",
"714 1012 OFFCURVE",
"561 1012 QCURVE SMOOTH",
"410 1012 OFFCURVE",
"189 874 OFFCURVE",
"70 638 OFFCURVE",
"70 492 QCURVE SMOOTH",
"70 345 OFFCURVE",
"188 111 OFFCURVE",
"406 -25 OFFCURVE",
"555 -25 QCURVE SMOOTH"
);
},
{
closed = 1;
nodes = (
"465 68 OFFCURVE",
"344 188 OFFCURVE",
"285 383 OFFCURVE",
"285 494 QCURVE SMOOTH",
"285 606 OFFCURVE",
"343 800 OFFCURVE",
"464 920 OFFCURVE",
"559 920 QCURVE SMOOTH",
"651 920 OFFCURVE",
"772 800 OFFCURVE",
"831 606 OFFCURVE",
"831 494 QCURVE SMOOTH",
"831 382 OFFCURVE",
"772 188 OFFCURVE",
"651 68 OFFCURVE",
"557 68 QCURVE SMOOTH"
);
},
{
closed = 1;
nodes = (
"295 1198 LINE",
"300 1235 OFFCURVE",
"362 1296 OFFCURVE",
"403 1296 QCURVE SMOOTH",
"470 1296 OFFCURVE",
"555 1247 OFFCURVE",
"632 1198 OFFCURVE",
"686 1198 QCURVE SMOOTH",
"786 1198 OFFCURVE",
"901 1333 OFFCURVE",
"924 1423 QCURVE",
"842 1423 LINE",
"838 1386 OFFCURVE",
"777 1325 OFFCURVE",
"735 1325 QCURVE SMOOTH",
"669 1325 OFFCURVE",
"583 1374 OFFCURVE",
"505 1423 OFFCURVE",
"451 1423 QCURVE SMOOTH",
"351 1423 OFFCURVE",
"236 1289 OFFCURVE",
"213 1198 QCURVE"
);
}
);
width = 1114;
}
);
unicode = 00F5;
},
{
glyphname = oe;
layers = (
{
anchors = (
{
name = bottom;
position = "{840, 0}";
},
{
name = top;
position = "{840, 987}";
}
);
layerId = "39F396E6-2268-4814-9B49-0C64559D5675";
paths = (
{
closed = 1;
nodes = (
"1610 582 OFFCURVE",
"1610 549 OFFCURVE",
"1608 535 QCURVE",
"991 535 LINE",
"991 433 OFFCURVE",
"1054 239 OFFCURVE",
"1200 113 OFFCURVE",
"1325 113 QCURVE SMOOTH",
"1410 113 OFFCURVE",
"1554 187 OFFCURVE",
"1608 227 QCURVE",
"1608 102 LINE",
"1544 56 OFFCURVE",
"1368 -25 OFFCURVE",
"1257 -25 QCURVE SMOOTH",
"1165 -25 OFFCURVE",
"1028 36 OFFCURVE",
"929 129 OFFCURVE",
"895 178 QCURVE",
"857 128 OFFCURVE",
"758 35 OFFCURVE",
"624 -25 OFFCURVE",
"535 -25 QCURVE SMOOTH",
"388 -25 OFFCURVE",
"180 117 OFFCURVE",
"70 354 OFFCURVE",
"70 494 QCURVE SMOOTH",
"70 636 OFFCURVE",
"181 871 OFFCURVE",
"391 1012 OFFCURVE",
"539 1012 QCURVE SMOOTH",
"682 1012 OFFCURVE",
"869 888 OFFCURVE",
"907 817 QCURVE",
"961 906 OFFCURVE",
"1145 1012 OFFCURVE",
"1249 1012 QCURVE SMOOTH",
"1428 1012 OFFCURVE",
"1610 777 OFFCURVE",
"1610 592 QCURVE SMOOTH"
);
},
{
closed = 1;
nodes = (
"797 606 OFFCURVE",
"742 799 OFFCURVE",
"629 913 OFFCURVE",
"541 913 QCURVE SMOOTH",
"452 913 OFFCURVE",
"337 797 OFFCURVE",
"283 609 OFFCURVE",
"283 500 QCURVE SMOOTH",
"283 386 OFFCURVE",
"340 190 OFFCURVE",
"455 70 OFFCURVE",
"541 70 QCURVE SMOOTH",
"628 70 OFFCURVE",
"742 188 OFFCURVE",
"797 380 OFFCURVE",
"797 489 QCURVE SMOOTH"
);
},
{
closed = 1;
nodes = (
"1403 672 LINE SMOOTH",
"1403 772 OFFCURVE",
"1315 913 OFFCURVE",
"1229 913 QCURVE SMOOTH",
"1131 913 OFFCURVE",
"1012 746 OFFCURVE",
"1001 627 QCURVE",
"1403 627 LINE"
);
}
);
width = 1679;
}
);
unicode = 0153;
},
{
glyphname = p;
layers = (
{
anchors = (
{
name = bottom;
position = "{573, 0}";
},
{
name = top;
position = "{573, 987}";
}
);
layerId = "39F396E6-2268-4814-9B49-0C64559D5675";
paths = (
{
closed = 1;
nodes = (
"1075 347 OFFCURVE",
"951 107 OFFCURVE",
"719 -25 OFFCURVE",
"557 -25 QCURVE SMOOTH",
"520 -25 OFFCURVE",
"435 -15 OFFCURVE",
"375 -6 OFFCURVE",
"375 -6 QCURVE",
"375 -311 LINE SMOOTH",
"375 -330 OFFCURVE",
"401 -352 OFFCURVE",
"420 -354 QCURVE SMOOTH",
"541 -367 LINE",
"541 -446 LINE",
"43 -446 LINE",
"43 -367 LINE",
"141 -354 LINE SMOOTH",
"184 -351 OFFCURVE",
"184 -311 QCURVE SMOOTH",
"184 842 LINE",
"43 842 LINE",
"43 909 LINE",
"295 987 LINE",
"375 987 LINE",
"375 885 LINE",
"375 885 OFFCURVE",
"426 923 OFFCURVE",
"513 974 OFFCURVE",
"624 1012 OFFCURVE",
"684 1012 QCURVE SMOOTH",
"790 1012 OFFCURVE",
"967 887 OFFCURVE",
"1075 661 OFFCURVE",
"1075 508 QCURVE SMOOTH"
);
},
{
closed = 1;
nodes = (
"870 585 OFFCURVE",
"805 761 OFFCURVE",
"678 868 OFFCURVE",
"584 868 QCURVE SMOOTH",
"533 868 OFFCURVE",
"437 838 OFFCURVE",
"375 807 OFFCURVE",
"375 807 QCURVE",
"375 102 LINE",
"375 102 OFFCURVE",
"478 70 OFFCURVE",
"541 70 QCURVE SMOOTH",
"654 70 OFFCURVE",
"799 186 OFFCURVE",
"870 373 OFFCURVE",
"870 479 QCURVE SMOOTH"
);
}
);
width = 1145;
}
);
unicode = 0070;
},
{
glyphname = thorn;
layers = (
{
anchors = (
{
name = bottom;
position = "{573, 0}";
},
{
name = top;
position = "{573, 987}";
}
);
layerId = "39F396E6-2268-4814-9B49-0C64559D5675";
paths = (
{
closed = 1;
nodes = (
"1075 347 OFFCURVE",
"951 107 OFFCURVE",
"719 -25 OFFCURVE",
"557 -25 QCURVE SMOOTH",
"520 -25 OFFCURVE",
"435 -15 OFFCURVE",
"375 -6 OFFCURVE",
"375 -6 QCURVE",
"375 -311 LINE SMOOTH",
"375 -330 OFFCURVE",
"401 -352 OFFCURVE",
"420 -354 QCURVE SMOOTH",
"541 -367 LINE",
"541 -446 LINE",
"43 -446 LINE",
"43 -367 LINE",
"141 -354 LINE SMOOTH",
"184 -351 OFFCURVE",
"184 -311 QCURVE SMOOTH",
"184 1364 LINE",
"43 1364 LINE",
"43 1432 LINE",
"295 1509 LINE",
"375 1509 LINE",
"375 885 LINE",
"375 885 OFFCURVE",
"426 923 OFFCURVE",
"513 974 OFFCURVE",
"624 1012 OFFCURVE",
"684 1012 QCURVE SMOOTH",
"790 1012 OFFCURVE",
"967 887 OFFCURVE",
"1075 661 OFFCURVE",
"1075 508 QCURVE SMOOTH"
);
},
{
closed = 1;
nodes = (
"870 585 OFFCURVE",
"805 761 OFFCURVE",
"678 868 OFFCURVE",
"584 868 QCURVE SMOOTH",
"533 868 OFFCURVE",
"437 838 OFFCURVE",
"375 807 OFFCURVE",
"375 807 QCURVE",
"375 102 LINE",
"375 102 OFFCURVE",
"478 70 OFFCURVE",
"541 70 QCURVE SMOOTH",
"654 70 OFFCURVE",
"799 186 OFFCURVE",
"870 373 OFFCURVE",
"870 479 QCURVE SMOOTH"
);
}
);
width = 1145;
}
);
unicode = 00FE;
},
{
glyphname = q;
layers = (
{
anchors = (
{
name = bottom;
position = "{562, 0}";
},
{
name = top;
position = "{562, 987}";
}
);
layerId = "39F396E6-2268-4814-9B49-0C64559D5675";
paths = (
{
closed = 1;
nodes = (
"598 -446 LINE",
"598 -369 LINE",
"719 -358 LINE SMOOTH",
"737 -356 OFFCURVE",
"762 -334 OFFCURVE",
"762 -315 QCURVE SMOOTH",
"762 55 LINE",
"705 27 OFFCURVE",
"544 -25 OFFCURVE",
"475 -25 QCURVE SMOOTH",
"349 -25 OFFCURVE",
"168 109 OFFCURVE",
"70 333 OFFCURVE",
"70 469 QCURVE SMOOTH",
"70 720 OFFCURVE",
"382 1012 OFFCURVE",
"662 1012 QCURVE SMOOTH",
"718 1012 OFFCURVE",
"888 994 OFFCURVE",
"952 979 QCURVE",
"952 -315 LINE SMOOTH",
"952 -334 OFFCURVE",
"977 -355 OFFCURVE",
"995 -358 QCURVE SMOOTH",
"1094 -369 LINE",
"1094 -446 LINE"
);
},
{
closed = 1;
nodes = (
"762 897 LINE",
"734 903 OFFCURVE",
"662 918 OFFCURVE",
"621 918 QCURVE SMOOTH",
"453 918 OFFCURVE",
"276 690 OFFCURVE",
"276 502 QCURVE SMOOTH",
"276 397 OFFCURVE",
"339 211 OFFCURVE",
"476 96 OFFCURVE",
"586 96 QCURVE SMOOTH",
"624 96 OFFCURVE",
"728 115 OFFCURVE",
"762 125 QCURVE"
);
}
);
width = 1124;
}
);
unicode = 0071;
},
{
glyphname = r;
layers = (
{
anchors = (
{
name = bottom;
position = "{401, 0}";
},
{
name = top;
position = "{401, 987}";
}
);
layerId = "39F396E6-2268-4814-9B49-0C64559D5675";
paths = (
{
closed = 1;
nodes = (
"700 778 LINE",
"681 801 OFFCURVE",
"628 834 OFFCURVE",
"590 834 QCURVE SMOOTH",
"541 834 OFFCURVE",
"438 766 OFFCURVE",
"385 707 QCURVE",
"385 131 LINE SMOOTH",
"385 88 OFFCURVE",
"428 86 QCURVE SMOOTH",
"563 80 LINE",
"563 0 LINE",
"51 0 LINE",
"51 78 LINE",
"152 86 LINE SMOOTH",
"170 88 OFFCURVE",
"195 112 OFFCURVE",
"195 131 QCURVE SMOOTH",
"195 842 LINE",
"47 842 LINE",
"47 909 LINE",
"301 987 LINE",
"385 987 LINE",
"385 805 LINE",
"415 838 OFFCURVE",
"505 936 OFFCURVE",
"607 1012 OFFCURVE",
"655 1012 QCURVE SMOOTH",
"687 1012 OFFCURVE",
"761 992 OFFCURVE",
"780 981 QCURVE",
"780 778 LINE"
);
}
);
width = 801;
}
);
unicode = 0072;
},
{
glyphname = s;
layers = (
{
anchors = (
{
name = bottom;
position = "{408, 0}";
},
{
name = top;
position = "{408, 987}";
}
);
layerId = "39F396E6-2268-4814-9B49-0C64559D5675";
paths = (
{
closed = 1;
nodes = (
"745 146 OFFCURVE",
"537 -25 OFFCURVE",
"354 -25 QCURVE SMOOTH",
"260 -25 OFFCURVE",
"101 14 OFFCURVE",
"70 27 QCURVE",
"70 299 LINE",
"174 299 LINE",
"199 125 LINE",
"230 105 OFFCURVE",
"321 68 OFFCURVE",
"381 68 QCURVE SMOOTH",
"469 68 OFFCURVE",
"565 166 OFFCURVE",
"565 227 QCURVE SMOOTH",
"565 308 OFFCURVE",
"449 391 OFFCURVE",
"342 442 QCURVE SMOOTH",
"315 455 LINE SMOOTH",
"203 508 OFFCURVE",
"84 623 OFFCURVE",
"84 715 QCURVE SMOOTH",
"84 852 OFFCURVE",
"276 1012 OFFCURVE",
"453 1012 QCURVE SMOOTH",
"543 1012 OFFCURVE",
"684 979 OFFCURVE",
"715 965 QCURVE",
"715 723 LINE",
"608 723 LINE",
"592 866 LINE",
"570 883 OFFCURVE",
"484 913 OFFCURVE",
"436 913 QCURVE SMOOTH",
"352 913 OFFCURVE",
"270 836 OFFCURVE",
"270 776 QCURVE SMOOTH",
"270 707 OFFCURVE",
"369 626 OFFCURVE",
"499 567 QCURVE SMOOTH",
"606 518 OFFCURVE",
"745 397 OFFCURVE",
"745 297 QCURVE SMOOTH"
);
}
);
width = 815;
}
);
unicode = 0073;
},
{
glyphname = scaron;
layers = (
{
layerId = "39F396E6-2268-4814-9B49-0C64559D5675";
paths = (
{
closed = 1;
nodes = (
"537 -25 OFFCURVE",
"745 146 OFFCURVE",
"745 297 QCURVE SMOOTH",
"745 397 OFFCURVE",
"606 518 OFFCURVE",
"499 567 QCURVE SMOOTH",
"369 626 OFFCURVE",
"270 707 OFFCURVE",
"270 776 QCURVE SMOOTH",
"270 836 OFFCURVE",
"352 913 OFFCURVE",
"436 913 QCURVE SMOOTH",
"484 913 OFFCURVE",
"570 883 OFFCURVE",
"592 866 QCURVE",
"608 723 LINE",
"715 723 LINE",
"715 965 LINE",
"684 979 OFFCURVE",
"543 1012 OFFCURVE",
"453 1012 QCURVE SMOOTH",
"276 1012 OFFCURVE",
"84 852 OFFCURVE",
"84 715 QCURVE SMOOTH",
"84 623 OFFCURVE",
"203 508 OFFCURVE",
"315 455 QCURVE SMOOTH",
"342 442 LINE SMOOTH",
"449 391 OFFCURVE",
"565 308 OFFCURVE",
"565 227 QCURVE SMOOTH",
"565 166 OFFCURVE",
"469 68 OFFCURVE",
"381 68 QCURVE SMOOTH",
"321 68 OFFCURVE",
"230 105 OFFCURVE",
"199 125 QCURVE",
"174 299 LINE",
"70 299 LINE",
"70 27 LINE",
"101 14 OFFCURVE",
"260 -25 OFFCURVE",
"354 -25 QCURVE SMOOTH"
);
},
{
closed = 1;
nodes = (
"483 1128 LINE",
"741 1475 LINE",
"618 1475 LINE",
"408 1272 LINE",
"197 1475 LINE",
"76 1475 LINE",
"332 1128 LINE"
);
}
);
width = 815;
}
);
unicode = 0161;
},
{
glyphname = germandbls;
layers = (
{
anchors = (
{
name = bottom;
position = "{643, 0}";
},
{
name = top;
position = "{643, 987}";
}
);
layerId = "39F396E6-2268-4814-9B49-0C64559D5675";
paths = (
{
closed = 1;
nodes = (
"1217 205 OFFCURVE",
"1120 56 OFFCURVE",
"958 -25 OFFCURVE",
"860 -25 QCURVE SMOOTH",
"813 -25 OFFCURVE",
"700 1 OFFCURVE",
"618 27 OFFCURVE",
"618 27 QCURVE",
"618 301 LINE",
"729 301 LINE",
"748 123 LINE",
"765 107 OFFCURVE",
"827 72 OFFCURVE",
"870 72 QCURVE SMOOTH",
"947 72 OFFCURVE",
"1042 179 OFFCURVE",
"1042 246 QCURVE SMOOTH",
"1042 314 OFFCURVE",
"954 406 OFFCURVE",
"823 480 OFFCURVE",
"692 558 OFFCURVE",
"604 662 OFFCURVE",
"604 741 QCURVE SMOOTH",
"604 852 OFFCURVE",
"746 999 OFFCURVE",
"852 1022 QCURVE",
"852 1022 OFFCURVE",
"861 1073 OFFCURVE",
"870 1142 OFFCURVE",
"870 1169 QCURVE SMOOTH",
"870 1261 OFFCURVE",
"770 1407 OFFCURVE",
"664 1407 QCURVE SMOOTH",
"569 1407 OFFCURVE",
"454 1307 OFFCURVE",
"395 1157 OFFCURVE",
"375 1003 OFFCURVE",
"375 948 QCURVE SMOOTH",
"375 135 LINE SMOOTH",
"375 112 OFFCURVE",
"395 88 OFFCURVE",
"406 86 QCURVE SMOOTH",
"510 78 LINE",
"510 0 LINE",
"45 0 LINE",
"45 78 LINE",
"143 88 LINE SMOOTH",
"162 90 OFFCURVE",
"184 122 OFFCURVE",
"184 135 QCURVE SMOOTH",
"184 928 LINE SMOOTH",
"184 1034 OFFCURVE",
"244 1240 OFFCURVE",
"370 1408 OFFCURVE",
"565 1509 OFFCURVE",
"700 1509 QCURVE SMOOTH",
"877 1509 OFFCURVE",
"1059 1324 OFFCURVE",
"1059 1169 QCURVE SMOOTH",
"1059 1119 OFFCURVE",
"1042 1025 OFFCURVE",
"1025 962 OFFCURVE",
"1024 956 QCURVE SMOOTH",
"1021 956 OFFCURVE",
"1001 961 OFFCURVE",
"979 961 QCURVE SMOOTH",
"875 961 OFFCURVE",
"788 867 OFFCURVE",
"788 805 QCURVE SMOOTH",
"788 745 OFFCURVE",
"875 662 OFFCURVE",
"1003 592 OFFCURVE",
"1130 510 OFFCURVE",
"1217 394 OFFCURVE",
"1217 305 QCURVE SMOOTH"
);
}
);
width = 1286;
}
);
unicode = 00DF;
},
{
glyphname = t;
layers = (
{
anchors = (
{
name = bottom;
position = "{348, 0}";
},
{
name = center;
position = "{348, 494}";
},
{
name = top;
position = "{348, 987}";
},
{
name = topright;
position = "{682, 987}";
}
);
layerId = "39F396E6-2268-4814-9B49-0C64559D5675";
paths = (
{
closed = 1;
nodes = (
"682 43 LINE",
"682 43 OFFCURVE",
"605 9 OFFCURVE",
"480 -25 OFFCURVE",
"406 -25 QCURVE SMOOTH",
"291 -25 OFFCURVE",
"186 84 OFFCURVE",
"186 205 QCURVE SMOOTH",
"186 885 LINE",
"55 885 LINE",
"55 952 LINE",
"195 1018 LINE",
"287 1235 LINE",
"377 1235 LINE",
"377 987 LINE",
"666 987 LINE",
"666 885 LINE",
"377 885 LINE",
"377 313 LINE SMOOTH",
"377 191 OFFCURVE",
"459 90 OFFCURVE",
"541 90 QCURVE SMOOTH",
"601 90 OFFCURVE",
"682 125 OFFCURVE",
"682 125 QCURVE"
);
}
);
width = 696;
}
);
unicode = 0074;
},
{
glyphname = u;
layers = (
{
anchors = (
{
name = bottom;
position = "{583, 0}";
},
{
name = ogonek;
position = "{1122, 0}";
},
{
name = top;
position = "{583, 987}";
},
{
name = topright;
position = "{987, 987}";
}
);
layerId = "39F396E6-2268-4814-9B49-0C64559D5675";
paths = (
{
closed = 1;
nodes = (
"797 0 LINE",
"797 117 LINE",
"762 90 OFFCURVE",
"654 24 OFFCURVE",
"530 -25 OFFCURVE",
"469 -25 QCURVE SMOOTH",
"337 -25 OFFCURVE",
"186 134 OFFCURVE",
"186 307 QCURVE SMOOTH",
"186 862 LINE",
"43 862 LINE",
"43 932 LINE",
"295 1012 LINE",
"377 1012 LINE",
"377 346 LINE SMOOTH",
"377 237 OFFCURVE",
"466 115 OFFCURVE",
"575 115 QCURVE SMOOTH",
"638 115 OFFCURVE",
"760 158 OFFCURVE",
"797 176 QCURVE",
"797 862 LINE",
"653 862 LINE",
"653 932 LINE",
"903 1012 LINE",
"987 1012 LINE",
"987 131 LINE SMOOTH",
"987 112 OFFCURVE",
"1014 88 OFFCURVE",
"1032 86 QCURVE SMOOTH",
"1122 80 LINE",
"1122 0 LINE"
);
}
);
width = 1165;
}
);
unicode = 0075;
},
{
glyphname = uacute;
layers = (
{
layerId = "39F396E6-2268-4814-9B49-0C64559D5675";
paths = (
{
closed = 1;
nodes = (
"530 -25 OFFCURVE",
"655 24 OFFCURVE",
"764 90 OFFCURVE",
"799 117 QCURVE",
"799 0 LINE",
"1122 0 LINE",
"1122 80 LINE",
"1032 86 LINE SMOOTH",
"1014 88 OFFCURVE",
"987 112 OFFCURVE",
"987 131 QCURVE SMOOTH",
"987 1012 LINE",
"905 1012 LINE",
"655 932 LINE",
"655 862 LINE",
"799 862 LINE",
"799 176 LINE",
"762 158 OFFCURVE",
"638 115 OFFCURVE",
"575 115 QCURVE SMOOTH",
"466 115 OFFCURVE",
"379 237 OFFCURVE",
"379 346 QCURVE SMOOTH",
"379 1012 LINE",
"295 1012 LINE",
"43 932 LINE",
"43 862 LINE",
"186 862 LINE",
"186 307 LINE SMOOTH",
"186 134 OFFCURVE",
"337 -25 OFFCURVE",
"469 -25 QCURVE SMOOTH"
);
},
{
closed = 1;
nodes = (
"586 1128 LINE",
"897 1327 LINE SMOOTH",
"942 1356 OFFCURVE",
"942 1409 QCURVE SMOOTH",
"942 1440 OFFCURVE",
"904 1501 OFFCURVE",
"850 1501 QCURVE SMOOTH",
"809 1501 OFFCURVE",
"763 1472 OFFCURVE",
"741 1446 QCURVE SMOOTH",
"469 1128 LINE"
);
}
);
width = 1165;
}
);
unicode = 00FA;
},
{
glyphname = ucircumflex;
layers = (
{
layerId = "39F396E6-2268-4814-9B49-0C64559D5675";
paths = (
{
closed = 1;
nodes = (
"530 -25 OFFCURVE",
"655 24 OFFCURVE",
"764 90 OFFCURVE",
"799 117 QCURVE",
"799 0 LINE",
"1122 0 LINE",
"1122 80 LINE",
"1032 86 LINE SMOOTH",
"1014 88 OFFCURVE",
"987 112 OFFCURVE",
"987 131 QCURVE SMOOTH",
"987 1012 LINE",
"905 1012 LINE",
"655 932 LINE",
"655 862 LINE",
"799 862 LINE",
"799 176 LINE",
"762 158 OFFCURVE",
"638 115 OFFCURVE",
"575 115 QCURVE SMOOTH",
"466 115 OFFCURVE",
"379 237 OFFCURVE",
"379 346 QCURVE SMOOTH",
"379 1012 LINE",
"295 1012 LINE",
"43 932 LINE",
"43 862 LINE",
"186 862 LINE",
"186 307 LINE SMOOTH",
"186 134 OFFCURVE",
"337 -25 OFFCURVE",
"469 -25 QCURVE SMOOTH"
);
},
{
closed = 1;
nodes = (
"373 1128 LINE",
"586 1331 LINE",
"797 1128 LINE",
"920 1128 LINE",
"662 1475 LINE",
"508 1475 LINE",
"250 1128 LINE"
);
}
);
width = 1165;
}
);
unicode = 00FB;
},
{
glyphname = udieresis;
layers = (
{
layerId = "39F396E6-2268-4814-9B49-0C64559D5675";
paths = (
{
closed = 1;
nodes = (
"530 -25 OFFCURVE",
"655 24 OFFCURVE",
"764 90 OFFCURVE",
"799 117 QCURVE",
"799 0 LINE",
"1122 0 LINE",
"1122 80 LINE",
"1032 86 LINE SMOOTH",
"1014 88 OFFCURVE",
"987 112 OFFCURVE",
"987 131 QCURVE SMOOTH",
"987 1012 LINE",
"905 1012 LINE",
"655 932 LINE",
"655 862 LINE",
"799 862 LINE",
"799 176 LINE",
"762 158 OFFCURVE",
"638 115 OFFCURVE",
"575 115 QCURVE SMOOTH",
"466 115 OFFCURVE",
"379 237 OFFCURVE",
"379 346 QCURVE SMOOTH",
"379 1012 LINE",
"295 1012 LINE",
"43 932 LINE",
"43 862 LINE",
"186 862 LINE",
"186 307 LINE SMOOTH",
"186 134 OFFCURVE",
"337 -25 OFFCURVE",
"469 -25 QCURVE SMOOTH"
);
},
{
closed = 1;
nodes = (
"413 1198 OFFCURVE",
"481 1267 OFFCURVE",
"481 1313 QCURVE SMOOTH",
"481 1359 OFFCURVE",
"415 1425 OFFCURVE",
"369 1425 QCURVE SMOOTH",
"324 1425 OFFCURVE",
"258 1355 OFFCURVE",
"258 1311 QCURVE SMOOTH",
"258 1266 OFFCURVE",
"322 1198 OFFCURVE",
"367 1198 QCURVE SMOOTH"
);
},
{
closed = 1;
nodes = (
"839 1198 OFFCURVE",
"905 1267 OFFCURVE",
"905 1313 QCURVE SMOOTH",
"905 1359 OFFCURVE",
"839 1425 OFFCURVE",
"793 1425 QCURVE SMOOTH",
"750 1425 OFFCURVE",
"682 1356 OFFCURVE",
"682 1313 QCURVE SMOOTH",
"682 1267 OFFCURVE",
"747 1198 OFFCURVE",
"793 1198 QCURVE SMOOTH"
);
}
);
width = 1165;
}
);
unicode = 00FC;
},
{
glyphname = ugrave;
layers = (
{
layerId = "39F396E6-2268-4814-9B49-0C64559D5675";
paths = (
{
closed = 1;
nodes = (
"530 -25 OFFCURVE",
"655 24 OFFCURVE",
"764 90 OFFCURVE",
"799 117 QCURVE",
"799 0 LINE",
"1122 0 LINE",
"1122 80 LINE",
"1032 86 LINE SMOOTH",
"1014 88 OFFCURVE",
"987 112 OFFCURVE",
"987 131 QCURVE SMOOTH",
"987 1012 LINE",
"905 1012 LINE",
"655 932 LINE",
"655 862 LINE",
"799 862 LINE",
"799 176 LINE",
"762 158 OFFCURVE",
"638 115 OFFCURVE",
"575 115 QCURVE SMOOTH",
"466 115 OFFCURVE",
"379 237 OFFCURVE",
"379 346 QCURVE SMOOTH",
"379 1012 LINE",
"295 1012 LINE",
"43 932 LINE",
"43 862 LINE",
"186 862 LINE",
"186 307 LINE SMOOTH",
"186 134 OFFCURVE",
"337 -25 OFFCURVE",
"469 -25 QCURVE SMOOTH"
);
},
{
closed = 1;
nodes = (
"729 1128 LINE",
"457 1446 LINE SMOOTH",
"435 1472 OFFCURVE",
"389 1501 OFFCURVE",
"348 1501 QCURVE SMOOTH",
"294 1501 OFFCURVE",
"254 1440 OFFCURVE",
"254 1409 QCURVE SMOOTH",
"254 1358 OFFCURVE",
"301 1327 QCURVE SMOOTH",
"612 1128 LINE"
);
}
);
width = 1165;
}
);
unicode = 00F9;
},
{
glyphname = v;
layers = (
{
anchors = (
{
name = bottom;
position = "{542, 0}";
},
{
name = top;
position = "{542, 987}";
}
);
layerId = "39F396E6-2268-4814-9B49-0C64559D5675";
paths = (
{
closed = 1;
nodes = (
"954 895 LINE",
"596 0 LINE",
"463 0 LINE",
"133 895 LINE",
"20 907 LINE",
"20 987 LINE",
"473 987 LINE",
"473 907 LINE",
"375 901 LINE SMOOTH",
"342 898 OFFCURVE",
"342 868 QCURVE SMOOTH",
"342 864 OFFCURVE",
"344 856 QCURVE SMOOTH",
"573 215 LINE",
"825 856 LINE SMOOTH",
"828 862 OFFCURVE",
"828 869 QCURVE SMOOTH",
"828 899 OFFCURVE",
"797 901 QCURVE SMOOTH",
"705 907 LINE",
"705 987 LINE",
"1063 987 LINE",
"1063 907 LINE"
);
}
);
width = 1083;
}
);
unicode = 0076;
},
{
glyphname = w;
layers = (
{
anchors = (
{
name = bottom;
position = "{802, 0}";
},
{
name = top;
position = "{802, 987}";
}
);
layerId = "39F396E6-2268-4814-9B49-0C64559D5675";
paths = (
{
closed = 1;
nodes = (
"1479 895 LINE",
"1198 0 LINE",
"1053 0 LINE",
"811 766 LINE",
"541 0 LINE",
"395 0 LINE",
"133 895 LINE",
"20 907 LINE",
"20 987 LINE",
"469 987 LINE",
"469 907 LINE",
"373 901 LINE SMOOTH",
"341 898 OFFCURVE",
"341 867 QCURVE SMOOTH",
"341 860 OFFCURVE",
"342 856 QCURVE SMOOTH",
"512 219 LINE",
"776 987 LINE",
"922 987 LINE",
"1159 219 LINE",
"1348 856 LINE SMOOTH",
"1349 859 OFFCURVE",
"1349 866 QCURVE SMOOTH",
"1349 879 OFFCURVE",
"1333 900 OFFCURVE",
"1319 901 QCURVE SMOOTH",
"1225 907 LINE",
"1225 987 LINE",
"1583 987 LINE",
"1583 907 LINE"
);
}
);
width = 1604;
}
);
unicode = 0077;
},
{
glyphname = x;
layers = (
{
anchors = (
{
name = bottom;
position = "{522, 0}";
},
{
name = top;
position = "{522, 987}";
}
);
layerId = "39F396E6-2268-4814-9B49-0C64559D5675";
paths = (
{
closed = 1;
nodes = (
"584 0 LINE",
"584 80 LINE",
"653 88 LINE SMOOTH",
"675 90 OFFCURVE",
"675 113 QCURVE SMOOTH",
"675 119 OFFCURVE",
"672 125 QCURVE SMOOTH",
"496 387 LINE",
"295 125 LINE SMOOTH",
"290 120 OFFCURVE",
"290 109 QCURVE SMOOTH",
"290 89 OFFCURVE",
"307 88 QCURVE SMOOTH",
"410 80 LINE",
"410 0 LINE",
"20 0 LINE",
"20 80 LINE",
"137 96 LINE",
"430 477 LINE",
"152 889 LINE",
"31 907 LINE",
"31 987 LINE",
"481 987 LINE",
"481 907 LINE",
"410 897 LINE SMOOTH",
"386 894 OFFCURVE",
"386 871 QCURVE SMOOTH",
"386 865 OFFCURVE",
"389 860 QCURVE SMOOTH",
"551 631 LINE",
"729 860 LINE SMOOTH",
"734 867 OFFCURVE",
"734 874 QCURVE SMOOTH",
"734 895 OFFCURVE",
"715 897 QCURVE SMOOTH",
"627 907 LINE",
"627 987 LINE",
"995 987 LINE",
"995 907 LINE",
"885 889 LINE",
"610 539 LINE",
"913 96 LINE",
"1024 80 LINE",
"1024 0 LINE"
);
}
);
width = 1044;
}
);
unicode = 0078;
},
{
glyphname = y;
layers = (
{
anchors = (
{
name = bottom;
position = "{543, 0}";
},
{
name = top;
position = "{543, 987}";
}
);
layerId = "39F396E6-2268-4814-9B49-0C64559D5675";
paths = (
{
closed = 1;
nodes = (
"958 895 LINE",
"565 -63 LINE SMOOTH",
"552 -96 OFFCURVE",
"497 -219 OFFCURVE",
"422 -348 OFFCURVE",
"379 -391 QCURVE SMOOTH",
"342 -428 OFFCURVE",
"253 -469 OFFCURVE",
"201 -469 QCURVE SMOOTH",
"128 -469 OFFCURVE",
"51 -398 OFFCURVE",
"51 -352 QCURVE SMOOTH",
"51 -284 OFFCURVE",
"117 -229 QCURVE",
"309 -317 LINE",
"343 -283 OFFCURVE",
"411 -167 OFFCURVE",
"466 -43 OFFCURVE",
"481 2 QCURVE",
"133 895 LINE",
"20 907 LINE",
"20 987 LINE",
"473 987 LINE",
"473 907 LINE",
"375 901 LINE SMOOTH",
"342 898 OFFCURVE",
"342 868 QCURVE SMOOTH",
"342 860 OFFCURVE",
"344 856 QCURVE SMOOTH",
"582 252 LINE",
"825 856 LINE SMOOTH",
"828 862 OFFCURVE",
"828 869 QCURVE SMOOTH",
"828 899 OFFCURVE",
"797 901 QCURVE SMOOTH",
"700 907 LINE",
"700 987 LINE",
"1065 987 LINE",
"1065 907 LINE"
);
}
);
width = 1085;
}
);
unicode = 0079;
},
{
glyphname = yacute;
layers = (
{
layerId = "39F396E6-2268-4814-9B49-0C64559D5675";
paths = (
{
closed = 1;
nodes = (
"253 -469 OFFCURVE",
"342 -428 OFFCURVE",
"379 -391 QCURVE SMOOTH",
"422 -348 OFFCURVE",
"497 -219 OFFCURVE",
"552 -96 OFFCURVE",
"565 -63 QCURVE SMOOTH",
"958 895 LINE",
"1065 907 LINE",
"1065 987 LINE",
"700 987 LINE",
"700 907 LINE",
"797 901 LINE SMOOTH",
"828 899 OFFCURVE",
"828 869 QCURVE SMOOTH",
"828 862 OFFCURVE",
"825 856 QCURVE SMOOTH",
"582 252 LINE",
"344 856 LINE SMOOTH",
"342 860 OFFCURVE",
"342 868 QCURVE SMOOTH",
"342 898 OFFCURVE",
"375 901 QCURVE SMOOTH",
"473 907 LINE",
"473 987 LINE",
"20 987 LINE",
"20 907 LINE",
"133 895 LINE",
"481 2 LINE",
"466 -43 OFFCURVE",
"411 -167 OFFCURVE",
"343 -283 OFFCURVE",
"309 -317 QCURVE",
"117 -229 LINE",
"51 -284 OFFCURVE",
"51 -352 QCURVE SMOOTH",
"51 -398 OFFCURVE",
"128 -469 OFFCURVE",
"201 -469 QCURVE SMOOTH"
);
},
{
closed = 1;
nodes = (
"545 1128 LINE",
"854 1327 LINE SMOOTH",
"876 1341 OFFCURVE",
"903 1381 OFFCURVE",
"903 1409 QCURVE SMOOTH",
"903 1440 OFFCURVE",
"863 1501 OFFCURVE",
"809 1501 QCURVE SMOOTH",
"768 1501 OFFCURVE",
"722 1472 OFFCURVE",
"700 1446 QCURVE SMOOTH",
"428 1128 LINE"
);
}
);
width = 1085;
}
);
unicode = 00FD;
},
{
glyphname = ydieresis;
layers = (
{
layerId = "39F396E6-2268-4814-9B49-0C64559D5675";
paths = (
{
closed = 1;
nodes = (
"253 -469 OFFCURVE",
"342 -428 OFFCURVE",
"379 -391 QCURVE SMOOTH",
"422 -348 OFFCURVE",
"497 -219 OFFCURVE",
"552 -96 OFFCURVE",
"565 -63 QCURVE SMOOTH",
"958 895 LINE",
"1065 907 LINE",
"1065 987 LINE",
"700 987 LINE",
"700 907 LINE",
"797 901 LINE SMOOTH",
"828 899 OFFCURVE",
"828 869 QCURVE SMOOTH",
"828 862 OFFCURVE",
"825 856 QCURVE SMOOTH",
"582 252 LINE",
"344 856 LINE SMOOTH",
"342 860 OFFCURVE",
"342 868 QCURVE SMOOTH",
"342 898 OFFCURVE",
"375 901 QCURVE SMOOTH",
"473 907 LINE",
"473 987 LINE",
"20 987 LINE",
"20 907 LINE",
"133 895 LINE",
"481 2 LINE",
"466 -43 OFFCURVE",
"411 -167 OFFCURVE",
"343 -283 OFFCURVE",
"309 -317 QCURVE",
"117 -229 LINE",
"51 -284 OFFCURVE",
"51 -352 QCURVE SMOOTH",
"51 -398 OFFCURVE",
"128 -469 OFFCURVE",
"201 -469 QCURVE SMOOTH"
);
},
{
closed = 1;
nodes = (
"409 1198 OFFCURVE",
"475 1267 OFFCURVE",
"475 1313 QCURVE SMOOTH",
"475 1359 OFFCURVE",
"409 1425 OFFCURVE",
"362 1425 QCURVE SMOOTH",
"318 1425 OFFCURVE",
"252 1355 OFFCURVE",
"252 1311 QCURVE SMOOTH",
"252 1266 OFFCURVE",
"318 1198 OFFCURVE",
"362 1198 QCURVE SMOOTH"
);
},
{
closed = 1;
nodes = (
"835 1198 OFFCURVE",
"899 1267 OFFCURVE",
"899 1313 QCURVE SMOOTH",
"899 1359 OFFCURVE",
"835 1425 OFFCURVE",
"788 1425 QCURVE SMOOTH",
"745 1425 OFFCURVE",
"676 1356 OFFCURVE",
"676 1313 QCURVE SMOOTH",
"676 1267 OFFCURVE",
"742 1198 OFFCURVE",
"788 1198 QCURVE SMOOTH"
);
}
);
width = 1085;
}
);
unicode = 00FF;
},
{
glyphname = z;
layers = (
{
anchors = (
{
name = bottom;
position = "{473, 0}";
},
{
name = center;
position = "{473, 494}";
},
{
name = top;
position = "{473, 987}";
}
);
layerId = "39F396E6-2268-4814-9B49-0C64559D5675";
paths = (
{
closed = 1;
nodes = (
"70 0 LINE",
"70 109 LINE",
"612 891 LINE",
"256 891 LINE SMOOTH",
"241 891 OFFCURVE",
"218 862 OFFCURVE",
"215 848 QCURVE SMOOTH",
"195 696 LINE",
"90 696 LINE",
"90 987 LINE",
"848 987 LINE",
"848 903 LINE",
"287 98 LINE",
"700 98 LINE SMOOTH",
"714 98 OFFCURVE",
"744 132 OFFCURVE",
"745 147 QCURVE SMOOTH",
"766 309 LINE",
"877 309 LINE",
"877 0 LINE"
);
}
);
width = 946;
}
);
unicode = 007A;
},
{
glyphname = zcaron;
layers = (
{
layerId = "39F396E6-2268-4814-9B49-0C64559D5675";
paths = (
{
closed = 1;
nodes = (
"877 0 LINE",
"877 309 LINE",
"766 309 LINE",
"745 147 LINE SMOOTH",
"744 132 OFFCURVE",
"714 98 OFFCURVE",
"700 98 QCURVE SMOOTH",
"287 98 LINE",
"848 903 LINE",
"848 987 LINE",
"90 987 LINE",
"90 696 LINE",
"195 696 LINE",
"215 848 LINE SMOOTH",
"218 862 OFFCURVE",
"241 891 OFFCURVE",
"256 891 QCURVE SMOOTH",
"612 891 LINE",
"70 109 LINE",
"70 0 LINE"
);
},
{
closed = 1;
nodes = (
"560 1128 LINE",
"818 1475 LINE",
"695 1475 LINE",
"484 1272 LINE",
"271 1475 LINE",
"148 1475 LINE",
"406 1128 LINE"
);
}
);
width = 946;
}
);
unicode = 017E;
},
{
glyphname = fi;
layers = (
{
anchors = (
{
name = caret_1;
position = "{644, 0}";
}
);
layerId = "39F396E6-2268-4814-9B49-0C64559D5675";
paths = (
{
closed = 1;
nodes = (
"557 0 LINE",
"557 80 LINE",
"436 86 LINE SMOOTH",
"418 87 OFFCURVE",
"393 112 OFFCURVE",
"393 131 QCURVE SMOOTH",
"393 866 LINE",
"883 866 LINE",
"883 131 LINE SMOOTH",
"883 112 OFFCURVE",
"858 88 OFFCURVE",
"840 86 QCURVE SMOOTH",
"739 80 LINE",
"739 0 LINE",
"1219 0 LINE",
"1219 80 LINE",
"1116 86 LINE SMOOTH",
"1098 88 OFFCURVE",
"1073 112 OFFCURVE",
"1073 131 QCURVE SMOOTH",
"1073 1010 LINE",
"989 1010 LINE",
"836 971 LINE",
"393 971 LINE",
"393 1102 LINE SMOOTH",
"393 1246 OFFCURVE",
"470 1386 OFFCURVE",
"514 1409 QCURVE SMOOTH",
"516 1408 OFFCURVE",
"571 1369 OFFCURVE",
"642 1319 OFFCURVE",
"699 1279 OFFCURVE",
"702 1276 QCURVE SMOOTH",
"710 1278 OFFCURVE",
"756 1298 OFFCURVE",
"797 1345 OFFCURVE",
"797 1386 QCURVE SMOOTH",
"797 1436 OFFCURVE",
"708 1509 OFFCURVE",
"621 1509 QCURVE SMOOTH",
"521 1509 OFFCURVE",
"332 1398 OFFCURVE",
"272 1282 QCURVE SMOOTH",
"234 1209 OFFCURVE",
"203 1076 OFFCURVE",
"203 975 QCURVE",
"72 938 LINE",
"72 866 LINE",
"203 866 LINE",
"203 131 LINE SMOOTH",
"203 112 OFFCURVE",
"178 88 OFFCURVE",
"160 86 QCURVE SMOOTH",
"59 80 LINE",
"59 0 LINE"
);
},
{
closed = 1;
nodes = (
"1042 1198 OFFCURVE",
"1116 1273 OFFCURVE",
"1116 1325 QCURVE SMOOTH",
"1116 1378 OFFCURVE",
"1042 1450 OFFCURVE",
"989 1450 QCURVE SMOOTH",
"937 1450 OFFCURVE",
"864 1378 OFFCURVE",
"864 1325 QCURVE SMOOTH",
"864 1273 OFFCURVE",
"937 1198 OFFCURVE",
"989 1198 QCURVE SMOOTH"
);
}
);
width = 1288;
}
);
unicode = FB01;
},
{
glyphname = fl;
layers = (
{
anchors = (
{
name = caret_1;
position = "{638, 0}";
}
);
layerId = "39F396E6-2268-4814-9B49-0C64559D5675";
paths = (
{
closed = 1;
nodes = (
"557 0 LINE",
"557 80 LINE",
"436 86 LINE SMOOTH",
"418 87 OFFCURVE",
"393 112 OFFCURVE",
"393 131 QCURVE SMOOTH",
"393 866 LINE",
"647 866 LINE",
"647 971 LINE",
"393 971 LINE",
"393 1102 LINE SMOOTH",
"393 1246 OFFCURVE",
"470 1386 OFFCURVE",
"514 1409 QCURVE SMOOTH",
"516 1408 OFFCURVE",
"571 1369 OFFCURVE",
"642 1319 OFFCURVE",
"699 1279 OFFCURVE",
"702 1276 QCURVE SMOOTH",
"704 1276 OFFCURVE",
"706 1277 QCURVE SMOOTH",
"707 1277 OFFCURVE",
"709 1279 OFFCURVE",
"710 1279 QCURVE SMOOTH",
"725 1284 OFFCURVE",
"780 1314 OFFCURVE",
"791 1348 QCURVE",
"879 1348 LINE",
"879 129 LINE SMOOTH",
"879 116 OFFCURVE",
"848 86 OFFCURVE",
"834 86 QCURVE SMOOTH",
"725 80 LINE",
"725 0 LINE",
"1221 0 LINE",
"1221 80 LINE",
"1112 86 LINE SMOOTH",
"1099 86 OFFCURVE",
"1069 116 OFFCURVE",
"1069 129 QCURVE SMOOTH",
"1069 1509 LINE",
"985 1509 LINE",
"784 1436 LINE",
"768 1468 OFFCURVE",
"686 1509 OFFCURVE",
"621 1509 QCURVE SMOOTH",
"521 1509 OFFCURVE",
"332 1398 OFFCURVE",
"272 1282 QCURVE SMOOTH",
"234 1209 OFFCURVE",
"203 1076 OFFCURVE",
"203 975 QCURVE",
"72 938 LINE",
"72 866 LINE",
"203 866 LINE",
"203 131 LINE SMOOTH",
"203 112 OFFCURVE",
"178 88 OFFCURVE",
"160 86 QCURVE SMOOTH",
"59 80 LINE",
"59 0 LINE"
);
}
);
width = 1276;
}
);
unicode = FB02;
},
{
glyphname = ordfeminine;
layers = (
{
layerId = "39F396E6-2268-4814-9B49-0C64559D5675";
paths = (
{
closed = 1;
nodes = (
"280 770 OFFCURVE",
"383 813 OFFCURVE",
"451 856 OFFCURVE",
"451 856 QCURVE",
"469 784 LINE",
"666 784 LINE",
"666 831 LINE",
"600 836 LINE SMOOTH",
"573 840 OFFCURVE",
"573 862 QCURVE SMOOTH",
"573 1206 LINE SMOOTH",
"573 1288 OFFCURVE",
"487 1391 OFFCURVE",
"362 1391 QCURVE SMOOTH",
"297 1391 OFFCURVE",
"169 1361 OFFCURVE",
"86 1297 OFFCURVE",
"86 1245 QCURVE SMOOTH",
"86 1222 OFFCURVE",
"117 1210 OFFCURVE",
"135 1210 QCURVE SMOOTH",
"231 1210 LINE",
"231 1317 LINE",
"242 1320 OFFCURVE",
"293 1333 OFFCURVE",
"328 1333 QCURVE SMOOTH",
"451 1333 OFFCURVE",
"451 1212 QCURVE SMOOTH",
"451 1159 LINE",
"319 1133 OFFCURVE",
"161 1082 OFFCURVE",
"81 1029 OFFCURVE",
"55 970 OFFCURVE",
"55 936 QCURVE SMOOTH",
"55 857 OFFCURVE",
"157 770 OFFCURVE",
"227 770 QCURVE SMOOTH"
);
},
{
closed = 1;
nodes = (
"659 623 LINE",
"659 684 LINE",
"63 684 LINE",
"63 623 LINE"
);
},
{
closed = 1;
nodes = (
"239 842 OFFCURVE",
"186 906 OFFCURVE",
"186 944 QCURVE SMOOTH",
"186 974 OFFCURVE",
"218 1030 OFFCURVE",
"331 1085 OFFCURVE",
"451 1112 QCURVE",
"451 899 LINE",
"451 899 OFFCURVE",
"399 870 OFFCURVE",
"323 842 OFFCURVE",
"287 842 QCURVE SMOOTH"
);
}
);
width = 698;
}
);
unicode = 00AA;
},
{
glyphname = ordmasculine;
layers = (
{
layerId = "39F396E6-2268-4814-9B49-0C64559D5675";
paths = (
{
closed = 1;
nodes = (
"513 770 OFFCURVE",
"684 949 OFFCURVE",
"684 1079 QCURVE SMOOTH",
"684 1165 OFFCURVE",
"610 1307 OFFCURVE",
"470 1391 OFFCURVE",
"371 1391 QCURVE SMOOTH",
"222 1391 OFFCURVE",
"49 1211 OFFCURVE",
"49 1079 QCURVE SMOOTH",
"49 946 OFFCURVE",
"221 770 OFFCURVE",
"367 770 QCURVE SMOOTH"
);
},
{
closed = 1;
nodes = (
"680 623 LINE",
"680 684 LINE",
"55 684 LINE",
"55 623 LINE"
);
},
{
closed = 1;
nodes = (
"308 825 OFFCURVE",
"229 897 OFFCURVE",
"190 1013 OFFCURVE",
"190 1079 QCURVE SMOOTH",
"190 1180 OFFCURVE",
"277 1335 OFFCURVE",
"369 1335 QCURVE SMOOTH",
"459 1335 OFFCURVE",
"547 1180 OFFCURVE",
"547 1079 QCURVE SMOOTH",
"547 979 OFFCURVE",
"459 825 OFFCURVE",
"367 825 QCURVE SMOOTH"
);
}
);
width = 733;
}
);
unicode = 00BA;
},
{
glyphname = pi;
layers = (
{
anchors = (
{
name = "Anchor-0";
position = "{608, 1100}";
}
);
layerId = "39F396E6-2268-4814-9B49-0C64559D5675";
paths = (
{
closed = 1;
nodes = (
"269 -25 OFFCURVE",
"384 75 OFFCURVE",
"444 246 OFFCURVE",
"444 352 QCURVE SMOOTH",
"444 821 LINE",
"723 821 LINE",
"723 242 LINE SMOOTH",
"723 184 OFFCURVE",
"751 60 OFFCURVE",
"845 -25 OFFCURVE",
"944 -25 QCURVE SMOOTH",
"1039 -25 OFFCURVE",
"1176 144 OFFCURVE",
"1176 311 QCURVE",
"1098 311 LINE",
"1098 181 OFFCURVE",
"1019 57 OFFCURVE",
"973 57 QCURVE SMOOTH",
"921 57 OFFCURVE",
"896 130 OFFCURVE",
"896 196 QCURVE SMOOTH",
"896 214 OFFCURVE",
"897 254 OFFCURVE",
"897 276 QCURVE SMOOTH",
"897 821 LINE",
"1022 821 LINE SMOOTH",
"1108 821 OFFCURVE",
"1176 930 OFFCURVE",
"1176 1006 QCURVE",
"1124 1006 LINE",
"1118 984 OFFCURVE",
"1060 952 OFFCURVE",
"1026 952 QCURVE SMOOTH",
"289 952 LINE SMOOTH",
"203 952 OFFCURVE",
"98 867 OFFCURVE",
"51 751 OFFCURVE",
"51 705 QCURVE",
"111 705 LINE",
"117 723 OFFCURVE",
"136 778 OFFCURVE",
"198 821 OFFCURVE",
"266 821 QCURVE SMOOTH",
"352 821 LINE",
"352 563 LINE SMOOTH",
"352 419 OFFCURVE",
"318 246 OFFCURVE",
"266 157 OFFCURVE",
"209 127 OFFCURVE",
"186 127 QCURVE SMOOTH",
"152 127 OFFCURVE",
"109 202 OFFCURVE",
"109 262 QCURVE",
"41 262 LINE",
"41 192 OFFCURVE",
"64 60 OFFCURVE",
"127 -25 OFFCURVE",
"186 -25 QCURVE SMOOTH"
);
}
);
width = 1217;
}
);
unicode = 03C0;
},
{
glyphname = uni1200;
layers = (
{
anchors = (
{
name = "Anchor-0";
position = "{587, 1241}";
}
);
layerId = "39F396E6-2268-4814-9B49-0C64559D5675";
paths = (
{
closed = 1;
nodes = (
"550 0 OFFCURVE",
"786 152 OFFCURVE",
"942 397 OFFCURVE",
"981 538 QCURVE SMOOTH",
"1010 640 OFFCURVE",
"1034 850 OFFCURVE",
"1034 956 QCURVE SMOOTH",
"1034 1013 OFFCURVE",
"1028 1125 OFFCURVE",
"1000 1200 OFFCURVE",
"965 1200 QCURVE SMOOTH",
"941 1200 OFFCURVE",
"846 1184 OFFCURVE",
"745 1164 OFFCURVE",
"709 1157 QCURVE",
"709 1124 LINE",
"739 1093 OFFCURVE",
"764 993 OFFCURVE",
"764 940 QCURVE SMOOTH",
"764 898 OFFCURVE",
"746 753 OFFCURVE",
"717 585 OFFCURVE",
"686 430 OFFCURVE",
"674 377 QCURVE SMOOTH",
"656 301 OFFCURVE",
"614 172 OFFCURVE",
"542 94 OFFCURVE",
"479 94 QCURVE SMOOTH",
"425 94 OFFCURVE",
"378 157 OFFCURVE",
"367 247 OFFCURVE",
"367 289 QCURVE SMOOTH",
"367 333 OFFCURVE",
"392 489 OFFCURVE",
"428 675 OFFCURVE",
"464 851 OFFCURVE",
"489 980 OFFCURVE",
"489 1001 QCURVE SMOOTH",
"489 1033 OFFCURVE",
"471 1090 OFFCURVE",
"430 1090 QCURVE SMOOTH",
"408 1090 OFFCURVE",
"307 1069 OFFCURVE",
"198 1043 OFFCURVE",
"164 1034 QCURVE",
"164 1010 LINE",
"187 1006 OFFCURVE",
"205 955 OFFCURVE",
"205 938 QCURVE SMOOTH",
"205 913 OFFCURVE",
"183 786 OFFCURVE",
"151 622 OFFCURVE",
"118 456 OFFCURVE",
"96 321 OFFCURVE",
"96 289 QCURVE SMOOTH",
"96 159 OFFCURVE",
"262 0 OFFCURVE",
"391 0 QCURVE SMOOTH"
);
}
);
width = 1092;
}
);
unicode = 1200;
},
{
glyphname = uni1201;
layers = (
{
anchors = (
{
name = "Anchor-0";
position = "{610, 1236}";
}
);
layerId = "39F396E6-2268-4814-9B49-0C64559D5675";
paths = (
{
closed = 1;
nodes = (
"529 0 OFFCURVE",
"770 140 OFFCURVE",
"854 246 QCURVE SMOOTH",
"894 296 OFFCURVE",
"962 455 OFFCURVE",
"1012 623 OFFCURVE",
"1022 685 QCURVE",
"1192 715 LINE",
"1193 610 OFFCURVE",
"1291 519 OFFCURVE",
"1393 519 QCURVE SMOOTH",
"1428 519 OFFCURVE",
"1515 532 OFFCURVE",
"1544 554 QCURVE",
"1501 574 OFFCURVE",
"1481 654 OFFCURVE",
"1481 697 QCURVE SMOOTH",
"1481 736 OFFCURVE",
"1489 815 OFFCURVE",
"1495 853 QCURVE",
"1034 767 LINE",
"1039 817 OFFCURVE",
"1045 916 OFFCURVE",
"1045 965 QCURVE SMOOTH",
"1045 982 OFFCURVE",
"1041 1055 OFFCURVE",
"1027 1135 OFFCURVE",
"996 1191 OFFCURVE",
"969 1191 QCURVE SMOOTH",
"944 1191 OFFCURVE",
"848 1175 OFFCURVE",
"746 1155 OFFCURVE",
"713 1148 QCURVE",
"713 1115 LINE",
"740 1105 OFFCURVE",
"764 987 OFFCURVE",
"764 931 QCURVE SMOOTH",
"764 891 OFFCURVE",
"750 737 OFFCURVE",
"721 546 OFFCURVE",
"675 350 OFFCURVE",
"612 185 OFFCURVE",
"530 84 OFFCURVE",
"479 84 QCURVE SMOOTH",
"425 84 OFFCURVE",
"378 147 OFFCURVE",
"367 238 OFFCURVE",
"367 279 QCURVE SMOOTH",
"367 320 OFFCURVE",
"392 476 OFFCURVE",
"430 663 OFFCURVE",
"467 842 OFFCURVE",
"492 975 OFFCURVE",
"492 996 QCURVE SMOOTH",
"492 1030 OFFCURVE",
"473 1080 OFFCURVE",
"432 1080 QCURVE SMOOTH",
"405 1080 OFFCURVE",
"304 1063 OFFCURVE",
"200 1042 OFFCURVE",
"166 1035 QCURVE",
"166 1010 LINE",
"190 1004 OFFCURVE",
"207 974 OFFCURVE",
"207 945 QCURVE SMOOTH",
"207 923 OFFCURVE",
"185 787 OFFCURVE",
"152 607 OFFCURVE",
"118 424 OFFCURVE",
"96 281 OFFCURVE",
"96 254 QCURVE SMOOTH",
"96 169 OFFCURVE",
"178 56 OFFCURVE",
"312 0 OFFCURVE",
"391 0 QCURVE SMOOTH"
);
}
);
width = 1597;
}
);
unicode = 1201;
},
{
glyphname = uni1202;
layers = (
{
anchors = (
{
name = "Anchor-0";
position = "{577, 1383}";
}
);
layerId = "39F396E6-2268-4814-9B49-0C64559D5675";
paths = (
{
closed = 1;
nodes = (
"1002 -109 OFFCURVE",
"1130 -82 OFFCURVE",
"1161 -47 QCURVE",
"1125 -29 OFFCURVE",
"1094 60 OFFCURVE",
"1094 96 QCURVE SMOOTH",
"1094 122 OFFCURVE",
"1105 201 OFFCURVE",
"1120 223 QCURVE",
"1074 231 OFFCURVE",
"1032 231 QCURVE SMOOTH",
"945 231 OFFCURVE",
"834 188 OFFCURVE",
"786 113 QCURVE",
"744 108 OFFCURVE",
"641 96 OFFCURVE",
"616 96 QCURVE SMOOTH",
"594 96 OFFCURVE",
"569 149 OFFCURVE",
"569 168 QCURVE SMOOTH",
"569 182 OFFCURVE",
"577 209 OFFCURVE",
"582 221 QCURVE SMOOTH",
"963 1103 LINE SMOOTH",
"974 1129 OFFCURVE",
"1004 1210 OFFCURVE",
"1004 1238 QCURVE SMOOTH",
"1004 1281 OFFCURVE",
"961 1336 OFFCURVE",
"915 1336 QCURVE SMOOTH",
"899 1336 OFFCURVE",
"827 1319 OFFCURVE",
"742 1295 OFFCURVE",
"670 1273 OFFCURVE",
"655 1269 QCURVE",
"655 1246 LINE",
"672 1239 OFFCURVE",
"684 1208 OFFCURVE",
"684 1191 QCURVE SMOOTH",
"684 1159 OFFCURVE",
"628 1023 OFFCURVE",
"561 877 QCURVE",
"418 846 LINE",
"418 949 OFFCURVE",
"424 1132 OFFCURVE",
"424 1171 QCURVE SMOOTH",
"424 1212 OFFCURVE",
"392 1263 OFFCURVE",
"348 1263 QCURVE SMOOTH",
"328 1263 OFFCURVE",
"220 1237 OFFCURVE",
"109 1205 OFFCURVE",
"82 1197 QCURVE",
"82 1162 LINE",
"107 1152 OFFCURVE",
"123 1105 OFFCURVE",
"123 1080 QCURVE SMOOTH",
"123 1016 OFFCURVE",
"123 887 OFFCURVE",
"123 822 QCURVE SMOOTH",
"123 779 OFFCURVE",
"183 721 OFFCURVE",
"225 721 QCURVE SMOOTH",
"241 721 OFFCURVE",
"273 728 OFFCURVE",
"289 732 QCURVE SMOOTH",
"526 791 LINE",
"285 221 LINE SMOOTH",
"277 202 OFFCURVE",
"260 146 OFFCURVE",
"260 125 QCURVE SMOOTH",
"260 57 OFFCURVE",
"349 0 OFFCURVE",
"410 0 QCURVE SMOOTH",
"424 0 OFFCURVE",
"457 5 OFFCURVE",
"473 6 QCURVE SMOOTH",
"778 41 LINE",
"778 -43 OFFCURVE",
"882 -109 OFFCURVE",
"958 -109 QCURVE SMOOTH"
);
}
);
width = 1243;
}
);
unicode = 1202;
},
{
glyphname = uni1203;
layers = (
{
anchors = (
{
name = "Anchor-0";
position = "{545, 1333}";
}
);
layerId = "39F396E6-2268-4814-9B49-0C64559D5675";
paths = (
{
closed = 1;
nodes = (
"315 0 OFFCURVE",
"346 4 OFFCURVE",
"362 6 QCURVE SMOOTH",
"573 31 LINE",
"573 63 LINE",
"532 88 OFFCURVE",
"532 137 QCURVE SMOOTH",
"532 151 OFFCURVE",
"541 194 OFFCURVE",
"547 207 QCURVE SMOOTH",
"932 980 LINE SMOOTH",
"951 1018 OFFCURVE",
"969 1115 OFFCURVE",
"969 1158 QCURVE SMOOTH",
"969 1204 OFFCURVE",
"931 1281 OFFCURVE",
"877 1281 QCURVE SMOOTH",
"851 1281 OFFCURVE",
"758 1261 OFFCURVE",
"663 1235 OFFCURVE",
"631 1226 QCURVE",
"631 1203 LINE",
"670 1172 OFFCURVE",
"670 1119 QCURVE SMOOTH",
"670 1084 OFFCURVE",
"627 968 OFFCURVE",
"573 855 OFFCURVE",
"557 824 QCURVE",
"389 785 LINE",
"389 871 OFFCURVE",
"436 1021 OFFCURVE",
"436 1103 QCURVE SMOOTH",
"436 1146 OFFCURVE",
"395 1209 OFFCURVE",
"348 1209 QCURVE SMOOTH",
"326 1209 OFFCURVE",
"219 1183 OFFCURVE",
"109 1152 OFFCURVE",
"82 1144 QCURVE",
"82 1109 LINE",
"122 1099 OFFCURVE",
"150 1037 OFFCURVE",
"150 1000 QCURVE SMOOTH",
"150 950 OFFCURVE",
"129 849 OFFCURVE",
"129 799 QCURVE SMOOTH",
"129 748 OFFCURVE",
"181 676 OFFCURVE",
"236 676 QCURVE SMOOTH",
"252 676 OFFCURVE",
"284 683 OFFCURVE",
"299 687 QCURVE SMOOTH",
"518 742 LINE",
"231 160 LINE SMOOTH",
"226 149 OFFCURVE",
"207 96 OFFCURVE",
"207 84 QCURVE SMOOTH",
"207 33 OFFCURVE",
"252 0 OFFCURVE",
"299 0 QCURVE SMOOTH"
);
}
);
width = 1024;
}
);
unicode = 1203;
},
{
glyphname = uni1204;
layers = (
{
anchors = (
{
name = "Anchor-0";
position = "{525, 1405}";
}
);
layerId = "39F396E6-2268-4814-9B49-0C64559D5675";
paths = (
{
closed = 1;
nodes = (
"411 0 OFFCURVE",
"524 36 OFFCURVE",
"637 82 OFFCURVE",
"680 96 QCURVE SMOOTH",
"748 119 OFFCURVE",
"886 148 OFFCURVE",
"950 180 QCURVE SMOOTH",
"1009 209 OFFCURVE",
"1087 292 OFFCURVE",
"1087 362 QCURVE SMOOTH",
"1087 451 OFFCURVE",
"984 526 OFFCURVE",
"901 526 QCURVE SMOOTH",
"834 526 OFFCURVE",
"694 496 OFFCURVE",
"629 479 QCURVE",
"936 1088 LINE SMOOTH",
"951 1117 OFFCURVE",
"977 1191 OFFCURVE",
"977 1224 QCURVE SMOOTH",
"977 1267 OFFCURVE",
"934 1322 OFFCURVE",
"889 1322 QCURVE SMOOTH",
"867 1322 OFFCURVE",
"761 1294 OFFCURVE",
"653 1261 OFFCURVE",
"629 1254 QCURVE",
"629 1232 LINE",
"646 1225 OFFCURVE",
"657 1194 OFFCURVE",
"657 1177 QCURVE SMOOTH",
"657 1154 OFFCURVE",
"637 1089 OFFCURVE",
"627 1068 QCURVE SMOOTH",
"526 846 LINE",
"391 814 LINE",
"391 903 OFFCURVE",
"392 1082 OFFCURVE",
"392 1171 QCURVE SMOOTH",
"392 1248 OFFCURVE",
"322 1248 QCURVE SMOOTH",
"299 1248 OFFCURVE",
"192 1222 OFFCURVE",
"83 1191 OFFCURVE",
"55 1183 QCURVE",
"55 1148 LINE",
"81 1138 OFFCURVE",
"95 1092 OFFCURVE",
"96 1066 QCURVE SMOOTH",
"106 791 LINE SMOOTH",
"108 745 OFFCURVE",
"152 691 OFFCURVE",
"201 691 QCURVE SMOOTH",
"217 691 OFFCURVE",
"249 697 OFFCURVE",
"264 701 QCURVE SMOOTH",
"496 762 LINE",
"242 236 LINE SMOOTH",
"217 182 OFFCURVE",
"217 125 QCURVE SMOOTH",
"217 57 OFFCURVE",
"306 0 OFFCURVE",
"367 0 QCURVE SMOOTH"
);
},
{
closed = 1;
nodes = (
"553 150 OFFCURVE",
"512 175 OFFCURVE",
"512 205 QCURVE SMOOTH",
"512 234 OFFCURVE",
"559 332 OFFCURVE",
"582 379 QCURVE",
"613 392 OFFCURVE",
"696 418 OFFCURVE",
"729 418 QCURVE SMOOTH",
"776 418 OFFCURVE",
"805 376 OFFCURVE",
"805 334 QCURVE SMOOTH",
"805 276 OFFCURVE",
"736 194 OFFCURVE",
"632 150 OFFCURVE",
"580 150 QCURVE SMOOTH"
);
}
);
width = 1159;
}
);
unicode = 1204;
},
{
glyphname = uni1205;
layers = (
{
anchors = (
{
name = "Anchor-0";
position = "{565, 1303}";
}
);
layerId = "39F396E6-2268-4814-9B49-0C64559D5675";
paths = (
{
closed = 1;
nodes = (
"538 0 OFFCURVE",
"785 75 OFFCURVE",
"877 160 QCURVE SMOOTH",
"964 241 OFFCURVE",
"1049 467 OFFCURVE",
"1075 714 OFFCURVE",
"1075 825 QCURVE SMOOTH",
"1075 884 OFFCURVE",
"1072 1015 OFFCURVE",
"1058 1130 OFFCURVE",
"1026 1202 OFFCURVE",
"997 1202 QCURVE SMOOTH",
"974 1202 OFFCURVE",
"871 1179 OFFCURVE",
"767 1151 OFFCURVE",
"739 1143 QCURVE",
"739 1110 LINE",
"770 1093 OFFCURVE",
"793 953 OFFCURVE",
"793 852 QCURVE SMOOTH",
"793 815 OFFCURVE",
"786 675 OFFCURVE",
"769 504 OFFCURVE",
"736 331 OFFCURVE",
"683 185 OFFCURVE",
"607 96 OFFCURVE",
"555 96 QCURVE SMOOTH",
"487 96 OFFCURVE",
"434 183 OFFCURVE",
"434 244 QCURVE SMOOTH",
"434 265 OFFCURVE",
"454 380 OFFCURVE",
"462 423 QCURVE SMOOTH",
"477 506 OFFCURVE",
"508 672 OFFCURVE",
"524 754 QCURVE",
"371 723 LINE",
"377 753 OFFCURVE",
"400 863 OFFCURVE",
"420 972 OFFCURVE",
"420 999 QCURVE SMOOTH",
"420 1033 OFFCURVE",
"401 1087 OFFCURVE",
"360 1087 QCURVE SMOOTH",
"337 1087 OFFCURVE",
"234 1066 OFFCURVE",
"126 1040 OFFCURVE",
"94 1032 QCURVE",
"94 1008 LINE",
"117 1004 OFFCURVE",
"135 953 OFFCURVE",
"135 936 QCURVE SMOOTH",
"135 911 OFFCURVE",
"112 782 OFFCURVE",
"84 638 OFFCURVE",
"74 588 QCURVE",
"219 614 LINE",
"210 562 OFFCURVE",
"185 415 OFFCURVE",
"166 283 OFFCURVE",
"166 252 QCURVE SMOOTH",
"166 125 OFFCURVE",
"281 0 OFFCURVE",
"414 0 QCURVE SMOOTH"
);
}
);
width = 1133;
}
);
unicode = 1205;
},
{
glyphname = uni1206;
layers = (
{
anchors = (
{
name = "Anchor-0";
position = "{564, 1329}";
}
);
layerId = "39F396E6-2268-4814-9B49-0C64559D5675";
paths = (
{
closed = 1;
nodes = (
"539 0 OFFCURVE",
"767 118 OFFCURVE",
"907 335 OFFCURVE",
"920 481 QCURVE SMOOTH",
"950 811 LINE",
"969 809 OFFCURVE",
"1006 807 OFFCURVE",
"1025 807 QCURVE SMOOTH",
"1115 807 OFFCURVE",
"1296 865 OFFCURVE",
"1417 985 OFFCURVE",
"1417 1077 QCURVE SMOOTH",
"1417 1162 OFFCURVE",
"1337 1282 OFFCURVE",
"1245 1282 QCURVE SMOOTH",
"1225 1282 OFFCURVE",
"1174 1273 OFFCURVE",
"1151 1268 QCURVE SMOOTH",
"1021 1241 OFFCURVE",
"761 1186 OFFCURVE",
"631 1157 QCURVE",
"631 1124 LINE",
"666 1116 OFFCURVE",
"696 1024 OFFCURVE",
"696 981 QCURVE SMOOTH",
"696 964 OFFCURVE",
"688 855 OFFCURVE",
"675 701 OFFCURVE",
"660 532 OFFCURVE",
"645 378 OFFCURVE",
"639 324 QCURVE SMOOTH",
"635 281 OFFCURVE",
"607 167 OFFCURVE",
"545 82 OFFCURVE",
"487 82 QCURVE SMOOTH",
"417 82 OFFCURVE",
"360 177 OFFCURVE",
"360 240 QCURVE SMOOTH",
"360 293 OFFCURVE",
"373 463 OFFCURVE",
"391 658 OFFCURVE",
"409 842 OFFCURVE",
"422 982 OFFCURVE",
"422 1010 QCURVE SMOOTH",
"422 1043 OFFCURVE",
"401 1102 OFFCURVE",
"360 1102 QCURVE SMOOTH",
"340 1102 OFFCURVE",
"233 1077 OFFCURVE",
"122 1046 OFFCURVE",
"94 1038 QCURVE",
"94 1014 LINE",
"126 1005 OFFCURVE",
"152 945 OFFCURVE",
"152 915 QCURVE SMOOTH",
"152 892 OFFCURVE",
"141 780 OFFCURVE",
"125 637 OFFCURVE",
"109 492 OFFCURVE",
"98 376 OFFCURVE",
"98 348 QCURVE SMOOTH",
"98 252 OFFCURVE",
"155 94 OFFCURVE",
"284 0 OFFCURVE",
"391 0 QCURVE SMOOTH"
);
},
{
closed = 1;
nodes = (
"967 1012 LINE SMOOTH",
"974 1084 OFFCURVE",
"1000 1161 OFFCURVE",
"1049 1161 QCURVE SMOOTH",
"1093 1161 OFFCURVE",
"1133 1099 OFFCURVE",
"1133 1059 QCURVE SMOOTH",
"1133 978 OFFCURVE",
"1037 872 OFFCURVE",
"954 872 QCURVE"
);
}
);
width = 1419;
}
);
unicode = 1206;
},
{
glyphname = uni1207;
layers = (
{
anchors = (
{
name = "Anchor-0";
position = "{917, 1350}";
}
);
layerId = "39F396E6-2268-4814-9B49-0C64559D5675";
paths = (
{
closed = 1;
nodes = (
"930 0 OFFCURVE",
"1158 118 OFFCURVE",
"1298 335 OFFCURVE",
"1311 481 QCURVE SMOOTH",
"1341 811 LINE",
"1360 809 OFFCURVE",
"1397 807 OFFCURVE",
"1416 807 QCURVE SMOOTH",
"1478 807 OFFCURVE",
"1615 837 OFFCURVE",
"1734 901 OFFCURVE",
"1808 1004 OFFCURVE",
"1808 1077 QCURVE SMOOTH",
"1808 1162 OFFCURVE",
"1728 1282 OFFCURVE",
"1636 1282 QCURVE SMOOTH",
"1618 1282 OFFCURVE",
"1565 1273 OFFCURVE",
"1542 1268 QCURVE SMOOTH",
"1435 1246 OFFCURVE",
"1152 1186 OFFCURVE",
"1022 1157 QCURVE",
"1022 1124 LINE",
"1048 1117 OFFCURVE",
"1076 1064 OFFCURVE",
"1087 1002 OFFCURVE",
"1087 981 QCURVE SMOOTH",
"1087 969 OFFCURVE",
"1079 863 OFFCURVE",
"1066 709 OFFCURVE",
"1051 538 OFFCURVE",
"1036 380 OFFCURVE",
"1030 324 QCURVE SMOOTH",
"1026 281 OFFCURVE",
"998 167 OFFCURVE",
"936 82 OFFCURVE",
"878 82 QCURVE SMOOTH",
"808 82 OFFCURVE",
"751 177 OFFCURVE",
"751 240 QCURVE SMOOTH",
"751 273 OFFCURVE",
"764 434 OFFCURVE",
"782 637 OFFCURVE",
"800 837 OFFCURVE",
"813 986 OFFCURVE",
"813 1010 QCURVE SMOOTH",
"813 1043 OFFCURVE",
"792 1102 OFFCURVE",
"751 1102 QCURVE SMOOTH",
"736 1102 OFFCURVE",
"666 1087 OFFCURVE",
"582 1065 OFFCURVE",
"506 1044 OFFCURVE",
"485 1038 QCURVE",
"485 1014 LINE",
"517 1005 OFFCURVE",
"543 945 OFFCURVE",
"543 915 QCURVE SMOOTH",
"543 874 OFFCURVE",
"533 788 OFFCURVE",
"528 747 QCURVE",
"76 685 LINE",
"93 654 OFFCURVE",
"109 572 OFFCURVE",
"109 537 QCURVE SMOOTH",
"109 499 OFFCURVE",
"88 407 OFFCURVE",
"55 382 QCURVE",
"72 370 OFFCURVE",
"121 363 OFFCURVE",
"141 363 QCURVE SMOOTH",
"270 363 OFFCURVE",
"401 537 OFFCURVE",
"408 656 QCURVE",
"520 673 LINE",
"515 621 OFFCURVE",
"500 488 OFFCURVE",
"489 374 OFFCURVE",
"489 348 QCURVE SMOOTH",
"489 252 OFFCURVE",
"546 94 OFFCURVE",
"675 0 OFFCURVE",
"782 0 QCURVE SMOOTH"
);
},
{
closed = 1;
nodes = (
"1358 1012 LINE SMOOTH",
"1361 1042 OFFCURVE",
"1369 1111 OFFCURVE",
"1401 1161 OFFCURVE",
"1440 1161 QCURVE SMOOTH",
"1484 1161 OFFCURVE",
"1524 1099 OFFCURVE",
"1524 1059 QCURVE SMOOTH",
"1524 978 OFFCURVE",
"1428 872 OFFCURVE",
"1345 872 QCURVE"
);
}
);
width = 1810;
}
);
unicode = 1207;
},
{
glyphname = uni1208;
layers = (
{
anchors = (
{
name = "Anchor-0";
position = "{540, 1396}";
}
);
layerId = "39F396E6-2268-4814-9B49-0C64559D5675";
paths = (
{
closed = 1;
nodes = (
"213 1 OFFCURVE",
"229 4 QCURVE SMOOTH",
"436 43 LINE",
"436 74 LINE",
"400 86 OFFCURVE",
"371 143 OFFCURVE",
"367 214 OFFCURVE",
"367 244 QCURVE SMOOTH",
"367 366 OFFCURVE",
"398 589 OFFCURVE",
"497 783 OFFCURVE",
"598 862 QCURVE",
"638 807 OFFCURVE",
"673 666 OFFCURVE",
"681 600 QCURVE SMOOTH",
"692 514 OFFCURVE",
"697 339 OFFCURVE",
"704 252 QCURVE SMOOTH",
"712 152 OFFCURVE",
"765 4 OFFCURVE",
"838 4 QCURVE SMOOTH",
"846 4 OFFCURVE",
"862 6 QCURVE SMOOTH",
"1075 41 LINE",
"1075 78 LINE",
"1024 92 OFFCURVE",
"981 223 OFFCURVE",
"965 417 OFFCURVE",
"950 641 OFFCURVE",
"906 858 OFFCURVE",
"808 1035 OFFCURVE",
"715 1083 QCURVE",
"621 1296 LINE",
"369 1210 LINE",
"453 1057 LINE",
"302 932 OFFCURVE",
"148 654 OFFCURVE",
"96 335 OFFCURVE",
"96 147 QCURVE SMOOTH",
"96 95 OFFCURVE",
"131 1 OFFCURVE",
"195 1 QCURVE SMOOTH"
);
}
);
width = 1159;
}
);
unicode = 1208;
},
{
glyphname = uni1209;
layers = (
{
anchors = (
{
name = "Anchor-0";
position = "{578, 1334}";
}
);
layerId = "39F396E6-2268-4814-9B49-0C64559D5675";
paths = (
{
closed = 1;
nodes = (
"224 1 OFFCURVE",
"240 4 QCURVE SMOOTH",
"446 43 LINE",
"446 74 LINE",
"410 86 OFFCURVE",
"381 143 OFFCURVE",
"377 213 OFFCURVE",
"377 244 QCURVE SMOOTH",
"377 366 OFFCURVE",
"408 589 OFFCURVE",
"507 783 OFFCURVE",
"608 862 QCURVE",
"650 804 OFFCURVE",
"686 653 OFFCURVE",
"693 584 QCURVE SMOOTH",
"699 529 OFFCURVE",
"706 418 OFFCURVE",
"707 362 QCURVE SMOOTH",
"712 199 OFFCURVE",
"768 4 OFFCURVE",
"848 4 QCURVE SMOOTH",
"856 4 OFFCURVE",
"872 6 QCURVE SMOOTH",
"1085 41 LINE",
"1085 78 LINE",
"1046 89 OFFCURVE",
"1002 183 OFFCURVE",
"982 306 OFFCURVE",
"975 420 OFFCURVE",
"973 452 QCURVE SMOOTH",
"969 506 OFFCURVE",
"960 613 OFFCURVE",
"952 666 QCURVE",
"1155 733 LINE",
"1166 635 OFFCURVE",
"1252 532 OFFCURVE",
"1358 532 QCURVE SMOOTH",
"1412 532 OFFCURVE",
"1495 571 OFFCURVE",
"1532 608 QCURVE",
"1427 679 OFFCURVE",
"1427 807 QCURVE SMOOTH",
"1427 824 OFFCURVE",
"1435 885 OFFCURVE",
"1446 901 QCURVE",
"940 743 LINE",
"918 845 OFFCURVE",
"823 1033 OFFCURVE",
"725 1083 QCURVE",
"631 1296 LINE",
"379 1210 LINE",
"463 1057 LINE",
"312 931 OFFCURVE",
"159 653 OFFCURVE",
"106 335 OFFCURVE",
"106 147 QCURVE SMOOTH",
"106 94 OFFCURVE",
"141 1 OFFCURVE",
"206 1 QCURVE SMOOTH"
);
}
);
width = 1583;
}
);
unicode = 1209;
},
{
glyphname = uni120A;
layers = (
{
anchors = (
{
name = "Anchor-0";
position = "{548, 1350}";
}
);
layerId = "39F396E6-2268-4814-9B49-0C64559D5675";
paths = (
{
closed = 1;
nodes = (
"1462 -119 OFFCURVE",
"1550 -68 QCURVE",
"1521 -31 OFFCURVE",
"1495 35 OFFCURVE",
"1495 82 QCURVE SMOOTH",
"1495 115 OFFCURVE",
"1513 179 OFFCURVE",
"1526 209 QCURVE",
"1509 214 OFFCURVE",
"1465 219 OFFCURVE",
"1448 219 QCURVE SMOOTH",
"1379 219 OFFCURVE",
"1237 156 OFFCURVE",
"1190 106 QCURVE",
"1160 102 OFFCURVE",
"1097 94 OFFCURVE",
"1073 94 QCURVE SMOOTH",
"1023 94 OFFCURVE",
"980 211 OFFCURVE",
"965 402 OFFCURVE",
"950 629 OFFCURVE",
"906 853 OFFCURVE",
"808 1035 OFFCURVE",
"715 1083 QCURVE",
"621 1296 LINE",
"369 1210 LINE",
"453 1057 LINE",
"302 932 OFFCURVE",
"148 654 OFFCURVE",
"96 335 OFFCURVE",
"96 147 QCURVE SMOOTH",
"96 95 OFFCURVE",
"131 1 OFFCURVE",
"195 1 QCURVE SMOOTH",
"213 1 OFFCURVE",
"229 4 QCURVE SMOOTH",
"436 43 LINE",
"436 74 LINE",
"400 86 OFFCURVE",
"371 143 OFFCURVE",
"367 213 OFFCURVE",
"367 244 QCURVE SMOOTH",
"367 366 OFFCURVE",
"398 589 OFFCURVE",
"497 783 OFFCURVE",
"598 862 QCURVE",
"639 800 OFFCURVE",
"673 645 OFFCURVE",
"680 572 QCURVE SMOOTH",
"685 517 OFFCURVE",
"689 406 OFFCURVE",
"693 350 QCURVE SMOOTH",
"700 246 OFFCURVE",
"720 88 OFFCURVE",
"780 -1 OFFCURVE",
"845 -1 QCURVE SMOOTH",
"853 -1 OFFCURVE",
"878 1 OFFCURVE",
"887 2 QCURVE SMOOTH",
"1186 29 LINE",
"1200 -52 OFFCURVE",
"1279 -119 OFFCURVE",
"1360 -119 QCURVE SMOOTH"
);
}
);
width = 1638;
}
);
unicode = 120A;
},
{
glyphname = uni120B;
layers = (
{
anchors = (
{
name = "Anchor-0";
position = "{524, 1350}";
}
);
layerId = "39F396E6-2268-4814-9B49-0C64559D5675";
paths = (
{
closed = 1;
nodes = (
"768 0 OFFCURVE",
"782 2 QCURVE SMOOTH",
"981 35 LINE",
"981 66 LINE",
"940 80 OFFCURVE",
"912 204 OFFCURVE",
"908 390 OFFCURVE",
"902 607 OFFCURVE",
"864 827 OFFCURVE",
"767 1018 OFFCURVE",
"674 1083 QCURVE",
"580 1296 LINE",
"328 1210 LINE",
"412 1057 LINE",
"315 1003 OFFCURVE",
"172 818 OFFCURVE",
"94 597 OFFCURVE",
"94 487 QCURVE SMOOTH",
"94 435 OFFCURVE",
"129 341 OFFCURVE",
"193 341 QCURVE SMOOTH",
"211 341 OFFCURVE",
"227 344 QCURVE SMOOTH",
"412 377 LINE",
"412 403 LINE",
"390 411 OFFCURVE",
"381 454 OFFCURVE",
"381 473 QCURVE SMOOTH",
"381 594 OFFCURVE",
"438 793 OFFCURVE",
"530 877 QCURVE",
"583 818 OFFCURVE",
"629 665 OFFCURVE",
"638 588 QCURVE SMOOTH",
"645 532 OFFCURVE",
"649 419 OFFCURVE",
"650 363 QCURVE SMOOTH",
"655 192 OFFCURVE",
"685 0 OFFCURVE",
"761 0 QCURVE SMOOTH"
);
}
);
width = 1065;
}
);
unicode = 120B;
},
{
glyphname = uni120C;
layers = (
{
anchors = (
{
name = "Anchor-0";
position = "{540, 1342}";
}
);
layerId = "39F396E6-2268-4814-9B49-0C64559D5675";
paths = (
{
closed = 1;
nodes = (
"213 -1 OFFCURVE",
"364 62 OFFCURVE",
"449 98 QCURVE",
"449 129 LINE",
"393 148 OFFCURVE",
"369 231 OFFCURVE",
"369 283 QCURVE SMOOTH",
"369 378 OFFCURVE",
"409 603 OFFCURVE",
"501 806 OFFCURVE",
"578 868 QCURVE",
"643 771 OFFCURVE",
"670 529 OFFCURVE",
"670 416 QCURVE SMOOTH",
"670 306 LINE SMOOTH",
"670 227 OFFCURVE",
"684 87 OFFCURVE",
"746 0 OFFCURVE",
"817 0 QCURVE SMOOTH",
"870 0 OFFCURVE",
"975 60 OFFCURVE",
"1024 78 QCURVE SMOOTH",
"1084 100 OFFCURVE",
"1212 120 OFFCURVE",
"1322 156 OFFCURVE",
"1391 244 OFFCURVE",
"1391 334 QCURVE SMOOTH",
"1391 384 OFFCURVE",
"1353 488 OFFCURVE",
"1277 559 OFFCURVE",
"1219 559 QCURVE SMOOTH",
"1154 559 OFFCURVE",
"1015 494 OFFCURVE",
"950 477 QCURVE",
"946 552 OFFCURVE",
"925 727 OFFCURVE",
"876 898 OFFCURVE",
"787 1040 OFFCURVE",
"715 1083 QCURVE",
"602 1296 LINE",
"360 1202 LINE",
"459 1047 LINE",
"372 1011 OFFCURVE",
"248 865 OFFCURVE",
"165 675 OFFCURVE",
"116 467 OFFCURVE",
"96 266 OFFCURVE",
"96 184 QCURVE SMOOTH",
"96 154 OFFCURVE",
"106 67 OFFCURVE",
"145 -1 OFFCURVE",
"187 -1 QCURVE SMOOTH"
);
},
{
closed = 1;
nodes = (
"1000 147 OFFCURVE",
"952 174 OFFCURVE",
"952 197 QCURVE SMOOTH",
"952 249 OFFCURVE",
"957 352 OFFCURVE",
"954 403 QCURVE",
"982 414 OFFCURVE",
"1014 414 QCURVE SMOOTH",
"1084 414 OFFCURVE",
"1124 341 OFFCURVE",
"1124 279 QCURVE SMOOTH",
"1124 234 OFFCURVE",
"1072 147 OFFCURVE",
"1020 147 QCURVE SMOOTH"
);
}
);
width = 1475;
}
);
unicode = 120C;
},
{
glyphname = uni120D;
layers = (
{
anchors = (
{
name = "Anchor-0";
position = "{594, 1311}";
}
);
layerId = "39F396E6-2268-4814-9B49-0C64559D5675";
paths = (
{
closed = 1;
nodes = (
"1190 -2 OFFCURVE",
"1280 25 OFFCURVE",
"1387 60 OFFCURVE",
"1425 72 QCURVE",
"1425 106 LINE",
"1363 106 OFFCURVE",
"1285 218 OFFCURVE",
"1228 405 OFFCURVE",
"1165 628 OFFCURVE",
"1071 853 OFFCURVE",
"923 1042 OFFCURVE",
"807 1098 QCURVE",
"653 1296 LINE",
"430 1174 LINE",
"541 1049 LINE",
"322 868 OFFCURVE",
"96 434 OFFCURVE",
"96 147 QCURVE SMOOTH",
"96 86 OFFCURVE",
"140 14 OFFCURVE",
"205 14 QCURVE SMOOTH",
"248 14 OFFCURVE",
"340 55 OFFCURVE",
"422 105 OFFCURVE",
"449 118 QCURVE SMOOTH",
"475 131 OFFCURVE",
"567 144 OFFCURVE",
"662 160 OFFCURVE",
"690 176 QCURVE SMOOTH",
"740 205 OFFCURVE",
"805 307 OFFCURVE",
"805 365 QCURVE SMOOTH",
"805 424 OFFCURVE",
"758 518 OFFCURVE",
"688 518 QCURVE SMOOTH",
"624 518 OFFCURVE",
"493 478 OFFCURVE",
"395 434 QCURVE",
"416 571 OFFCURVE",
"572 814 OFFCURVE",
"702 872 QCURVE",
"775 833 OFFCURVE",
"874 676 OFFCURVE",
"941 478 OFFCURVE",
"994 275 OFFCURVE",
"1049 103 OFFCURVE",
"1121 -2 OFFCURVE",
"1175 -2 QCURVE SMOOTH"
);
},
{
closed = 1;
nodes = (
"406 176 OFFCURVE",
"369 221 OFFCURVE",
"369 252 QCURVE SMOOTH",
"369 284 OFFCURVE",
"377 351 OFFCURVE",
"383 383 QCURVE",
"398 389 OFFCURVE",
"441 393 OFFCURVE",
"457 393 QCURVE SMOOTH",
"547 393 OFFCURVE",
"547 299 QCURVE SMOOTH",
"547 259 OFFCURVE",
"481 176 OFFCURVE",
"438 176 QCURVE SMOOTH"
);
}
);
width = 1516;
}
);
unicode = 120D;
},
{
glyphname = uni120E;
layers = (
{
anchors = (
{
name = "Anchor-0";
position = "{555, 1327}";
}
);
layerId = "39F396E6-2268-4814-9B49-0C64559D5675";
paths = (
{
closed = 1;
nodes = (
"213 1 OFFCURVE",
"229 4 QCURVE SMOOTH",
"436 43 LINE",
"436 74 LINE",
"400 86 OFFCURVE",
"371 143 OFFCURVE",
"367 213 OFFCURVE",
"367 244 QCURVE SMOOTH",
"367 366 OFFCURVE",
"398 589 OFFCURVE",
"497 783 OFFCURVE",
"598 862 QCURVE",
"640 804 OFFCURVE",
"676 653 OFFCURVE",
"683 584 QCURVE SMOOTH",
"689 529 OFFCURVE",
"695 418 OFFCURVE",
"697 362 QCURVE SMOOTH",
"701 272 OFFCURVE",
"720 108 OFFCURVE",
"778 4 OFFCURVE",
"838 4 QCURVE SMOOTH",
"846 4 OFFCURVE",
"862 6 QCURVE SMOOTH",
"1075 41 LINE",
"1075 78 LINE",
"1041 88 OFFCURVE",
"1000 159 OFFCURVE",
"980 253 OFFCURVE",
"972 344 OFFCURVE",
"970 372 QCURVE SMOOTH",
"966 414 OFFCURVE",
"961 499 OFFCURVE",
"957 541 QCURVE SMOOTH",
"952 600 OFFCURVE",
"936 717 OFFCURVE",
"922 774 QCURVE",
"1053 809 LINE",
"1052 797 OFFCURVE",
"1051 772 OFFCURVE",
"1051 760 QCURVE SMOOTH",
"1051 660 OFFCURVE",
"1139 535 OFFCURVE",
"1247 535 QCURVE SMOOTH",
"1290 535 OFFCURVE",
"1374 559 OFFCURVE",
"1415 567 QCURVE SMOOTH",
"1455 575 OFFCURVE",
"1543 580 OFFCURVE",
"1581 594 QCURVE SMOOTH",
"1640 616 OFFCURVE",
"1708 699 OFFCURVE",
"1708 764 QCURVE SMOOTH",
"1708 856 OFFCURVE",
"1611 977 OFFCURVE",
"1513 977 QCURVE SMOOTH",
"1470 977 OFFCURVE",
"1393 953 OFFCURVE",
"1352 944 QCURVE SMOOTH",
"1311 935 OFFCURVE",
"1226 928 OFFCURVE",
"1184 920 QCURVE SMOOTH",
"1152 914 OFFCURVE",
"1089 889 OFFCURVE",
"1057 881 QCURVE SMOOTH",
"1019 871 OFFCURVE",
"941 852 OFFCURVE",
"903 842 QCURVE",
"878 919 OFFCURVE",
"788 1045 OFFCURVE",
"715 1083 QCURVE",
"621 1296 LINE",
"369 1210 LINE",
"453 1057 LINE",
"302 932 OFFCURVE",
"148 654 OFFCURVE",
"96 335 OFFCURVE",
"96 147 QCURVE SMOOTH",
"96 95 OFFCURVE",
"131 1 OFFCURVE",
"195 1 QCURVE SMOOTH"
);
},
{
closed = 1;
nodes = (
"1359 633 OFFCURVE",
"1324 709 OFFCURVE",
"1311 800 OFFCURVE",
"1311 823 QCURVE SMOOTH",
"1311 841 OFFCURVE",
"1332 874 OFFCURVE",
"1352 874 QCURVE SMOOTH",
"1388 874 OFFCURVE",
"1424 798 OFFCURVE",
"1436 707 OFFCURVE",
"1436 682 QCURVE SMOOTH",
"1436 661 OFFCURVE",
"1413 633 OFFCURVE",
"1391 633 QCURVE SMOOTH"
);
}
);
width = 1761;
}
);
unicode = 120E;
},
{
glyphname = uni120F;
layers = (
{
anchors = (
{
name = "Anchor-0";
position = "{490, 1413}";
}
);
layerId = "39F396E6-2268-4814-9B49-0C64559D5675";
paths = (
{
closed = 1;
nodes = (
"314 -164 OFFCURVE",
"435 -115 OFFCURVE",
"517 -22 OFFCURVE",
"517 43 QCURVE SMOOTH",
"517 57 OFFCURVE",
"514 72 QCURVE",
"1034 104 LINE",
"1039 1 OFFCURVE",
"1174 -104 OFFCURVE",
"1272 -104 QCURVE SMOOTH",
"1293 -104 OFFCURVE",
"1356 -92 OFFCURVE",
"1372 -76 QCURVE",
"1357 -59 OFFCURVE",
"1340 6 OFFCURVE",
"1333 73 OFFCURVE",
"1333 94 QCURVE SMOOTH",
"1333 149 OFFCURVE",
"1346 195 QCURVE",
"950 170 LINE",
"914 192 OFFCURVE",
"890 323 OFFCURVE",
"889 510 OFFCURVE",
"885 725 OFFCURVE",
"853 937 OFFCURVE",
"770 1118 OFFCURVE",
"688 1176 QCURVE",
"580 1395 LINE",
"334 1311 LINE",
"418 1169 LINE",
"246 1072 OFFCURVE",
"96 786 OFFCURVE",
"96 594 QCURVE SMOOTH",
"96 545 OFFCURVE",
"124 453 OFFCURVE",
"185 453 QCURVE SMOOTH",
"222 453 OFFCURVE",
"344 477 OFFCURVE",
"383 483 QCURVE",
"383 510 LINE",
"370 521 OFFCURVE",
"362 568 OFFCURVE",
"362 584 QCURVE SMOOTH",
"362 707 OFFCURVE",
"433 907 OFFCURVE",
"526 991 QCURVE",
"575 925 OFFCURVE",
"610 731 OFFCURVE",
"614 529 OFFCURVE",
"614 450 QCURVE SMOOTH",
"614 410 OFFCURVE",
"616 299 OFFCURVE",
"629 190 OFFCURVE",
"647 154 QCURVE",
"209 127 LINE",
"221 94 OFFCURVE",
"221 63 QCURVE SMOOTH",
"221 17 OFFCURVE",
"201 -119 OFFCURVE",
"174 -160 QCURVE",
"194 -161 OFFCURVE",
"236 -164 OFFCURVE",
"256 -164 QCURVE SMOOTH"
);
}
);
width = 1446;
}
);
unicode = 120F;
},
{
glyphname = uni1210;
layers = (
{
anchors = (
{
name = "Anchor-0";
position = "{910, 1273}";
}
);
layerId = "39F396E6-2268-4814-9B49-0C64559D5675";
paths = (
{
closed = 1;
nodes = (
"785 0 OFFCURVE",
"933 16 OFFCURVE",
"997 23 QCURVE",
"997 55 LINE",
"961 58 OFFCURVE",
"922 111 OFFCURVE",
"922 145 QCURVE SMOOTH",
"922 187 OFFCURVE",
"928 227 QCURVE SMOOTH",
"987 653 LINE",
"1070 653 OFFCURVE",
"1181 578 OFFCURVE",
"1186 489 QCURVE SMOOTH",
"1208 92 LINE SMOOTH",
"1211 42 OFFCURVE",
"1260 1 OFFCURVE",
"1308 1 QCURVE SMOOTH",
"1330 1 OFFCURVE",
"1418 11 OFFCURVE",
"1517 24 OFFCURVE",
"1554 29 QCURVE",
"1554 53 LINE",
"1520 72 OFFCURVE",
"1498 123 OFFCURVE",
"1495 160 QCURVE SMOOTH",
"1466 541 LINE SMOOTH",
"1459 630 OFFCURVE",
"1376 764 OFFCURVE",
"1276 764 QCURVE SMOOTH",
"1225 764 OFFCURVE",
"1064 735 OFFCURVE",
"997 723 QCURVE",
"1043 1038 LINE SMOOTH",
"1048 1073 OFFCURVE",
"1061 1172 OFFCURVE",
"1061 1190 QCURVE SMOOTH",
"1061 1221 OFFCURVE",
"1025 1241 OFFCURVE",
"997 1241 QCURVE SMOOTH",
"963 1241 OFFCURVE",
"930 1236 QCURVE SMOOTH",
"711 1204 LINE",
"711 1169 LINE",
"766 1153 OFFCURVE",
"766 1094 QCURVE SMOOTH",
"766 1076 OFFCURVE",
"755 983 OFFCURVE",
"738 860 OFFCURVE",
"720 735 OFFCURVE",
"713 684 QCURVE",
"529 684 OFFCURVE",
"251 561 OFFCURVE",
"96 311 OFFCURVE",
"96 119 QCURVE SMOOTH",
"96 61 OFFCURVE",
"145 1 OFFCURVE",
"204 1 QCURVE SMOOTH",
"228 1 OFFCURVE",
"250 4 QCURVE SMOOTH",
"451 31 LINE",
"451 63 LINE",
"429 67 OFFCURVE",
"412 110 OFFCURVE",
"410 162 OFFCURVE",
"410 178 QCURVE SMOOTH",
"410 250 OFFCURVE",
"437 398 OFFCURVE",
"502 522 OFFCURVE",
"615 600 OFFCURVE",
"700 604 QCURVE",
"644 227 LINE SMOOTH",
"640 200 OFFCURVE",
"627 98 OFFCURVE",
"627 70 QCURVE SMOOTH",
"627 24 OFFCURVE",
"698 0 OFFCURVE",
"735 0 QCURVE SMOOTH"
);
}
);
width = 1624;
}
);
unicode = 1210;
},
{
glyphname = uni1211;
layers = (
{
anchors = (
{
name = "Anchor-0";
position = "{910, 1273}";
}
);
layerId = "39F396E6-2268-4814-9B49-0C64559D5675";
paths = (
{
closed = 1;
nodes = (
"759 0 OFFCURVE",
"850 8 OFFCURVE",
"954 19 OFFCURVE",
"997 23 QCURVE",
"997 55 LINE",
"961 58 OFFCURVE",
"922 111 OFFCURVE",
"922 145 QCURVE SMOOTH",
"922 187 OFFCURVE",
"928 227 QCURVE SMOOTH",
"987 653 LINE",
"1070 653 OFFCURVE",
"1181 578 OFFCURVE",
"1186 489 QCURVE SMOOTH",
"1208 92 LINE SMOOTH",
"1211 42 OFFCURVE",
"1260 1 OFFCURVE",
"1308 1 QCURVE SMOOTH",
"1328 1 OFFCURVE",
"1416 10 OFFCURVE",
"1517 23 OFFCURVE",
"1554 29 QCURVE",
"1554 53 LINE",
"1520 72 OFFCURVE",
"1498 123 OFFCURVE",
"1495 160 QCURVE SMOOTH",
"1475 420 LINE",
"1591 444 LINE",
"1587 420 OFFCURVE",
"1587 391 QCURVE SMOOTH",
"1587 307 OFFCURVE",
"1678 233 OFFCURVE",
"1759 233 QCURVE SMOOTH",
"1808 233 OFFCURVE",
"1908 261 OFFCURVE",
"1944 297 QCURVE",
"1889 335 OFFCURVE",
"1868 424 OFFCURVE",
"1868 485 QCURVE SMOOTH",
"1868 508 OFFCURVE",
"1879 569 OFFCURVE",
"1892 590 QCURVE",
"1470 498 LINE",
"1465 562 OFFCURVE",
"1434 684 OFFCURVE",
"1355 764 OFFCURVE",
"1276 764 QCURVE SMOOTH",
"1223 764 OFFCURVE",
"1064 734 OFFCURVE",
"997 723 QCURVE",
"1042 1038 LINE SMOOTH",
"1047 1073 OFFCURVE",
"1061 1174 OFFCURVE",
"1061 1190 QCURVE SMOOTH",
"1061 1221 OFFCURVE",
"1025 1241 OFFCURVE",
"997 1241 QCURVE SMOOTH",
"965 1241 OFFCURVE",
"932 1236 QCURVE SMOOTH",
"711 1204 LINE",
"711 1169 LINE",
"766 1153 OFFCURVE",
"766 1094 QCURVE SMOOTH",
"766 1070 OFFCURVE",
"738 854 OFFCURVE",
"713 684 QCURVE",
"529 684 OFFCURVE",
"251 561 OFFCURVE",
"96 311 OFFCURVE",
"96 119 QCURVE SMOOTH",
"96 61 OFFCURVE",
"145 1 OFFCURVE",
"204 1 QCURVE SMOOTH",
"228 1 OFFCURVE",
"250 4 QCURVE SMOOTH",
"451 31 LINE",
"451 63 LINE",
"423 68 OFFCURVE",
"410 133 OFFCURVE",
"410 178 QCURVE SMOOTH",
"410 250 OFFCURVE",
"437 398 OFFCURVE",
"502 522 OFFCURVE",
"615 600 OFFCURVE",
"700 604 QCURVE",
"642 219 LINE SMOOTH",
"638 192 OFFCURVE",
"627 90 OFFCURVE",
"627 70 QCURVE SMOOTH",
"627 24 OFFCURVE",
"698 0 OFFCURVE",
"735 0 QCURVE SMOOTH"
);
}
);
width = 1993;
}
);
unicode = 1211;
},
{
glyphname = uni1212;
layers = (
{
anchors = (
{
name = "Anchor-0";
position = "{905, 1285}";
}
);
layerId = "39F396E6-2268-4814-9B49-0C64559D5675";
paths = (
{
closed = 1;
nodes = (
"1866 -96 OFFCURVE",
"1977 -61 OFFCURVE",
"2025 -33 QCURVE",
"1991 -1 OFFCURVE",
"1948 82 OFFCURVE",
"1948 129 QCURVE SMOOTH",
"1948 201 OFFCURVE",
"1978 264 QCURVE",
"1958 268 OFFCURVE",
"1916 270 OFFCURVE",
"1896 270 QCURVE SMOOTH",
"1821 270 OFFCURVE",
"1674 205 OFFCURVE",
"1642 131 QCURVE",
"1619 127 OFFCURVE",
"1564 117 OFFCURVE",
"1546 117 QCURVE SMOOTH",
"1516 117 OFFCURVE",
"1495 179 OFFCURVE",
"1493 201 QCURVE SMOOTH",
"1466 541 LINE SMOOTH",
"1459 630 OFFCURVE",
"1377 764 OFFCURVE",
"1276 764 QCURVE SMOOTH",
"1236 764 OFFCURVE",
"1078 737 OFFCURVE",
"997 723 QCURVE",
"1043 1038 LINE SMOOTH",
"1048 1073 OFFCURVE",
"1061 1171 OFFCURVE",
"1061 1190 QCURVE SMOOTH",
"1061 1227 OFFCURVE",
"1014 1252 OFFCURVE",
"982 1252 QCURVE SMOOTH",
"960 1252 OFFCURVE",
"859 1239 OFFCURVE",
"749 1221 OFFCURVE",
"711 1214 QCURVE",
"711 1188 LINE",
"737 1180 OFFCURVE",
"766 1127 OFFCURVE",
"766 1094 QCURVE SMOOTH",
"766 1076 OFFCURVE",
"755 982 OFFCURVE",
"738 859 OFFCURVE",
"720 734 OFFCURVE",
"713 684 QCURVE",
"529 684 OFFCURVE",
"251 561 OFFCURVE",
"96 311 OFFCURVE",
"96 119 QCURVE SMOOTH",
"96 61 OFFCURVE",
"145 1 OFFCURVE",
"204 1 QCURVE SMOOTH",
"228 1 OFFCURVE",
"250 4 QCURVE SMOOTH",
"451 31 LINE",
"451 63 LINE",
"425 72 OFFCURVE",
"410 130 OFFCURVE",
"410 178 QCURVE SMOOTH",
"410 250 OFFCURVE",
"437 398 OFFCURVE",
"502 522 OFFCURVE",
"615 600 OFFCURVE",
"700 604 QCURVE",
"642 214 LINE SMOOTH",
"638 187 OFFCURVE",
"627 98 OFFCURVE",
"627 70 QCURVE SMOOTH",
"627 24 OFFCURVE",
"698 0 OFFCURVE",
"735 0 QCURVE SMOOTH",
"777 0 OFFCURVE",
"933 16 OFFCURVE",
"997 23 QCURVE",
"997 55 LINE",
"961 58 OFFCURVE",
"922 111 OFFCURVE",
"922 145 QCURVE SMOOTH",
"922 187 OFFCURVE",
"928 227 QCURVE SMOOTH",
"987 653 LINE",
"1070 653 OFFCURVE",
"1181 578 OFFCURVE",
"1186 489 QCURVE SMOOTH",
"1208 92 LINE SMOOTH",
"1212 -2 OFFCURVE",
"1305 -2 QCURVE SMOOTH",
"1322 -2 OFFCURVE",
"1356 3 OFFCURVE",
"1372 6 QCURVE SMOOTH",
"1640 59 LINE",
"1640 -23 OFFCURVE",
"1734 -96 OFFCURVE",
"1810 -96 QCURVE SMOOTH"
);
}
);
width = 2101;
}
);
unicode = 1212;
},
{
glyphname = uni1213;
layers = (
{
anchors = (
{
name = "Anchor-0";
position = "{848, 1260}";
}
);
layerId = "39F396E6-2268-4814-9B49-0C64559D5675";
paths = (
{
closed = 1;
nodes = (
"1265 -2 OFFCURVE",
"1297 2 OFFCURVE",
"1313 4 QCURVE SMOOTH",
"1501 33 LINE",
"1501 61 LINE",
"1467 78 OFFCURVE",
"1441 146 OFFCURVE",
"1438 180 QCURVE SMOOTH",
"1407 539 LINE SMOOTH",
"1400 628 OFFCURVE",
"1318 762 OFFCURVE",
"1217 762 QCURVE SMOOTH",
"1148 762 OFFCURVE",
"1008 733 OFFCURVE",
"940 721 QCURVE",
"985 1036 LINE SMOOTH",
"990 1072 OFFCURVE",
"1004 1172 OFFCURVE",
"1004 1188 QCURVE SMOOTH",
"1004 1218 OFFCURVE",
"967 1239 OFFCURVE",
"940 1239 QCURVE SMOOTH",
"912 1239 OFFCURVE",
"879 1234 QCURVE SMOOTH",
"655 1202 LINE",
"655 1167 LINE",
"711 1150 OFFCURVE",
"711 1092 QCURVE SMOOTH",
"711 1073 OFFCURVE",
"707 1038 OFFCURVE",
"705 1020 QCURVE SMOOTH",
"662 682 LINE",
"544 682 OFFCURVE",
"433 652 QCURVE SMOOTH",
"364 633 OFFCURVE",
"207 549 OFFCURVE",
"96 423 OFFCURVE",
"96 340 QCURVE SMOOTH",
"96 287 OFFCURVE",
"135 219 OFFCURVE",
"194 219 QCURVE SMOOTH",
"208 219 OFFCURVE",
"236 223 OFFCURVE",
"250 225 QCURVE SMOOTH",
"446 260 LINE",
"446 293 LINE",
"410 298 OFFCURVE",
"410 389 QCURVE SMOOTH",
"410 436 OFFCURVE",
"471 532 OFFCURVE",
"580 600 OFFCURVE",
"651 602 QCURVE",
"625 435 LINE SMOOTH",
"621 407 OFFCURVE",
"612 343 OFFCURVE",
"612 315 QCURVE SMOOTH",
"612 268 OFFCURVE",
"673 246 OFFCURVE",
"713 246 QCURVE SMOOTH",
"731 246 OFFCURVE",
"765 251 OFFCURVE",
"782 254 QCURVE SMOOTH",
"967 289 LINE",
"967 322 LINE",
"933 325 OFFCURVE",
"901 355 OFFCURVE",
"901 391 QCURVE SMOOTH",
"901 456 OFFCURVE",
"922 587 OFFCURVE",
"930 651 QCURVE",
"941 653 OFFCURVE",
"963 655 OFFCURVE",
"974 655 QCURVE SMOOTH",
"1054 655 OFFCURVE",
"1122 560 OFFCURVE",
"1126 487 QCURVE SMOOTH",
"1149 90 LINE SMOOTH",
"1155 -2 OFFCURVE",
"1248 -2 QCURVE SMOOTH"
);
}
);
width = 1583;
}
);
unicode = 1213;
},
{
glyphname = uni1214;
layers = (
{
anchors = (
{
name = "Anchor-0";
position = "{898, 1288}";
}
);
layerId = "39F396E6-2268-4814-9B49-0C64559D5675";
paths = (
{
closed = 1;
nodes = (
"776 0 OFFCURVE",
"933 16 OFFCURVE",
"997 23 QCURVE",
"997 55 LINE",
"961 58 OFFCURVE",
"922 109 OFFCURVE",
"922 145 QCURVE SMOOTH",
"922 187 OFFCURVE",
"928 227 QCURVE SMOOTH",
"987 653 LINE",
"1070 653 OFFCURVE",
"1181 578 OFFCURVE",
"1186 489 QCURVE SMOOTH",
"1208 92 LINE SMOOTH",
"1211 43 OFFCURVE",
"1266 0 OFFCURVE",
"1313 0 QCURVE SMOOTH",
"1366 0 OFFCURVE",
"1468 27 OFFCURVE",
"1520 27 QCURVE SMOOTH",
"1626 27 LINE SMOOTH",
"1686 27 OFFCURVE",
"1805 68 OFFCURVE",
"1884 154 OFFCURVE",
"1884 223 QCURVE SMOOTH",
"1884 410 OFFCURVE",
"1700 410 QCURVE SMOOTH",
"1643 410 OFFCURVE",
"1535 383 OFFCURVE",
"1479 381 QCURVE",
"1464 541 LINE SMOOTH",
"1459 599 OFFCURVE",
"1420 700 OFFCURVE",
"1342 764 OFFCURVE",
"1276 764 QCURVE SMOOTH",
"1228 764 OFFCURVE",
"1064 736 OFFCURVE",
"997 723 QCURVE",
"1043 1038 LINE SMOOTH",
"1048 1073 OFFCURVE",
"1061 1171 OFFCURVE",
"1061 1190 QCURVE SMOOTH",
"1061 1241 OFFCURVE",
"988 1241 QCURVE SMOOTH",
"978 1241 OFFCURVE",
"932 1237 OFFCURVE",
"921 1235 QCURVE SMOOTH",
"711 1204 LINE",
"711 1169 LINE",
"766 1153 OFFCURVE",
"766 1094 QCURVE SMOOTH",
"766 1080 OFFCURVE",
"755 987 OFFCURVE",
"738 861 OFFCURVE",
"720 733 OFFCURVE",
"713 684 QCURVE",
"529 684 OFFCURVE",
"251 561 OFFCURVE",
"96 311 OFFCURVE",
"96 119 QCURVE SMOOTH",
"96 61 OFFCURVE",
"145 1 OFFCURVE",
"204 1 QCURVE SMOOTH",
"228 1 OFFCURVE",
"250 4 QCURVE SMOOTH",
"451 31 LINE",
"451 63 LINE",
"410 68 OFFCURVE",
"410 178 QCURVE SMOOTH",
"410 250 OFFCURVE",
"437 398 OFFCURVE",
"502 522 OFFCURVE",
"615 600 OFFCURVE",
"700 604 QCURVE",
"640 199 LINE SMOOTH",
"636 172 OFFCURVE",
"627 90 OFFCURVE",
"627 70 QCURVE SMOOTH",
"627 24 OFFCURVE",
"698 0 OFFCURVE",
"735 0 QCURVE SMOOTH"
);
},
{
closed = 1;
nodes = (
"1508 94 OFFCURVE",
"1492 136 OFFCURVE",
"1491 160 QCURVE SMOOTH",
"1490 198 OFFCURVE",
"1485 275 OFFCURVE",
"1483 313 QCURVE",
"1495 315 OFFCURVE",
"1518 315 OFFCURVE",
"1530 315 QCURVE SMOOTH",
"1574 315 OFFCURVE",
"1612 241 OFFCURVE",
"1612 203 QCURVE SMOOTH",
"1612 172 OFFCURVE",
"1576 94 OFFCURVE",
"1538 94 QCURVE SMOOTH"
);
}
);
width = 1966;
}
);
unicode = 1214;
},
{
glyphname = uni1215;
layers = (
{
anchors = (
{
name = "Anchor-0";
position = "{930, 1359}";
}
);
layerId = "39F396E6-2268-4814-9B49-0C64559D5675";
paths = (
{
closed = 1;
nodes = (
"779 0 OFFCURVE",
"933 16 OFFCURVE",
"997 23 QCURVE",
"997 55 LINE",
"961 58 OFFCURVE",
"922 111 OFFCURVE",
"922 145 QCURVE SMOOTH",
"922 187 OFFCURVE",
"928 227 QCURVE SMOOTH",
"987 653 LINE",
"1070 653 OFFCURVE",
"1181 578 OFFCURVE",
"1186 489 QCURVE SMOOTH",
"1208 92 LINE SMOOTH",
"1211 42 OFFCURVE",
"1260 1 OFFCURVE",
"1308 1 QCURVE SMOOTH",
"1333 1 OFFCURVE",
"1420 10 OFFCURVE",
"1517 23 OFFCURVE",
"1554 29 QCURVE",
"1554 53 LINE",
"1520 72 OFFCURVE",
"1498 123 OFFCURVE",
"1495 160 QCURVE SMOOTH",
"1466 541 LINE SMOOTH",
"1459 630 OFFCURVE",
"1376 764 OFFCURVE",
"1276 764 QCURVE SMOOTH",
"1236 764 OFFCURVE",
"1098 741 OFFCURVE",
"997 723 QCURVE",
"1029 942 LINE SMOOTH",
"1034 978 OFFCURVE",
"1047 1076 OFFCURVE",
"1047 1094 QCURVE SMOOTH",
"1047 1124 OFFCURVE",
"1010 1145 OFFCURVE",
"983 1145 QCURVE SMOOTH",
"965 1145 OFFCURVE",
"887 1135 OFFCURVE",
"802 1123 OFFCURVE",
"770 1118 QCURVE",
"778 1143 OFFCURVE",
"778 1176 QCURVE SMOOTH",
"778 1230 OFFCURVE",
"702 1295 OFFCURVE",
"598 1325 OFFCURVE",
"555 1325 QCURVE SMOOTH",
"510 1325 OFFCURVE",
"422 1315 OFFCURVE",
"379 1300 QCURVE",
"402 1271 OFFCURVE",
"438 1193 OFFCURVE",
"438 1155 QCURVE SMOOTH",
"438 1116 OFFCURVE",
"408 1047 OFFCURVE",
"385 1016 QCURVE",
"405 1006 OFFCURVE",
"465 997 OFFCURVE",
"487 997 QCURVE SMOOTH",
"527 997 OFFCURVE",
"646 1009 OFFCURVE",
"682 1029 QCURVE SMOOTH",
"695 1032 OFFCURVE",
"729 1038 OFFCURVE",
"741 1038 QCURVE SMOOTH",
"754 1038 OFFCURVE",
"758 1027 OFFCURVE",
"758 1016 QCURVE SMOOTH",
"758 1000 OFFCURVE",
"742 880 OFFCURVE",
"721 736 OFFCURVE",
"713 684 QCURVE",
"529 684 OFFCURVE",
"251 561 OFFCURVE",
"96 311 OFFCURVE",
"96 119 QCURVE SMOOTH",
"96 61 OFFCURVE",
"145 1 OFFCURVE",
"204 1 QCURVE SMOOTH",
"228 1 OFFCURVE",
"250 4 QCURVE SMOOTH",
"451 31 LINE",
"451 63 LINE",
"410 73 OFFCURVE",
"410 178 QCURVE SMOOTH",
"410 250 OFFCURVE",
"437 397 OFFCURVE",
"502 521 OFFCURVE",
"615 600 OFFCURVE",
"700 604 QCURVE",
"639 205 LINE SMOOTH",
"635 178 OFFCURVE",
"627 98 OFFCURVE",
"627 70 QCURVE SMOOTH",
"627 24 OFFCURVE",
"698 0 OFFCURVE",
"735 0 QCURVE SMOOTH"
);
}
);
width = 1638;
}
);
unicode = 1215;
},
{
glyphname = uni1216;
layers = (
{
anchors = (
{
name = "Anchor-0";
position = "{919, 1285}";
}
);
layerId = "39F396E6-2268-4814-9B49-0C64559D5675";
paths = (
{
closed = 1;
nodes = (
"228 1 OFFCURVE",
"250 4 QCURVE SMOOTH",
"451 31 LINE",
"451 63 LINE",
"424 68 OFFCURVE",
"410 134 OFFCURVE",
"410 178 QCURVE SMOOTH",
"410 250 OFFCURVE",
"437 398 OFFCURVE",
"502 522 OFFCURVE",
"615 600 OFFCURVE",
"700 604 QCURVE",
"674 414 LINE SMOOTH",
"670 386 OFFCURVE",
"659 329 OFFCURVE",
"659 301 QCURVE SMOOTH",
"659 255 OFFCURVE",
"731 231 OFFCURVE",
"768 231 QCURVE SMOOTH",
"785 231 OFFCURVE",
"820 234 OFFCURVE",
"838 235 QCURVE SMOOTH",
"1024 250 LINE",
"1024 283 LINE",
"988 286 OFFCURVE",
"954 344 OFFCURVE",
"954 377 QCURVE SMOOTH",
"954 438 OFFCURVE",
"978 584 OFFCURVE",
"985 643 QCURVE",
"1074 643 OFFCURVE",
"1182 588 OFFCURVE",
"1186 489 QCURVE SMOOTH",
"1188 451 OFFCURVE",
"1191 374 OFFCURVE",
"1192 336 QCURVE SMOOTH",
"1194 287 OFFCURVE",
"1242 245 OFFCURVE",
"1290 245 QCURVE SMOOTH",
"1310 245 OFFCURVE",
"1400 255 OFFCURVE",
"1503 268 OFFCURVE",
"1540 272 QCURVE",
"1540 297 LINE",
"1476 330 OFFCURVE",
"1473 403 QCURVE SMOOTH",
"1469 494 OFFCURVE",
"1440 659 OFFCURVE",
"1358 764 OFFCURVE",
"1276 764 QCURVE SMOOTH",
"1235 764 OFFCURVE",
"1122 746 OFFCURVE",
"997 723 QCURVE",
"1042 1038 LINE SMOOTH",
"1047 1073 OFFCURVE",
"1061 1174 OFFCURVE",
"1061 1190 QCURVE SMOOTH",
"1061 1221 OFFCURVE",
"1025 1241 OFFCURVE",
"997 1241 QCURVE SMOOTH",
"981 1241 OFFCURVE",
"951 1237 OFFCURVE",
"936 1235 QCURVE SMOOTH",
"711 1204 LINE",
"711 1169 LINE",
"766 1153 OFFCURVE",
"766 1094 QCURVE SMOOTH",
"766 1079 OFFCURVE",
"755 985 OFFCURVE",
"738 861 OFFCURVE",
"720 734 OFFCURVE",
"713 684 QCURVE",
"529 684 OFFCURVE",
"251 561 OFFCURVE",
"96 311 OFFCURVE",
"96 119 QCURVE SMOOTH",
"96 61 OFFCURVE",
"145 1 OFFCURVE",
"204 1 QCURVE SMOOTH"
);
}
);
width = 1624;
}
);
unicode = 1216;
},
{
glyphname = uni1217;
layers = (
{
anchors = (
{
name = "Anchor-0";
position = "{859, 1413}";
}
);
layerId = "39F396E6-2268-4814-9B49-0C64559D5675";
paths = (
{
closed = 1;
nodes = (
"857 -117 OFFCURVE",
"987 -59 OFFCURVE",
"1067 48 OFFCURVE",
"1053 119 QCURVE",
"1573 152 LINE",
"1578 49 OFFCURVE",
"1712 -57 OFFCURVE",
"1810 -57 QCURVE SMOOTH",
"1831 -57 OFFCURVE",
"1895 -45 OFFCURVE",
"1911 -29 QCURVE",
"1888 -3 OFFCURVE",
"1872 109 OFFCURVE",
"1872 141 QCURVE SMOOTH",
"1872 194 OFFCURVE",
"1884 242 QCURVE",
"1454 217 LINE",
"1448 222 OFFCURVE",
"1443 285 OFFCURVE",
"1438 336 QCURVE SMOOTH",
"1407 694 LINE SMOOTH",
"1400 782 OFFCURVE",
"1317 918 OFFCURVE",
"1217 918 QCURVE SMOOTH",
"1194 918 OFFCURVE",
"1149 913 OFFCURVE",
"1126 909 QCURVE SMOOTH",
"940 877 LINE",
"985 1192 LINE SMOOTH",
"990 1227 OFFCURVE",
"1004 1328 OFFCURVE",
"1004 1343 QCURVE SMOOTH",
"1004 1373 OFFCURVE",
"968 1395 OFFCURVE",
"940 1395 QCURVE SMOOTH",
"924 1395 OFFCURVE",
"885 1391 OFFCURVE",
"869 1389 QCURVE SMOOTH",
"655 1358 LINE",
"655 1323 LINE",
"711 1306 OFFCURVE",
"711 1247 QCURVE SMOOTH",
"711 1229 OFFCURVE",
"708 1194 OFFCURVE",
"706 1176 QCURVE SMOOTH",
"662 838 LINE",
"544 838 OFFCURVE",
"433 808 QCURVE SMOOTH",
"364 789 OFFCURVE",
"207 705 OFFCURVE",
"96 579 OFFCURVE",
"96 496 QCURVE SMOOTH",
"96 444 OFFCURVE",
"136 375 OFFCURVE",
"194 375 QCURVE SMOOTH",
"208 375 OFFCURVE",
"236 379 OFFCURVE",
"250 381 QCURVE SMOOTH",
"446 416 LINE",
"446 449 LINE",
"407 457 OFFCURVE",
"410 555 QCURVE SMOOTH",
"412 597 OFFCURVE",
"473 690 OFFCURVE",
"580 756 OFFCURVE",
"651 758 QCURVE",
"627 584 LINE SMOOTH",
"623 556 OFFCURVE",
"612 499 OFFCURVE",
"612 471 QCURVE SMOOTH",
"612 424 OFFCURVE",
"673 401 OFFCURVE",
"713 401 QCURVE SMOOTH",
"731 401 OFFCURVE",
"765 406 OFFCURVE",
"782 409 QCURVE SMOOTH",
"967 444 LINE",
"967 477 LINE",
"901 483 OFFCURVE",
"901 547 QCURVE SMOOTH",
"901 612 OFFCURVE",
"922 743 OFFCURVE",
"930 807 QCURVE",
"951 810 OFFCURVE",
"973 810 QCURVE SMOOTH",
"1054 810 OFFCURVE",
"1122 717 OFFCURVE",
"1126 643 QCURVE SMOOTH",
"1147 303 LINE SMOOTH",
"1149 269 OFFCURVE",
"1149 211 OFFCURVE",
"1147 199 QCURVE",
"748 174 LINE",
"760 141 OFFCURVE",
"760 111 QCURVE SMOOTH",
"760 65 OFFCURVE",
"740 -72 OFFCURVE",
"713 -113 QCURVE",
"733 -114 OFFCURVE",
"775 -117 OFFCURVE",
"795 -117 QCURVE SMOOTH"
);
}
);
width = 1997;
}
);
unicode = 1217;
},
{
glyphname = uni1218;
layers = (
{
anchors = (
{
name = "Anchor-0";
position = "{1121, 1200}";
}
);
layerId = "39F396E6-2268-4814-9B49-0C64559D5675";
paths = (
{
closed = 1;
nodes = (
"339 301 OFFCURVE",
"419 336 OFFCURVE",
"490 371 OFFCURVE",
"530 371 QCURVE SMOOTH",
"560 371 OFFCURVE",
"619 367 OFFCURVE",
"649 367 QCURVE SMOOTH",
"747 367 OFFCURVE",
"853 436 OFFCURVE",
"887 528 QCURVE SMOOTH",
"1077 1038 LINE",
"1180 1051 LINE",
"1102 684 LINE SMOOTH",
"1095 653 OFFCURVE",
"1085 589 OFFCURVE",
"1085 557 QCURVE SMOOTH",
"1085 494 OFFCURVE",
"1140 465 OFFCURVE",
"1198 465 QCURVE SMOOTH",
"1258 465 OFFCURVE",
"1323 484 QCURVE SMOOTH",
"1343 489 OFFCURVE",
"1400 508 OFFCURVE",
"1419 508 QCURVE SMOOTH",
"1445 508 OFFCURVE",
"1498 504 OFFCURVE",
"1524 504 QCURVE SMOOTH",
"1633 504 OFFCURVE",
"1780 601 OFFCURVE",
"1855 767 OFFCURVE",
"1855 870 QCURVE SMOOTH",
"1855 940 OFFCURVE",
"1809 1073 OFFCURVE",
"1710 1159 OFFCURVE",
"1630 1159 QCURVE SMOOTH",
"1587 1159 OFFCURVE",
"1486 1122 OFFCURVE",
"1446 1106 QCURVE",
"1427 1135 LINE",
"1344 1134 OFFCURVE",
"1178 1127 OFFCURVE",
"1095 1116 QCURVE SMOOTH",
"1018 1106 OFFCURVE",
"866 1079 OFFCURVE",
"788 1075 QCURVE SMOOTH",
"697 1071 OFFCURVE",
"534 1050 OFFCURVE",
"385 989 OFFCURVE",
"316 923 QCURVE SMOOTH",
"263 873 OFFCURVE",
"162 735 OFFCURVE",
"96 580 OFFCURVE",
"96 504 QCURVE SMOOTH",
"96 419 OFFCURVE",
"197 301 OFFCURVE",
"285 301 QCURVE SMOOTH"
);
},
{
closed = 1;
nodes = (
"452 438 OFFCURVE",
"410 502 OFFCURVE",
"410 535 QCURVE SMOOTH",
"410 566 OFFCURVE",
"424 630 OFFCURVE",
"431 659 QCURVE SMOOTH",
"451 732 OFFCURVE",
"526 888 OFFCURVE",
"648 997 OFFCURVE",
"735 997 QCURVE SMOOTH",
"758 997 OFFCURVE",
"782 985 QCURVE",
"616 575 LINE SMOOTH",
"606 550 OFFCURVE",
"571 486 OFFCURVE",
"521 438 OFFCURVE",
"489 438 QCURVE SMOOTH"
);
},
{
closed = 1;
nodes = (
"1370 586 OFFCURVE",
"1370 653 QCURVE SMOOTH",
"1370 666 OFFCURVE",
"1374 692 OFFCURVE",
"1376 705 QCURVE SMOOTH",
"1432 1022 LINE",
"1440 1024 OFFCURVE",
"1458 1026 OFFCURVE",
"1466 1026 QCURVE SMOOTH",
"1511 1026 OFFCURVE",
"1548 972 OFFCURVE",
"1556 896 OFFCURVE",
"1556 862 QCURVE SMOOTH",
"1556 834 OFFCURVE",
"1547 743 OFFCURVE",
"1522 650 OFFCURVE",
"1473 586 OFFCURVE",
"1434 586 QCURVE SMOOTH"
);
}
);
width = 1911;
}
);
unicode = 1218;
},
